<svg xmlns="http://www.w3.org/2000/svg" width="76" height="21" viewBox="-0.672 -0.058 76 21"><defs/><path d="M10.004.505v17.759H0V.505h3.534V7.71h3.052V.505h3.418zM6.585 16.934V9.04H3.534v7.894h3.051zm9.316 3.304h-2.753c-.52 0-.78-.261-.78-.78V.046h3.533v20.192zM29.347 2.065h-3.189v1.331c0 .918.107 1.702.321 2.352.214.65.516 1.216.906 1.698s.856.895 1.399 1.239 1.151.669 1.824.975l-.62 1.102c-1.346-.352-2.466-.834-3.361-1.446a8.968 8.968 0 01-2.237-2.157c-.658 1.041-1.423 1.916-2.295 2.627-.872.711-1.927 1.267-3.166 1.664l-.643-1.102a9.75 9.75 0 001.595-.952 6.04 6.04 0 001.354-1.388c.39-.551.704-1.205.941-1.962.237-.757.355-1.648.355-2.673V2.065h-3.51V.734h10.325v1.331zm-9.018 17.484a15.247 15.247 0 002.444-1.032 8.336 8.336 0 001.927-1.399 5.874 5.874 0 001.262-1.813c.298-.673.448-1.43.448-2.271v-1.262h4.107v1.216c0 .857.149 1.618.447 2.283a5.471 5.471 0 001.25 1.756 8.12 8.12 0 001.916 1.319 14.54 14.54 0 002.444.952l-.436 1.124c-1.652-.398-3.132-.979-4.44-1.744-1.308-.765-2.375-1.651-3.201-2.661-.811 1.132-1.862 2.08-3.155 2.845-1.293.765-2.819 1.361-4.578 1.79l-.435-1.103zm15.144-6.929h-2.73c-.352 0-.589-.068-.711-.206-.123-.138-.184-.359-.184-.665V0h3.625v12.62zM45.706 2.065v.987c0 1.881.375 3.434 1.125 4.658.749 1.224 1.843 2.271 3.281 3.143l-.758 1.034c-1.392-.536-2.517-1.179-3.373-1.928s-1.553-1.561-2.088-2.432c-.275.641-.623 1.223-1.044 1.743s-.876.987-1.365 1.4-1.006.776-1.549 1.09c-.543.314-1.089.585-1.64.814l-.734-1.055c1.514-.934 2.627-2.035 3.338-3.305s1.067-2.753 1.067-4.452V2.065h-3.465V.734h10.325v1.331h-3.12zm-.963 16.957h10.325v1.146H41.805c-.383 0-.631-.103-.745-.31-.115-.206-.173-.463-.173-.769v-5.874h3.855v5.807zM47.725 5.3h3.603V.023h3.625v14.502h-2.73c-.352 0-.589-.069-.711-.207-.123-.138-.184-.359-.184-.665V6.631h-3.603V5.3zM68.537 20.168h-3.235c-.505 0-.757-.26-.757-.779v-5.53h-6.746v-1.331h17.483v1.331h-6.745v6.309zM58.395 9.407c.979-.291 1.847-.685 2.604-1.182a9.029 9.029 0 001.916-1.652c.521-.604.914-1.235 1.182-1.893s.402-1.3.402-1.927v-.688h-5.301V.734h14.685v1.331h-5.3v.62c0 1.376.508 2.631 1.525 3.763 1.018 1.132 2.527 2.027 4.532 2.685l-.643 1.262a13.139 13.139 0 01-4.257-1.698A9.767 9.767 0 0166.586 5.6a10.733 10.733 0 01-3.189 3.235 12.86 12.86 0 01-4.337 1.836l-.665-1.264z"/></svg>