<svg xmlns="http://www.w3.org/2000/svg" width="54" height="42" viewBox="-0.575 -0.128 54 42"><defs/><path fill="#C4C4C4" d="M12.424 41.827c-3.727 0-6.419-1.035-8.283-3.313-2.07-2.07-3.313-4.348-3.727-6.833C0 30.438 0 28.782 0 27.125c0-1.656 0-3.313.414-4.969C2.071 15.323 4.97 10.353 9.111 7.04c4.141-3.106 7.247-5.383 9.525-6.833C19.464 0 20.292 0 20.914 0c.414.207.828.621 1.242 1.45 0 .828 0 1.449-.207 2.07-.414.828-1.035 1.45-1.45 1.864-2.07.828-3.934 2.07-5.797 3.727-2.071 1.863-3.728 4.969-4.97 9.525.207 0 .828 0 1.657-.207h2.691c2.899 0 5.177 1.242 7.041 3.313 1.656 2.277 2.484 5.383 2.484 9.317-.414 6.833-4.141 10.354-11.181 10.768zm28.989 0c-3.728 0-6.419-1.035-8.282-3.313-2.071-2.07-3.313-4.348-3.728-6.833-.414-1.242-.414-2.898-.414-4.556 0-1.656 0-3.313.414-4.969 1.656-6.833 4.556-11.803 8.696-15.116 4.142-3.106 7.247-5.383 9.525-6.833C48.453 0 49.281 0 49.902 0c.414.207.828.621 1.242 1.45 0 .828 0 1.449-.207 2.07-.414.828-1.035 1.45-1.449 1.864-2.07.828-3.935 2.07-5.798 3.727-2.07 1.863-3.727 4.969-4.97 9.525.207 0 .829 0 1.657-.207h2.691c2.899 0 5.177 1.242 7.04 3.313 1.656 2.277 2.485 5.383 2.485 9.317-.414 6.833-4.14 10.354-11.18 10.768z"/></svg>