<?xml version="1.0" encoding="utf-8"?>
<!-- Generator: Adobe Illustrator 13.0.0, SVG Export Plug-In  -->
<!DOCTYPE svg PUBLIC "-//W3C//DTD SVG 1.1//EN" "http://www.w3.org/Graphics/SVG/1.1/DTD/svg11.dtd" [
	<!ENTITY ns_flows "http://ns.adobe.com/Flows/1.0/">
]>
<svg version="1.1"
	 xmlns="http://www.w3.org/2000/svg" xmlns:xlink="http://www.w3.org/1999/xlink" xmlns:a="http://ns.adobe.com/AdobeSVGViewerExtensions/3.0/"
	 x="0px" y="0px" width="193px" height="99px" viewBox="0 -0.59 193 99" enable-background="new 0 -0.59 193 99"
	 xml:space="preserve">
<defs>
</defs>
<rect x="94.643" y="18.25" fill="#FFFFFF" width="2.733" height="21.916"/>
<rect x="67.762" y="30.119" transform="matrix(0.2588 0.9659 -0.9659 0.2588 88.757 -52.7017)" fill="#FFFFFF" width="21.917" height="2.734"/>
<rect x="51.651" y="36.791" transform="matrix(0.5 0.866 -0.866 0.5 64.3511 -35.1421)" fill="#FFFFFF" width="21.916" height="2.734"/>
<rect x="37.817" y="47.407" transform="matrix(0.7071 0.7071 -0.7071 0.7071 48.7743 -20.2033)" fill="#FFFFFF" width="21.916" height="2.734"/>
<rect x="27.201" y="61.242" transform="matrix(0.866 0.5 -0.5 0.866 36.4163 -10.6918)" fill="#FFFFFF" width="21.916" height="2.733"/>
<rect x="20.528" y="77.352" transform="matrix(0.9659 0.2588 -0.2588 0.9659 21.4446 -5.4666)" fill="#FFFFFF" width="21.917" height="2.734"/>
<rect x="151.851" y="94.642" fill="#FFFFFF" width="21.916" height="2.733"/>
<rect x="18.251" y="94.642" fill="#FFFFFF" width="21.917" height="2.733"/>
<rect x="159.166" y="67.762" transform="matrix(0.2586 0.966 -0.966 0.2586 195.0536 -96.7108)" fill="#FFFFFF" width="2.734" height="21.916"/>
<rect x="152.493" y="51.651" transform="matrix(0.5 0.866 -0.866 0.5 131.1461 -101.9414)" fill="#FFFFFF" width="2.732" height="21.916"/>
<rect x="141.876" y="37.816" transform="matrix(0.7073 0.7069 -0.7069 0.7073 76.4095 -86.986)" fill="#FFFFFF" width="2.735" height="21.918"/>
<rect x="128.042" y="27.2" transform="matrix(0.866 0.5 -0.5 0.866 36.4145 -59.5902)" fill="#FFFFFF" width="2.734" height="21.916"/>
<rect x="111.931" y="20.527" transform="matrix(0.9659 0.259 -0.259 0.9659 12.0191 -28.2672)" fill="#FFFFFF" width="2.734" height="21.916"/>
<rect x="94.643" y="61.435" fill="#FFFFFF" width="2.733" height="9.744"/>
<rect x="83.45" y="65.952" transform="matrix(0.2588 0.9659 -0.9659 0.2588 130.4882 -35.417)" fill="#FFFFFF" width="9.744" height="2.734"/>
<rect x="76.286" y="68.92" transform="matrix(0.5 0.866 -0.866 0.5 101.454 -35.1411)" fill="#FFFFFF" width="9.745" height="2.734"/>
<rect x="70.135" y="73.64" transform="matrix(0.7071 0.7071 -0.7071 0.7071 75.0106 -31.0688)" fill="#FFFFFF" width="9.744" height="2.734"/>
<rect x="65.415" y="79.792" transform="matrix(0.866 0.5001 -0.5001 0.866 50.0034 -24.2719)" fill="#FFFFFF" width="9.745" height="2.733"/>
<rect x="62.447" y="86.955" transform="matrix(0.9659 0.2588 -0.2588 0.9659 25.1556 -14.4151)" fill="#FFFFFF" width="9.745" height="2.734"/>
<rect x="120.838" y="94.642" fill="#FFFFFF" width="9.745" height="2.733"/>
<rect x="61.436" y="94.642" fill="#FFFFFF" width="9.745" height="2.733"/>
<rect x="123.331" y="83.45" transform="matrix(0.2586 0.966 -0.966 0.2586 177.7759 -54.9721)" fill="#FFFFFF" width="2.735" height="9.744"/>
<rect x="120.364" y="76.286" transform="matrix(0.5 0.866 -0.866 0.5 131.1542 -64.8432)" fill="#FFFFFF" width="2.734" height="9.745"/>
<rect x="115.645" y="70.134" transform="matrix(0.7071 0.7071 -0.7071 0.7071 87.3096 -60.7704)" fill="#FFFFFF" width="2.733" height="9.746"/>
<rect x="109.493" y="65.415" transform="matrix(0.8659 0.5001 -0.5001 0.8659 50.0141 -46.0227)" fill="#FFFFFF" width="2.734" height="9.745"/>
<rect x="102.329" y="62.448" transform="matrix(0.9659 0.2589 -0.2589 0.9659 20.9632 -24.5505)" fill="#FFFFFF" width="2.735" height="9.744"/>
<rect x="93.606" fill="#FFFFFF" width="4.805" height="4.803"/>
<rect x="69.379" y="3.189" transform="matrix(0.9659 -0.2587 0.2587 0.9659 0.9977 18.763)" fill="#FFFFFF" width="4.805" height="4.804"/>
<rect x="46.803" y="12.541" transform="matrix(0.866 -0.5 0.5 0.866 -0.8792 26.6045)" fill="#FFFFFF" width="4.804" height="4.803"/>
<rect x="27.417" y="27.416" transform="matrix(0.7071 -0.7071 0.7071 0.7071 -12.351 29.8187)" fill="#FFFFFF" width="4.804" height="4.804"/>
<rect x="12.541" y="46.803" transform="matrix(0.4999 -0.8661 0.8661 0.4999 -35.1428 37.5495)" fill="#FFFFFF" width="4.803" height="4.804"/>
<rect x="3.19" y="69.38" transform="matrix(0.2588 -0.9659 0.9659 0.2588 -65.1917 58.6044)" fill="#FFFFFF" width="4.803" height="4.804"/>
<rect y="93.607" fill="#FFFFFF" width="4.803" height="4.803"/>
<rect x="187.214" y="93.607" fill="#FFFFFF" width="4.804" height="4.803"/>
<rect x="184.026" y="69.379" transform="matrix(-0.2588 -0.9659 0.9659 -0.2588 165.3418 270.4344)" fill="#FFFFFF" width="4.803" height="4.804"/>
<rect x="174.674" y="46.803" transform="matrix(-0.5 -0.866 0.866 -0.5 222.9935 227.1618)" fill="#FFFFFF" width="4.803" height="4.804"/>
<rect x="159.799" y="27.417" transform="matrix(-0.707 -0.7073 0.7073 -0.707 255.779 165.6162)" fill="#FFFFFF" width="4.803" height="4.803"/>
<rect x="140.411" y="12.541" transform="matrix(-0.866 -0.5 0.5 -0.866 259.0215 99.2896)" fill="#FFFFFF" width="4.804" height="4.803"/>
<rect x="117.834" y="3.189" transform="matrix(-0.9659 -0.2588 0.2588 -0.9659 234.9308 42.104)" fill="#FFFFFF" width="4.804" height="4.804"/>
</svg>
