<?xml version="1.0" encoding="utf-8"?>
<!-- Generator: Adobe Illustrator 13.0.0, SVG Export Plug-In  -->
<!DOCTYPE svg PUBLIC "-//W3C//DTD SVG 1.1//EN" "http://www.w3.org/Graphics/SVG/1.1/DTD/svg11.dtd" [
	<!ENTITY ns_flows "http://ns.adobe.com/Flows/1.0/">
]>
<svg version="1.1"
	 xmlns="http://www.w3.org/2000/svg" xmlns:xlink="http://www.w3.org/1999/xlink" xmlns:a="http://ns.adobe.com/AdobeSVGViewerExtensions/3.0/"
	 x="0px" y="0px" width="441px" height="290px" viewBox="25 46.74 441 290" enable-background="new 25 46.74 441 290"
	 xml:space="preserve">
<defs>
</defs>
<g>
	<defs>
		<rect id="SVGID_5_" width="489.593" height="370.182"/>
	</defs>
	<clipPath id="SVGID_6_">
		<use xlink:href="#SVGID_5_"  overflow="visible"/>
	</clipPath>
	<g clip-path="url(#SVGID_6_)">
		<defs>
			<rect id="SVGID_4_" width="489.595" height="370.182"/>
		</defs>
		<clipPath id="SVGID_7_">
			<use xlink:href="#SVGID_4_"  overflow="visible"/>
		</clipPath>
		<path clip-path="url(#SVGID_7_)" fill="#FE9B8C" d="M451.173,169.832l4.069-0.107c0,0,2.632-1.674,4.779-1.19
			c2.148,0.483,1.648,1.521,1.648,1.521s1.784-0.162,2.021,0.771s-0.095,1.186-0.095,1.186s0.849-0.201,1.408,0.619
			c0.559,0.82-0.636,1.454-0.636,1.454s0.79-0.77,1.2,0.616c0.411,1.386-2.65,2.304-4.777,2.142
			c-2.126-0.161-3.173-1.005-3.173-1.005l-3.561,0.47C454.058,176.309,450.555,171.055,451.173,169.832"/>
		<path clip-path="url(#SVGID_7_)" fill="#FFFFFF" d="M384.001,137.677c0,0,3.381-2.722,7.665-2.17l-0.057-12.292
			c0,0-5.903-1.251-14.616,4.649L384.001,137.677z"/>
		<polygon clip-path="url(#SVGID_7_)" fill="#1A191E" points="390.561,145.328 386.721,123.021 387.219,122.936 390.356,141.159 
			389.472,122.994 389.977,122.97 391.063,145.273 		"/>
		<polygon clip-path="url(#SVGID_7_)" fill="#1A191E" points="390.577,145.383 381.916,124.734 382.382,124.538 389.421,141.321 
			384.388,123.603 384.875,123.464 391.053,145.216 		"/>
		<polygon clip-path="url(#SVGID_7_)" fill="#1A191E" points="390.603,145.43 377.7,126.877 378.114,126.588 388.31,141.248 
			379.823,125.756 380.267,125.513 391.032,145.165 		"/>
		<path clip-path="url(#SVGID_7_)" fill="#FFFFFF" d="M412.015,254.064c0,0-2.232,6.389-1.583,9.56s2.138,4.146,4.646,5.519
			c2.949,1.614,8.572,0.917,6.97-2.803l-1.938-6.196l-0.182-5.451l-6.881-0.097"/>
		<path clip-path="url(#SVGID_7_)" fill="#6F6F7C" d="M421.642,265.042c-0.265,0.119-0.578,0.161-0.855,0.08
			c-0.432-0.126-0.695-0.543-0.982-0.857c-0.138-0.152-0.301-0.312-0.515-0.337c-0.166-0.019-0.337,0.011-0.486,0.089
			c-0.286,0.15-0.466,0.448-0.645,0.705c-0.188,0.27-0.388,0.55-0.684,0.709c-0.336,0.181-0.712,0.132-1.062,0.021
			c-0.772-0.243-1.448-0.735-2.021-1.299c-1.342-1.318-2.243-3.103-2.767-4.893c-0.238-0.809-0.391-1.646-0.423-2.49
			c-0.562,2.126-1.146,5.025-0.771,6.854c0.648,3.171,2.138,4.146,4.646,5.519c2.949,1.614,8.572,0.917,6.97-2.803L421.642,265.042z
			"/>
		<polygon clip-path="url(#SVGID_7_)" fill="#8E3738" points="409.665,183.84 409.196,185.156 419.075,189.846 428.122,188.691 
			430.518,187.373 430.897,185.217 417.173,183.525 		"/>
		<path clip-path="url(#SVGID_7_)" fill="#2A7DE7" d="M409.196,185.156c0,0-9.912,8.119-12.015,12.971
			c-2.104,4.853-1.427,13.992-3.616,15.99c-2.189,1.998-9.216,3.956-14.28,2.84c0,0,4.694,7.729,17.708,7.074
			c13.013-0.656,15.083-32.544,15.083-32.544L409.196,185.156z"/>
		<path clip-path="url(#SVGID_7_)" fill="#E3EEFF" d="M409.079,187.689c-2.687,2.604-6.269,14.251-6.426,17.213
			c-0.158,2.962,1.23,4.166,0.173,6.658c-1.058,2.492-10.679,15.469-10.857,19.671c-0.179,4.202,2.175,6.029,2.175,6.029
			s0.461-2.852,3.602-3.07c3.141-0.219,5.051,4.228,12.231,2.3c7.181-1.927,17.676,5.024,30.205-8.19L409.079,187.689z"/>
		<path clip-path="url(#SVGID_7_)" fill="#ECECEC" d="M412.567,223.579c0,0-3.326,16.289-3.347,19.488s1.932,10.07,2.795,10.998
			c0.863,0.927,7.182,1.977,7.914,0.629c0.731-1.347,4.439-5.737,4.776-7.037c0.338-1.301,0.295-14.5,0.295-14.5
			S417.641,232.416,412.567,223.579"/>
		<g clip-path="url(#SVGID_7_)">
			<g>
				<defs>
					<rect id="SVGID_3_" x="410.457" y="223.579" width="14.544" height="23.45"/>
				</defs>
				<clipPath id="SVGID_8_">
					<use xlink:href="#SVGID_3_"  overflow="visible"/>
				</clipPath>
				<path clip-path="url(#SVGID_8_)" fill="#ECECEC" d="M411.555,237.612c0.423,0.881,0.858,1.749,1.377,2.579
					c0.523,0.836,1.111,1.635,1.754,2.382c1.256,1.458,2.741,2.682,4.489,3.505c0.853,0.401,1.756,0.712,2.688,0.862
					c0.826,0.133,1.632,0.145,2.417-0.177c0.188-0.077,0.369-0.167,0.544-0.266c0.207-3.545,0.175-13.341,0.175-13.341
					s-7.358-0.742-12.433-9.579c0,0-1.156,5.663-2.109,10.967C410.718,235.603,411.083,236.632,411.555,237.612"/>
			</g>
		</g>
		<path clip-path="url(#SVGID_7_)" fill="#FFFFFF" d="M428.617,170.045l2.736-1.033l3.365,0.893c0,0,6.175-2.084,9.669-1.807
			c9.232,0.735,7.71,3.19,10.355,5.273c2.645,2.085,4.32,6.213,7.142,7.062c0,0-5.577,1.391-8.891-0.141
			c0,0-1.055,1.484-3.854,1.327c-2.798-0.158-11.081-2.704-11.313-2.722c-0.233-0.019-3.361,2.012-5.862,3.016
			C429.467,182.917,428.617,170.045,428.617,170.045"/>
		<polygon clip-path="url(#SVGID_7_)" fill="#FE9B8C" points="424.718,171.904 424.158,175.799 418.084,171.508 418.76,163.825 
			424.731,164.181 		"/>
		<polygon clip-path="url(#SVGID_7_)" fill="#212123" points="418.546,166.254 422.569,166.362 418.417,168.418 		"/>
		<polygon clip-path="url(#SVGID_7_)" fill="#FFFFFF" points="426.149,170.621 424.722,169.735 423.867,175.444 418.266,169.222 
			417.342,170.201 425.341,183.266 		"/>
		<path clip-path="url(#SVGID_7_)" fill="#FFFFFF" d="M414.664,168.12l-2.139-3.208l-1.223,0.319l-0.849-1.108l-0.45-3.502
			l-2.347-4.529c0,0-1.979-7.185-3.72-9.51c-1.741-2.325-4.309-2.112-10.727-2.571c-6.418-0.458-11.949-0.951-11.949-0.951
			s2.619,7.644,6.561,9.133c3.942,1.489,4.114,1.943,4.114,1.943s0.138,9.301,3.086,11.505c0,0,0.781,0.074,4.35,4.939
			c3.569,4.865,9.184,5.61,9.184,5.61l-0.52,0.648l0.164,1.211l1.641,4.892l3.717-0.926l1.569-10.546L414.664,168.12z"/>
		<path clip-path="url(#SVGID_7_)" fill="#FE9B8C" d="M426.737,161.228c-0.382,2.283-1.969,4.354-4.167,5.135
			c-1.318,0.472-2.629,0.396-3.737-0.106c-0.162-0.074-0.32-0.156-0.472-0.249c-1.12-0.673-1.965-1.826-2.283-3.314
			c-0.058-0.275-0.098-0.556-0.117-0.833c-0.005-0.071-0.007-0.141-0.01-0.213v-0.002c-0.095-2.75,1.65-5.478,4.252-6.406
			c0.145-0.052,0.294-0.097,0.44-0.135c2.774-0.741,5.43,0.885,6.052,3.806C426.859,159.681,426.866,160.466,426.737,161.228"/>
		<path clip-path="url(#SVGID_7_)" fill="#212123" d="M426.452,162.742c-5.573-1.873-6.347-6.755-6.542-7.775v-0.002
			c3.212-0.972,6.692,0.038,7.219,3.583C427.393,160.321,426.909,161.903,426.452,162.742"/>
		<path clip-path="url(#SVGID_7_)" fill="#212123" d="M417.976,160.606c0.009,0.199-0.144,0.368-0.342,0.377
			c-0.2,0.009-0.368-0.144-0.377-0.343c-0.009-0.199,0.144-0.367,0.343-0.376C417.797,160.254,417.966,160.408,417.976,160.606"/>
		<path clip-path="url(#SVGID_7_)" fill="#212123" d="M420.298,161.032c0.009,0.199-0.144,0.368-0.343,0.377
			c-0.198,0.009-0.367-0.144-0.376-0.342c-0.009-0.199,0.144-0.368,0.342-0.377C420.12,160.68,420.289,160.833,420.298,161.032"/>
		<path clip-path="url(#SVGID_7_)" fill="#212123" d="M419.06,162.232c-0.019,0.001-0.038-0.001-0.058-0.008
			c-0.337-0.107-0.685-0.191-1.034-0.249c-0.051-0.008-0.096-0.041-0.12-0.086s-0.024-0.102-0.002-0.148
			c0.322-0.667,0.645-1.334,0.968-2c0.04-0.083,0.139-0.117,0.221-0.077c0.082,0.04,0.116,0.139,0.076,0.221
			c-0.292,0.602-0.583,1.203-0.874,1.805c0.292,0.057,0.582,0.131,0.865,0.221c0.086,0.028,0.134,0.121,0.106,0.208
			C419.188,162.186,419.127,162.229,419.06,162.232"/>
		<path clip-path="url(#SVGID_7_)" fill="#E94A2D" d="M418.551,162.675l1.978-0.606c0,0-0.063,1.431-0.521,1.583
			C419.55,163.805,418.551,162.675,418.551,162.675"/>
		<path clip-path="url(#SVGID_7_)" fill="#212123" d="M420.503,159.701c-0.194,0.086-0.294,0.089-0.431,0.061
			c-0.132-0.032-0.274-0.075-0.451-0.211l-0.015-0.011c-0.115-0.088-0.137-0.251-0.049-0.366c0.006-0.008,0.013-0.017,0.021-0.024
			c0.168-0.171,0.375-0.223,0.588-0.216c0.208,0.01,0.449,0.102,0.562,0.353c0.064,0.145,0,0.315-0.146,0.38h0L420.503,159.701z"/>
		<path clip-path="url(#SVGID_7_)" fill="#212123" d="M418.106,159.387c-0.193,0.086-0.294,0.089-0.431,0.061
			c-0.132-0.033-0.274-0.075-0.451-0.211l-0.015-0.011c-0.115-0.087-0.137-0.251-0.049-0.366c0.006-0.008,0.014-0.017,0.021-0.024
			c0.168-0.171,0.375-0.224,0.588-0.217c0.208,0.011,0.449,0.102,0.561,0.353c0.065,0.145,0,0.315-0.145,0.38l-0.001,0
			L418.106,159.387z"/>
		<path clip-path="url(#SVGID_7_)" fill="#FE9B8C" d="M427.843,162.969c-0.079,1.207-1.121,2.121-2.327,2.042
			c-1.206-0.079-2.121-1.121-2.042-2.328s1.121-2.121,2.328-2.042C427.008,160.721,427.922,161.763,427.843,162.969"/>
		<path clip-path="url(#SVGID_7_)" fill="#212123" d="M424.601,163.728c-0.042-0.002-0.083-0.021-0.113-0.055
			c-0.256-0.287-0.384-0.655-0.362-1.038c0.022-0.383,0.192-0.735,0.479-0.99c0.286-0.255,0.655-0.384,1.038-0.362
			c0.004,0,0.008,0,0.012,0.001c0.378,0.024,0.726,0.194,0.978,0.477c0.061,0.069,0.055,0.172-0.013,0.233
			c-0.068,0.06-0.172,0.055-0.233-0.013c-0.197-0.221-0.468-0.346-0.763-0.369c-0.294-0.017-0.579,0.082-0.8,0.279
			c-0.22,0.197-0.351,0.468-0.368,0.763c-0.017,0.295,0.083,0.579,0.279,0.8c0.061,0.068,0.055,0.172-0.013,0.233
			C424.687,163.717,424.644,163.73,424.601,163.728"/>
		<path clip-path="url(#SVGID_7_)" fill="#FE9B8C" d="M395.154,155.19c0.062-1.177,0.662-2.38,0.849-3.544
			c0.201-1.254,0.455-1.682,1.098-2.815l-2.063-2.72c-0.205-0.879-1.051-2.576-1.674-3.144c-0.623-0.568-3.586-0.304-3.586-0.304
			c-0.258-0.557-0.643-0.506-1.186-0.494c-0.543,0.013-1.341,0.474-2.042,1.745c-0.7,1.271,0.028,1.38,0.028,1.38
			c-0.58,1.435,0.333,1.415,0.333,1.415c-0.672,1.564,0.662,1.867,0.662,1.867c-0.267,0.666-0.252,1.457,0.609,1.913
			c0.861,0.456,2.093,0.654,2.789,0.616l3.941,6.113C394.913,156.529,395.117,155.877,395.154,155.19"/>
		<path clip-path="url(#SVGID_7_)" fill="#212123" d="M390.06,149.609c-0.022,0-0.044-0.005-0.064-0.018
			c-0.06-0.035-0.08-0.113-0.045-0.173c0.012-0.021,1.284-2.131,3.532-1.637c0.068,0.015,0.111,0.082,0.096,0.15
			c-0.015,0.068-0.084,0.112-0.151,0.097c-2.07-0.456-3.212,1.438-3.259,1.519C390.145,149.587,390.103,149.609,390.06,149.609"/>
		<path clip-path="url(#SVGID_7_)" fill="#FE9B8C" d="M393.602,143.167c0,0-0.954-0.819-1.634-1.226
			c-0.514-0.308-0.491-0.541-2.371-0.012c-1.879,0.529-2.065,0.834-1.951,1.493c0.114,0.66,1.312,0.689,2.054,0.536
			c0.742-0.154,1.3,0.086,1.3,0.086s-0.625,2.085,1.104,3.378"/>
		<path clip-path="url(#SVGID_7_)" fill="#212123" d="M392.103,147.548c-0.026,0-0.053-0.008-0.076-0.025
			c-1.539-1.151-1.279-2.926-1.178-3.397c-0.185-0.056-0.61-0.151-1.125-0.043c-0.624,0.129-1.453,0.124-1.894-0.176
			c-0.174-0.118-0.278-0.273-0.311-0.461c-0.141-0.813,0.26-1.135,2.042-1.636c1.641-0.462,1.879-0.365,2.305-0.08
			c0.05,0.033,0.104,0.068,0.165,0.105c0.682,0.408,1.612,1.205,1.651,1.239c0.053,0.045,0.06,0.125,0.014,0.178
			c-0.046,0.053-0.125,0.059-0.178,0.014c-0.009-0.008-0.954-0.816-1.617-1.213c-0.065-0.04-0.121-0.077-0.174-0.112
			c-0.335-0.224-0.503-0.336-2.097,0.112c-1.913,0.539-1.953,0.818-1.861,1.351c0.021,0.119,0.087,0.216,0.204,0.295
			c0.362,0.246,1.129,0.255,1.7,0.137c0.771-0.16,1.351,0.083,1.375,0.093c0.059,0.025,0.09,0.091,0.071,0.153
			c-0.024,0.082-0.577,2.019,1.058,3.241c0.056,0.042,0.068,0.121,0.026,0.177C392.18,147.531,392.142,147.548,392.103,147.548"/>
		<path clip-path="url(#SVGID_7_)" fill="#FE9B8C" d="M388.039,144.446c0,0,0.521-0.595,0.749-0.688c0,0,0.843,0.448,1.4,0.236
			c0.558-0.213,0.768-1.332-1.731-1.757c-0.847-0.143-1.748,1.519-1.748,1.519"/>
		<path clip-path="url(#SVGID_7_)" fill="#212123" d="M388.039,144.572c-0.03,0-0.059-0.01-0.083-0.031
			c-0.053-0.046-0.058-0.126-0.012-0.179c0.09-0.103,0.553-0.623,0.797-0.721c0.035-0.014,0.074-0.012,0.106,0.005
			c0.008,0.004,0.8,0.418,1.296,0.229c0.146-0.056,0.294-0.215,0.273-0.433c-0.018-0.178-0.212-0.781-1.981-1.082
			c-0.622-0.107-1.377,1.014-1.616,1.454c-0.034,0.062-0.111,0.084-0.171,0.051c-0.062-0.033-0.084-0.11-0.051-0.172
			c0.038-0.071,0.951-1.739,1.88-1.583c1.893,0.322,2.163,1.021,2.19,1.307c0.029,0.299-0.15,0.584-0.436,0.693
			c-0.519,0.198-1.232-0.11-1.444-0.212c-0.166,0.103-0.479,0.428-0.655,0.628C388.109,144.558,388.074,144.572,388.039,144.572"/>
		<path clip-path="url(#SVGID_7_)" fill="#FE9B8C" d="M388.02,145.875c0,0,0.521-0.595,0.749-0.687c0,0,0.843,0.448,1.4,0.235
			c0.557-0.212,0.768-1.332-1.732-1.757c-0.846-0.143-1.747,1.519-1.747,1.519"/>
		<path clip-path="url(#SVGID_7_)" fill="#212123" d="M388.02,146.001c-0.03,0-0.059-0.01-0.083-0.031
			c-0.052-0.046-0.058-0.126-0.012-0.179c0.09-0.103,0.553-0.623,0.796-0.722c0.035-0.014,0.074-0.011,0.107,0.006
			c0.008,0.004,0.798,0.418,1.296,0.229c0.146-0.056,0.294-0.215,0.273-0.432c-0.018-0.178-0.212-0.782-1.981-1.082
			c-0.624-0.103-1.376,1.014-1.616,1.454c-0.033,0.062-0.11,0.084-0.17,0.051c-0.062-0.033-0.084-0.11-0.051-0.171
			c0.037-0.068,0.875-1.593,1.755-1.593c0.042,0,0.083,0.003,0.125,0.011c1.893,0.322,2.163,1.021,2.19,1.307
			c0.03,0.299-0.149,0.583-0.435,0.693c-0.519,0.199-1.232-0.11-1.444-0.212c-0.166,0.104-0.479,0.429-0.654,0.629
			C388.09,145.986,388.055,146.001,388.02,146.001"/>
		<path clip-path="url(#SVGID_7_)" fill="#FE9B8C" d="M388.294,147.33c0,0,0.521-0.596,0.749-0.688c0,0,0.843,0.448,1.4,0.235
			c0.557-0.212,0.768-1.332-1.732-1.757c-0.846-0.144-1.747,1.519-1.747,1.519"/>
		<path clip-path="url(#SVGID_7_)" fill="#212123" d="M388.294,147.457c-0.03,0-0.06-0.01-0.083-0.031
			c-0.053-0.046-0.058-0.126-0.012-0.179c0.09-0.103,0.553-0.623,0.796-0.721c0.035-0.014,0.074-0.012,0.107,0.005
			c0.008,0.004,0.799,0.419,1.296,0.23c0.146-0.056,0.294-0.215,0.273-0.433c-0.017-0.177-0.212-0.782-1.981-1.082
			c-0.631-0.105-1.376,1.014-1.615,1.454c-0.034,0.062-0.111,0.083-0.171,0.051c-0.062-0.033-0.084-0.111-0.051-0.171
			c0.039-0.071,0.951-1.74,1.879-1.583c1.894,0.322,2.163,1.021,2.191,1.306c0.03,0.3-0.149,0.584-0.435,0.693
			c-0.519,0.198-1.232-0.11-1.444-0.212c-0.166,0.104-0.479,0.429-0.655,0.629C388.364,147.441,388.329,147.457,388.294,147.457"/>
		<path clip-path="url(#SVGID_7_)" fill="#FE9B8C" d="M388.954,148.998c0,0,0.375-0.691,0.574-0.83c0,0,0.897,0.26,1.386-0.066
			c0.488-0.325,0.459-1.464-2.017-1.351c-0.838,0.038-1.357,1.853-1.357,1.853"/>
		<path clip-path="url(#SVGID_7_)" fill="#212123" d="M388.954,149.124c-0.021,0-0.041-0.004-0.06-0.015
			c-0.062-0.033-0.084-0.11-0.051-0.171c0.065-0.12,0.4-0.725,0.613-0.874c0.032-0.022,0.071-0.028,0.107-0.017
			c0.009,0.002,0.848,0.24,1.282-0.049c0.13-0.086,0.239-0.276,0.17-0.487c-0.055-0.168-0.371-0.712-2.111-0.633
			c-0.612,0.027-1.104,1.281-1.242,1.761c-0.019,0.067-0.09,0.105-0.156,0.087c-0.067-0.02-0.106-0.09-0.086-0.156
			c0.022-0.078,0.554-1.903,1.473-1.945c1.873-0.083,2.274,0.536,2.362,0.808c0.094,0.288-0.017,0.607-0.271,0.776
			c-0.455,0.303-1.197,0.155-1.425,0.099c-0.137,0.137-0.369,0.519-0.494,0.751C389.042,149.1,388.999,149.124,388.954,149.124"/>
		<path clip-path="url(#SVGID_7_)" fill="#2A7DE7" d="M419.102,171.569l-4.438-3.45c0,0,1.148,11.733-4.553,14.038l-1.911-4.108
			l0.413,4.621l1.052,1.17c0,0,13.492,2.167,15.453,2.219c1.961,0.052,5.779-0.842,5.779-0.842l1.726-5.328
			c0,0,0.263-5.265-0.98-7.302c-1.244-2.037-3.661-3.062-3.661-3.062l-1.833,1.096l-1.593,10.863L419.102,171.569z"/>
		<path clip-path="url(#SVGID_7_)" fill="#212123" d="M420.328,156.66c0,0-1.578,1.642-3.917,1.924c0,0,0.01-2.849,3.498-3.619
			L420.328,156.66z"/>
		<path clip-path="url(#SVGID_7_)" fill="#383544" d="M434.971,159.313c-0.096,0.739-5.599,0.635-12.292-0.232
			c-6.693-0.867-12.042-2.168-11.946-2.908c0.096-0.739,5.599-0.635,12.292,0.232C429.718,157.272,435.067,158.574,434.971,159.313"
			/>
		<path clip-path="url(#SVGID_7_)" fill="#383544" d="M417.634,155.848l2.711-7.96l6.835,0.96l0.209,8.661
			c0,0-0.988,1.184-5.173,0.487C418.033,157.299,417.634,155.848,417.634,155.848"/>
		<path clip-path="url(#SVGID_7_)" fill="#FFFFFF" d="M410.223,191.224c-4.182,3.745-7.607,17.594-5.058,24.962
			c2.406,6.95,3.912,16.311,10.853,22.103c0,0,4.73,4.154,7.828,3.493c3.098-0.662,6.7-1.433,7.785-12.296
			C432.716,218.624,410.223,191.224,410.223,191.224"/>
		<path clip-path="url(#SVGID_7_)" fill="#2A7DE7" d="M409.196,185.156c0,0,13.531,2.898,15.391,2.943
			c1.86,0.043,5.93-0.726,5.93-0.726s2.694,6.045,2.584,8.743c-0.111,2.698-1.104,7.98-1.104,7.98l0.924,8.662
			c0,0,9.418,15.741,15.062,18.741c0,0-12.322-4.013-26.666-14.115c0,0-9.866-12.164-11.31-21.492
			C408.563,186.563,409.196,185.156,409.196,185.156"/>
		<path clip-path="url(#SVGID_7_)" fill="#6F6F7C" d="M430.994,224.627c0,0-2.665-0.591-5.157,1.952
			c-2.493,2.543-1.651,5.055-2.812,6.551c-1.16,1.496-2.071,4.129-2.109,5.74c-0.037,1.611,3.53,3.457,3.53,3.457L430.994,224.627z"
			/>
		<path clip-path="url(#SVGID_7_)" fill="#383544" d="M425.15,242.487c4.502,0.47,4.048-5.82,4.048-5.82s3.993-3.553,4.048-7.694
			c0.054-4.141-1.713-4.513-2.252-4.345c-0.539,0.167-4.092,0.509-4.732,3.894c-0.641,3.384-1.215,6.67-1.215,6.67
			S420.975,242.05,425.15,242.487"/>
		<path clip-path="url(#SVGID_7_)" fill="#212123" d="M394.826,163.974c-0.101,0-0.19-0.073-0.207-0.175
			c-0.625-3.677-0.065-8.333,1.667-13.839c0.253-0.806,0.586-1.715,1.326-2.292c0.092-0.071,0.225-0.055,0.296,0.036
			c0.071,0.092,0.055,0.225-0.037,0.296c-0.645,0.502-0.95,1.34-1.185,2.086c-1.711,5.441-2.267,10.031-1.653,13.642
			c0.019,0.115-0.058,0.224-0.172,0.243C394.85,163.973,394.838,163.974,394.826,163.974"/>
		<path clip-path="url(#SVGID_7_)" fill="#8E3738" d="M441.84,218.054c-2.562-1.814-5.368-4.027-6.252-7.342
			c-0.694-2.603-0.011-5.135,0.833-7.594l-3.454-10.238c-0.738-2.188-1.535-4.239-3.156-5.287l-3.098-2.002l3.66,0.458
			c4.606,0.576,9.558,4.624,9.588,9.73c0.014,2.352-0.785,4.602-1.557,6.778c-0.067,0.19-0.134,0.379-0.201,0.569l0.721,2.133
			c0.807,2.394,1.642,4.868,3.179,6.853c1.266,1.635,3.502,3.308,5.992,3.085l0.147,1.679c-2.641,0.231-5.51-1.198-7.472-3.733
			c-1.696-2.191-2.615-4.894-3.423-7.287c-0.375,1.502-0.518,2.968-0.13,4.42c0.739,2.771,3.277,4.757,5.598,6.4L441.84,218.054z
			 M432.951,188.557c0.678,1.128,1.159,2.435,1.614,3.784l2.761,8.187c0.527-1.574,0.958-3.171,0.95-4.738
			C438.257,192.638,435.801,189.904,432.951,188.557"/>
		<path clip-path="url(#SVGID_7_)" fill="#383544" d="M419.652,167.103h-0.009l0.001-0.421h0.007c1.507,0,3.081-0.966,4.111-2.523
			c0.969-1.466,1.419-3.245,1.816-4.814l0.408,0.103c-0.405,1.602-0.865,3.418-1.873,4.944
			C423.008,166.064,421.299,167.103,419.652,167.103"/>
		<path clip-path="url(#SVGID_7_)" fill="#383544" d="M420.617,169.311c-0.108,0-0.257-0.05-0.396-0.267
			c-0.318-0.497-1.025-1.714-0.727-2.284c0.113-0.217,0.277-0.249,0.365-0.242c0.408,0.012,0.812,0.779,1.016,1.235
			c0.224,0.5,0.26,0.931,0.107,1.279c-0.065,0.146-0.159,0.236-0.28,0.267C420.679,169.307,420.65,169.311,420.617,169.311
			 M419.874,166.955c-0.111,0.292,0.184,1.052,0.703,1.862c0.01,0.015,0.018,0.026,0.026,0.037c0.096-0.234,0.059-0.546-0.112-0.928
			C420.269,167.43,420.003,167.042,419.874,166.955"/>
		<path clip-path="url(#SVGID_7_)" fill="#383544" d="M417.712,169.189c-0.163,0-0.301-0.068-0.377-0.192
			c-0.066-0.107-0.065-0.223-0.059-0.301c0.035-0.399,0.277-0.735,0.483-0.983c0.193-0.233,1.171-1.387,1.746-1.333
			c0.139,0.014,0.252,0.092,0.32,0.22c0.201,0.382-0.175,1.011-1.262,2.103l-0.034,0.034c-0.191,0.191-0.406,0.377-0.683,0.437
			C417.801,169.184,417.756,169.189,417.712,169.189 M419.438,166.795c-0.188,0-0.836,0.562-1.355,1.186
			c-0.178,0.214-0.363,0.471-0.387,0.751c-0.002,0.022-0.002,0.036-0.001,0.043c0.004-0.008,0.03-0.006,0.064-0.013
			c0.179-0.039,0.337-0.187,0.472-0.322l0.034-0.034c1.316-1.323,1.194-1.599,1.188-1.609
			C419.448,166.796,419.443,166.795,419.438,166.795"/>
		<path clip-path="url(#SVGID_7_)" fill="#383544" d="M421.041,182.915c-0.082,0-0.159-0.048-0.194-0.128
			c-2.127-4.998-2.6-10.657-1.33-15.937c0.025-0.104,0.116-0.172,0.232-0.16c0.106,0.014,0.186,0.105,0.184,0.214
			c-0.075,3.585,0.627,7.446,1.976,10.87c0.043,0.108-0.01,0.23-0.118,0.273c-0.108,0.042-0.231-0.01-0.273-0.119
			c-1.125-2.854-1.806-6.009-1.971-9.062c-0.73,4.625-0.148,9.441,1.688,13.755c0.046,0.107-0.004,0.23-0.111,0.276
			C421.097,182.909,421.069,182.915,421.041,182.915"/>
		<path clip-path="url(#SVGID_7_)" fill="#FFED00" d="M333.647,220.815c0,0,12.735-8.073,24.408-2.186
			c11.674,5.886,5.369,17.572,16.474,20.238c11.105,2.666,17.394-3.647,17.394-3.647l-2.203,14.52c0,0-14.911,4.496-23.852-3.543
			c-8.941-8.04-2.753-14.396-12.179-19.238c-9.427-4.843-17.253-1.684-17.253-1.684L333.647,220.815z"/>
		<path clip-path="url(#SVGID_7_)" fill="#F74962" d="M331.03,226.018c0,0,7.83-11.496,19.869-10.782
			c12.038,0.714,10.975,12.915,21.354,11.11c10.379-1.806,13.393-9.453,13.393-9.453l3.449,13.1c0,0-10.981,9.264-21.494,5.728
			c-10.512-3.537-7.599-11.183-17.352-11.834c-9.754-0.652-15.226,4.887-15.226,4.887L331.03,226.018z"/>
		<path clip-path="url(#SVGID_7_)" fill="#3A6DBE" d="M337.057,218.396c0,0,14.774-3.016,23.591,6.636
			c8.817,9.653-1.231,18.333,8.2,24.774c9.432,6.44,17.554,2.775,17.554,2.775l-7.222,12.788c0,0-15.535-1.099-21.033-11.793
			c-5.497-10.693,2.482-17.37-4.606-25.248s-16.991-7.155-16.991-7.155L337.057,218.396z"/>
		<path clip-path="url(#SVGID_7_)" fill="#FE9B8C" d="M386.271,161.321c0,0,4.628-4.199,7.697-4.546
			c3.069-0.348,7.443,3.792,7.154,6.155c-0.262,2.143-9.042,4.899-9.042,4.899l-4.161-2.909L386.271,161.321z"/>
		<path clip-path="url(#SVGID_7_)" fill="#383544" d="M306.292,274.081c0,0-5.212,1.616-5.4,2.818
			c-0.188,1.202,0.589,5.223,2.449,6.646s6.4,3.674,6.4,3.674s1.191,4.328,3.974,6.253c4.158,2.875,9.477,1.073,10.052-0.689
			c0.575-1.763-3.102-0.168-4.365-8.891C318.14,275.171,306.292,274.081,306.292,274.081"/>
		<path clip-path="url(#SVGID_7_)" fill="#383544" d="M361.419,290.278c0,0-1.082,4.907-0.025,5.629
			c1.056,0.721,5.296,2.02,7.597,1.222c2.302-0.798,6.745-3.329,6.745-3.329s4.744,1.115,7.99-0.176
			c4.85-1.93,5.807-7.01,4.409-8.306c-1.396-1.296-1.725,2.382-10.711-0.771C368.437,281.395,361.419,290.278,361.419,290.278"/>
		<polygon clip-path="url(#SVGID_7_)" fill="#ECECEC" points="312.221,237.258 346.398,264.835 353.326,284.965 358.978,286.704 
			360.043,290.196 379.154,283.511 376.944,280 378.343,273.963 358.839,242.356 		"/>
		<path clip-path="url(#SVGID_7_)" fill="#FFFFFF" d="M345.165,177.917c4.18-0.01,15.898-0.491,21.488-0.428
			c1.049-0.698,18.956-18.307,18.95-16.851c0,0,8.204,8.234,8.206,10.384c0.001,2.306-20.977,22.999-21.197,23.551l-25.64,1.982
			C346.972,196.555,332.504,177.946,345.165,177.917"/>
		<polygon clip-path="url(#SVGID_7_)" fill="#FE9B8C" points="329.789,171.866 338.63,174.945 340.646,164.718 332.688,161.946 		
			"/>
		<polygon clip-path="url(#SVGID_7_)" fill="#212123" points="340.009,167.951 334.8,166.336 339.362,170.8 		"/>
		<path clip-path="url(#SVGID_7_)" fill="#FE9B8C" d="M332.247,157.388c-0.738,3.09,0.163,6.559,2.522,8.725
			c1.415,1.301,3.116,1.911,4.784,1.866c2.04-0.052,4.032-1.085,5.392-3.029c0.221-0.32,0.423-0.651,0.593-0.993
			c1.759-3.462,1.046-8.012-1.819-10.646c-0.156-0.145-0.318-0.279-0.484-0.407c-3.114-2.424-7.342-1.786-9.693,1.573
			C332.923,155.365,332.494,156.354,332.247,157.388"/>
		<path clip-path="url(#SVGID_7_)" fill="#212123" d="M331.797,159.455c8.052,0.615,11.645-5.145,12.438-6.331
			c0-0.001,0-0.001,0.001-0.003c-3.543-2.949-8.484-3.535-11.048,0.666C331.905,155.889,331.669,158.148,331.797,159.455"/>
		<path clip-path="url(#SVGID_7_)" fill="#FE9B8C" d="M329.917,158.997c-0.546,1.568,0.282,3.282,1.851,3.828
			c1.568,0.546,3.282-0.282,3.829-1.851c0.545-1.568-0.283-3.282-1.851-3.828C332.177,156.6,330.463,157.428,329.917,158.997"/>
		<path clip-path="url(#SVGID_7_)" fill="#212123" d="M333.612,161.692c0.054,0.019,0.115,0.018,0.171-0.009
			c0.477-0.225,0.836-0.623,1.013-1.119c0.178-0.496,0.151-1.032-0.074-1.508c-0.226-0.476-0.623-0.836-1.12-1.014
			c-0.005-0.001-0.01-0.003-0.015-0.005c-0.493-0.171-1.021-0.144-1.493,0.08c-0.112,0.054-0.161,0.189-0.107,0.302
			c0.054,0.113,0.189,0.162,0.302,0.108c0.367-0.173,0.777-0.187,1.162-0.058c0.382,0.137,0.688,0.414,0.862,0.781
			c0.174,0.367,0.194,0.78,0.058,1.162c-0.137,0.383-0.414,0.688-0.781,0.862c-0.113,0.054-0.162,0.188-0.108,0.302
			C333.509,161.632,333.557,161.673,333.612,161.692"/>
		<path clip-path="url(#SVGID_7_)" fill="#212123" d="M343.663,161.292c-0.119,0.246-0.015,0.542,0.231,0.661
			c0.246,0.118,0.542,0.015,0.66-0.231c0.118-0.247,0.014-0.542-0.231-0.66C344.076,160.942,343.781,161.046,343.663,161.292"/>
		<path clip-path="url(#SVGID_7_)" fill="#212123" d="M340.496,160.586c-0.118,0.247-0.014,0.542,0.232,0.66
			c0.247,0.119,0.542,0.015,0.66-0.231c0.119-0.247,0.015-0.542-0.232-0.66C340.91,160.236,340.615,160.34,340.496,160.586"/>
		<path clip-path="url(#SVGID_7_)" fill="#212123" d="M341.42,162.768c0.024,0.011,0.05,0.019,0.078,0.021
			c0.485,0.044,0.969,0.124,1.441,0.238c0.07,0.017,0.143,0,0.197-0.046c0.055-0.045,0.085-0.114,0.082-0.186
			c-0.05-1.016-0.102-2.032-0.154-3.049c-0.006-0.125-0.113-0.222-0.238-0.215c-0.125,0.006-0.221,0.113-0.215,0.238
			c0.047,0.917,0.094,1.833,0.139,2.75c-0.399-0.084-0.805-0.146-1.212-0.182c-0.125-0.012-0.235,0.081-0.246,0.205
			C341.284,162.64,341.337,162.728,341.42,162.768"/>
		<path clip-path="url(#SVGID_7_)" fill="#E94A2D" d="M341.826,163.6l-2.178-1.825c0,0-0.686,1.842-0.188,2.281
			S341.826,163.6,341.826,163.6"/>
		<path clip-path="url(#SVGID_7_)" fill="#F74962" d="M348.566,200.708l0.009,0.324l-3.949,10.739l-3.335,12.765
			c0,0-3.475,3.92-17.085,1.101s-19.396-9.363-19.396-9.363l6.05-13.894l0.917-31.072c0.347-2.486,5.386-4.111,7.694-3.083
			l21.391,6.836c2.579,0.968,5.773,2.251,7.185,3.192c0.434,0.292,0.822,1.582,1.132,3.414
			C350.139,187.389,350.302,198.387,348.566,200.708"/>
		<path clip-path="url(#SVGID_7_)" fill="#212123" d="M340.896,158.235c0.267-0.193,0.59-0.174,0.847-0.084
			c0.261,0.096,0.491,0.25,0.635,0.505c0.065,0.114,0.025,0.258-0.089,0.322c-0.03,0.017-0.062,0.027-0.094,0.03l-0.013,0
			c-0.272,0.024-0.479-0.018-0.675-0.059c-0.199-0.045-0.356-0.098-0.565-0.246l-0.042-0.03c-0.123-0.086-0.151-0.255-0.065-0.377
			C340.852,158.274,340.873,158.252,340.896,158.235"/>
		<path clip-path="url(#SVGID_7_)" fill="#212123" d="M344.096,159.122c0.266-0.194,0.59-0.174,0.847-0.084
			c0.261,0.096,0.491,0.251,0.635,0.506c0.064,0.113,0.025,0.257-0.089,0.322c-0.03,0.017-0.062,0.027-0.094,0.029l-0.012,0.001
			c-0.272,0.024-0.479-0.018-0.676-0.059c-0.198-0.045-0.355-0.098-0.564-0.246l-0.043-0.03c-0.122-0.086-0.151-0.255-0.064-0.378
			C344.052,159.159,344.072,159.139,344.096,159.122"/>
		<polygon clip-path="url(#SVGID_7_)" fill="#FE9B8C" points="326.915,170.605 336.243,186.073 340.864,175.063 		"/>
		<path clip-path="url(#SVGID_7_)" fill="#FFFFFF" d="M341.884,220.001c0,0-0.095,0.822-12.867-0.099
			c-12.772-0.921-24.146-3.413-24.146-3.413s-2.92,5.082,1.207,14.21c4.126,9.128,30.596,17.219,30.596,17.219l-26.82,16.942
			l0.321,4.79l-5.339,3.34l14.565,10.901l4.496-3.649l10.317-1.607c0,0,23.021-17.228,25.918-25.645
			c2.896-8.417,0.255-12.929-2.69-15.831c-2.945-2.902-15.085-11.486-15.085-11.486L341.884,220.001z"/>
		<path clip-path="url(#SVGID_7_)" fill="#FFED00" d="M349.18,181.668c-6.183,22.33-18.112,30.2-18.112,30.2l-13.024-5.183
			c18.009-9.166,22.819-31.624,22.819-31.624c2.579,0.969,5.773,2.252,7.184,3.193C348.482,178.545,348.87,179.835,349.18,181.668"
			/>
		<path clip-path="url(#SVGID_7_)" fill="#3A6DBE" d="M341.924,222.115c0,0-23.887-4.799-34.747-11.277l3.682-8.459l33.768,9.393
			L341.924,222.115z"/>
		<polygon clip-path="url(#SVGID_7_)" fill="#FFFFFF" points="326.915,170.605 329.155,169.317 337.448,183.202 336.243,186.073 		
			"/>
		<polygon clip-path="url(#SVGID_7_)" fill="#FFFFFF" points="340.144,172.188 334.557,183.277 336.243,186.073 340.864,175.063 		
			"/>
		<path clip-path="url(#SVGID_7_)" fill="#FFFFFF" d="M346.738,157.331c0.029,0.348,0.034,0.694,0.012,1.035
			c-0.008,0.25-0.034,0.493-0.073,0.737c-0.038,0.249-0.089,0.49-0.149,0.728c-0.025-0.002-0.051-0.008-0.077-0.01
			c-1.971-0.302-4.463-0.78-7.157-1.384c-2.767-0.623-5.287-1.271-7.218-1.847c-0.017-0.003-0.035-0.01-0.047-0.014
			c0.047-0.24,0.103-0.474,0.172-0.703l0.004,0c0.068-0.239,0.15-0.469,0.24-0.697c1.014-2.513,3.375-4.375,6.258-4.62
			C342.793,150.208,346.391,153.242,346.738,157.331"/>
		<path clip-path="url(#SVGID_7_)" fill="#383544" d="M351.328,158.288c-0.064,0.289-1.717,0.193-4.267-0.204
			c-0.025-0.001-0.051-0.008-0.077-0.01c-1.971-0.302-4.463-0.779-7.157-1.383c-2.768-0.624-5.287-1.272-7.217-1.848
			c-0.017-0.002-0.035-0.01-0.047-0.012c-2.399-0.718-3.883-1.319-3.819-1.604c0.061-0.284,1.662-0.192,4.138,0.186h0.004
			c0.03,0.006,0.06,0.007,0.094,0.017c1.983,0.301,4.519,0.783,7.264,1.4c2.685,0.6,5.132,1.234,7.04,1.791
			c0.026,0.01,0.048,0.017,0.074,0.023C349.843,157.379,351.392,158,351.328,158.288"/>
		<path clip-path="url(#SVGID_7_)" fill="#383544" d="M347.272,155.585c0.03,0.348,0.034,0.694,0.012,1.035
			c-0.009,0.25-0.034,0.493-0.073,0.737c-0.038,0.249-0.089,0.49-0.15,0.728c-0.025-0.001-0.051-0.008-0.077-0.01
			c-1.971-0.302-4.463-0.779-7.157-1.383c-2.768-0.624-5.287-1.272-7.217-1.848c-0.017-0.002-0.035-0.01-0.047-0.012
			c0.047-0.241,0.103-0.474,0.172-0.704l0.004,0c0.068-0.238,0.15-0.469,0.241-0.697c1.013-2.513,3.375-4.375,6.258-4.62
			C343.328,148.462,346.925,151.496,347.272,155.585"/>
		<path clip-path="url(#SVGID_7_)" fill="#CE9124" d="M405.984,171.174c0.566,6.667-4.379,12.531-11.046,13.097
			s-12.531-4.379-13.097-11.047c-0.566-6.667,4.379-12.531,11.046-13.097C399.554,159.561,405.417,164.506,405.984,171.174"/>
		<path clip-path="url(#SVGID_7_)" fill="#E9AC34" d="M406.126,172.853c0.566,6.667-4.38,12.531-11.046,13.098
			c-6.667,0.566-12.532-4.379-13.098-11.047c-0.566-6.667,4.379-12.531,11.047-13.098
			C399.696,161.24,405.561,166.185,406.126,172.853"/>
		<path clip-path="url(#SVGID_7_)" fill="#A04735" d="M394.851,177.071c-0.349,0.66-1.595,0.768-2.783,0.239
			c-1.188-0.528-1.869-1.492-1.52-2.153s1.595-0.768,2.784-0.239S395.201,176.411,394.851,177.071"/>
		<path clip-path="url(#SVGID_7_)" fill="#843723" d="M394.532,177.676c-0.35,0.661-1.595,0.768-2.784,0.239
			c-1.188-0.528-1.868-1.493-1.52-2.152c0.35-0.661,1.595-0.768,2.785-0.239C394.2,176.052,394.881,177.015,394.532,177.676"/>
		<path clip-path="url(#SVGID_7_)" fill="#843723" d="M392.42,176.666c0.245,0.11,0.337,0.396,0.208,0.639l-7.421,13.879
			l-7.021,14.157l-1.77-0.797l7.98-13.897l7.347-13.741C391.873,176.663,392.176,176.556,392.42,176.666"/>
		<path clip-path="url(#SVGID_7_)" fill="#FE9B8C" d="M387.7,208.421l-3.747-12.45l-8.935,2.689c-2.197,0.661-3.229,3.176-2.13,5.19
			l2.262,4.143c1.149,2.105,3.615,3.117,5.911,2.426L387.7,208.421z"/>
		<path clip-path="url(#SVGID_7_)" fill="#FE9B8C" d="M387.842,196.772l-0.376-1.189c-0.138-0.435-0.603-0.676-1.039-0.538
			l-8.336,2.642l0.876,2.766l8.337-2.642C387.739,197.673,387.98,197.208,387.842,196.772"/>
		<path clip-path="url(#SVGID_7_)" fill="#FE9B8C" d="M381.173,194.28l-0.954-0.804c-0.349-0.294-0.871-0.25-1.166,0.099
			l-5.177,6.138l2.218,1.871l5.177-6.139C381.566,195.097,381.521,194.575,381.173,194.28"/>
		<path clip-path="url(#SVGID_7_)" fill="#FE9B8C" d="M388.76,200.205l-0.359-1.194c-0.132-0.438-0.593-0.686-1.031-0.554
			l-7.689,2.314l0.836,2.778l7.689-2.314C388.644,201.104,388.892,200.643,388.76,200.205"/>
		<path clip-path="url(#SVGID_7_)" fill="#FE9B8C" d="M388.785,203.713l-0.36-1.195c-0.131-0.438-0.592-0.685-1.03-0.553
			l-7.689,2.314l0.837,2.779l7.689-2.314C388.669,204.611,388.917,204.15,388.785,203.713"/>
		<path clip-path="url(#SVGID_7_)" fill="#FE9B8C" d="M389.073,207.14l-0.36-1.195c-0.132-0.437-0.593-0.685-1.03-0.553
			l-7.689,2.314l0.836,2.778l7.69-2.314C388.957,208.039,389.205,207.577,389.073,207.14"/>
		<path clip-path="url(#SVGID_7_)" fill="#FFFFFF" d="M312.115,170.417c-10.458,9.02,13.099,40.147,21.182,43.402
			c10.791,4.346,42.265-2.824,42.265-2.824l-1.256-13.083l-33.756,1.883C340.55,199.795,322.137,161.774,312.115,170.417"/>
		<path clip-path="url(#SVGID_7_)" fill="#FE9B8C" d="M386.271,161.321c0,0,0.502,1.632,2.996,2.181
			c2.493,0.549,3.638-0.043,3.638-0.043l3.042,1.277c0.534,0.225,1.152,0.035,1.468-0.451c0.37-0.569,0.194-1.331-0.387-1.68
			l-4.421-2.654L386.271,161.321z"/>
		<path clip-path="url(#SVGID_7_)" fill="#383544" d="M396.646,165.041c-0.045,0-0.091-0.003-0.137-0.009
			c-0.97-0.124-3.222-1.162-3.633-1.354c-5.319,0.957-6.74-2.139-6.798-2.271c-0.046-0.107,0.001-0.23,0.107-0.277
			c0.105-0.046,0.23,0.001,0.278,0.107c0.054,0.121,1.375,2.946,6.403,2.015c0.042-0.008,0.088-0.002,0.128,0.017
			c0.026,0.012,2.587,1.221,3.568,1.346c0.413,0.055,0.714-0.262,0.831-0.598c0.132-0.379,0.076-0.901-0.474-1.231
			c-1.184-0.711-4.14-2.477-4.141-2.477l0.216-0.362c0,0,2.957,1.766,4.142,2.477c0.766,0.46,0.832,1.22,0.655,1.73
			C397.605,164.692,397.146,165.041,396.646,165.041"/>
		<path clip-path="url(#SVGID_7_)" fill="#383544" d="M378.55,197.751c-0.089,0-0.172-0.057-0.201-0.147
			c-0.035-0.111,0.026-0.229,0.137-0.265l7.878-2.496c0.112-0.034,0.229,0.026,0.264,0.137s-0.026,0.229-0.137,0.265l-7.878,2.496
			C378.592,197.748,378.57,197.751,378.55,197.751"/>
		<path clip-path="url(#SVGID_7_)" fill="#F74962" d="M355.109,150.869c0.277,3.264-2.144,6.134-5.408,6.411
			c-3.264,0.277-6.134-2.144-6.412-5.408c-0.277-3.264,2.144-6.134,5.408-6.412C351.961,145.184,354.832,147.605,355.109,150.869"/>
		
			<rect x="341.957" y="146.536" transform="matrix(0.9648 0.2629 -0.2629 0.9648 51.0137 -84.8416)" clip-path="url(#SVGID_7_)" fill="#383544" width="1.101" height="3.301"/>
		<path clip-path="url(#SVGID_7_)" fill="#A04735" d="M326.997,104.199c-0.16,0.863-1.52,1.42-3.038,1.244
			c-1.519-0.176-2.619-1.019-2.459-1.882c0.16-0.863,1.521-1.42,3.039-1.244C326.057,102.493,327.157,103.336,326.997,104.199"/>
		<path clip-path="url(#SVGID_7_)" fill="#843723" d="M326.851,104.99c-0.16,0.862-1.52,1.42-3.038,1.244
			c-1.519-0.176-2.619-1.019-2.459-1.882c0.16-0.863,1.521-1.42,3.039-1.244C325.91,103.284,327.011,104.126,326.851,104.99"/>
		<path clip-path="url(#SVGID_7_)" fill="#868686" d="M232.047,317.073c0,0-1.368,6.718-0.944,7.509
			c0.423,0.791,6.473,3.582,10.047,3.003c3.575-0.578,5.863-5.672,5.863-5.672l-1.27-5.414L232.047,317.073z"/>
		<path clip-path="url(#SVGID_7_)" fill="#D9D9D9" d="M232.047,317.073c0,0,0.489,3.453,1.746,4.327
			c1.256,0.875,5.127-0.056,6.506-0.987c1.379-0.93,0.941-0.539,2.77,0.169c1.828,0.708,2.348,0.544,2.65-0.325
			s-0.021-2.283-0.021-2.283L232.047,317.073z"/>
		<path clip-path="url(#SVGID_7_)" fill="#868686" d="M266.615,313.648c0,0,3.269,7.32,4.252,8.103
			c0.983,0.784,9.118,2.941,12.377,1.85c3.258-1.092,2.06-6.81,2.06-6.81L279.855,311L266.615,313.648z"/>
		<path clip-path="url(#SVGID_7_)" fill="#D9D9D9" d="M266.615,313.648c0,0,2.9,3.602,4.795,4.364
			c1.895,0.761,5.211-0.745,5.977-1.918c0.766-1.172,0.589-0.698,2.954-0.189s2.782,0.265,2.488-0.7
			c-0.294-0.963-2.974-4.206-2.974-4.206L266.615,313.648z"/>
		<polygon clip-path="url(#SVGID_7_)" fill="#ECECEC" points="288.911,296.362 281.172,304.815 283.365,309.757 276.952,313.021 
			264.914,315.694 261.793,310.661 253.967,305.956 252.738,276.648 287.793,282.563 		"/>
		<path clip-path="url(#SVGID_7_)" fill="#FFFFFF" d="M209.131,300.957c1.742,9.111,4.106,9.34,6.634,9.889
			c2.529,0.549,13.896,2.146,13.896,2.146l-0.149,4.946l11.818,1.653l8.205-2.492l0.16-5.314c0,0,1.822-0.449,4.213-5.825
			s-2.827-21.534-2.827-21.534l-10.704-7.258L209.131,300.957z"/>
		<path clip-path="url(#SVGID_7_)" fill="#212123" d="M271.484,167.279c-0.071,2.378-2.051,4.386-4.422,4.485
			c-2.371,0.1-4.234-1.747-4.162-4.125c0.071-2.378,2.051-4.386,4.422-4.485S271.556,164.901,271.484,167.279"/>
		<path clip-path="url(#SVGID_7_)" fill="#784DF0" d="M243.419,212.701l-14.44,4.391l0.353,4.391c0,0-1.404,7.103-9.978,7.524
			c-8.573,0.421-12.987,2.524-18.47,9.188c0,0,4.714,6.921,5.235,2.6c0.521-4.321,5.923,6.243,3.546,6.05s-1.556,4.667,0.602,6.72
			c0,0,5.704-10.36,13.083-14.7c7.38-4.34,9.031-11.77,11.381-17.597c2.349-5.828,4.993-3.895,4.993-3.895L243.419,212.701z"/>
		<path clip-path="url(#SVGID_7_)" fill="#3A6DBE" d="M241.913,211.444l-14.26,2.715l-1.429,4.291c0,0-4.48,6.247-14.067,3.635
			c-9.587-2.612-15.303-2.167-24.079,2.23c0,0,2.313,8.224,4.672,4.306c2.359-3.917,3.921,8.005,1.391,6.987
			c-2.531-1.019-3.639,3.882-2.12,6.588c0,0,10.548-7.828,20.446-9.354c9.897-1.526,14.783-7.997,19.773-12.701
			c4.99-4.705,7.093-1.942,7.093-1.942L241.913,211.444z"/>
		<path clip-path="url(#SVGID_7_)" fill="#FF7380" d="M271.054,220.647l5.383,4.407c0,0,18.049,14.219,24.917,24.207
			s7.903,27.264,7.903,27.264l0.773,3.827c0.822,4.064,2.521,7.841,4.98,11.072l5.673,7.452c0,0-6.669,4.66-13.077,0.548
			c-2.436-1.563-0.96-4.411-5.438-3.04c-4.479,1.371-6.66,7.923-12.519,8.623s-37.863-11.438-51.979-17.842
			c-14.115-6.403,1.34,6.289-3.378,8.445c-4.718,2.157-23.216,2.935-29.944,10.643c0,0-3.29-9.907,2.343-23.886
			c0,0-9.163-2.318-8.166-4.561s11.845-10.263,14.927-22.612c3.082-12.35,7.829-21.12,8.698-22.777
			c0.871-1.657,7.376-1.928,7.376-1.928s0.701-8.903,0.731-10.837c0.031-1.935,4.956-3.57,4.956-3.57L271.054,220.647z"/>
		<path clip-path="url(#SVGID_7_)" fill="#FE9B8C" d="M245.358,134.374l10.135-14.658c-0.466-1.002-0.889-2.963-0.701-4.553
			c0.188-1.592,1.381-2.165,2.549-2.234c0,0-0.322-2.183,2.449-2.279c0,0-0.566-1.335,1.954-1.479c0,0-0.262-1.154,2.081-1.005
			c2.342,0.148,3.512,1.008,3.849,1.802c0.337,0.795,0.639,1.329-0.055,2.098c0,0,2.14,4.195,1.642,5.514
			c-0.498,1.317-2.579,3.751-3.795,4.667l-7.246,12.268L245.358,134.374z"/>
		<path clip-path="url(#SVGID_7_)" fill="#212123" d="M261.813,121.367c-0.102,0-0.191-0.074-0.208-0.178
			c-0.521-3.359-4.052-3.728-4.202-3.742c-0.116-0.011-0.201-0.114-0.19-0.229c0.011-0.116,0.114-0.202,0.229-0.19
			c0.04,0.004,4.008,0.411,4.58,4.097c0.018,0.115-0.061,0.223-0.176,0.241C261.834,121.366,261.823,121.367,261.813,121.367"/>
		<path clip-path="url(#SVGID_7_)" fill="#843723" d="M287.991,100.157c-0.153-0.268-0.504-0.345-0.783-0.172l-15.986,9.942
			l-16.353,9.512l1.111,1.943l15.958-10.583l15.825-9.842C288.042,100.784,288.144,100.425,287.991,100.157"/>
		<path clip-path="url(#SVGID_7_)" fill="#FE9B8C" d="M269.098,118.07c0,0,0.685-1.98,0.903-3.271
			c0.166-0.976,0.534-1.104-1.373-3.514c-1.907-2.41-2.479-2.472-3.414-1.844c-0.936,0.629-0.277,2.419,0.393,3.409
			c0.669,0.991,0.633,1.982,0.633,1.982s-3.536,0.531-4.486,3.987"/>
		<path clip-path="url(#SVGID_7_)" fill="#212123" d="M261.753,119.031c-0.019,0-0.037-0.002-0.056-0.007
			c-0.112-0.031-0.179-0.147-0.147-0.259c0.848-3.084,3.714-3.93,4.473-4.102c-0.023-0.308-0.126-1.004-0.591-1.693
			c-0.548-0.811-1.027-2.015-0.859-2.877c0.071-0.361,0.247-0.639,0.523-0.825c1.158-0.777,1.882-0.406,3.697,1.888
			c1.669,2.108,1.662,2.53,1.479,3.363c-0.021,0.097-0.044,0.201-0.063,0.316c-0.22,1.293-0.885,3.223-0.913,3.304
			c-0.037,0.11-0.157,0.169-0.268,0.13c-0.11-0.038-0.168-0.158-0.13-0.268c0.007-0.02,0.682-1.979,0.895-3.237
			c0.021-0.123,0.045-0.233,0.067-0.336c0.142-0.649,0.214-0.975-1.398-3.012c-1.933-2.441-2.379-2.305-3.132-1.799
			c-0.183,0.123-0.296,0.305-0.345,0.556c-0.144,0.739,0.311,1.846,0.795,2.562c0.699,1.035,0.67,2.064,0.668,2.107
			c-0.003,0.101-0.079,0.185-0.179,0.2c-0.033,0.005-3.413,0.556-4.314,3.834C261.93,118.97,261.846,119.031,261.753,119.031"/>
		<path clip-path="url(#SVGID_7_)" fill="#FE9B8C" d="M263.891,110.738c0,0,1.209,0.354,1.484,0.628c0,0-0.186,1.559,0.464,2.234
			c0.649,0.675,2.475,0.207,1.653-3.785c-0.278-1.352-3.333-1.526-3.333-1.526"/>
		<path clip-path="url(#SVGID_7_)" fill="#212123" d="M266.444,114.067c-0.282,0-0.554-0.11-0.757-0.321
			c-0.608-0.632-0.563-1.892-0.532-2.287c-0.25-0.164-0.895-0.394-1.324-0.52c-0.111-0.033-0.175-0.15-0.143-0.262
			s0.15-0.175,0.261-0.143c0.21,0.062,1.276,0.384,1.574,0.68c0.046,0.046,0.068,0.11,0.061,0.174
			c-0.001,0.015-0.166,1.469,0.407,2.063c0.166,0.172,0.471,0.272,0.779,0.11c0.271-0.143,1.107-0.831,0.516-3.707
			c-0.201-0.979-2.334-1.312-3.139-1.357c-0.117-0.006-0.205-0.106-0.198-0.222c0.006-0.116,0.098-0.203,0.223-0.199
			c0.13,0.008,3.22,0.2,3.526,1.693c0.633,3.077-0.3,3.937-0.732,4.163C266.798,114.024,266.62,114.067,266.444,114.067"/>
		<path clip-path="url(#SVGID_7_)" fill="#FE9B8C" d="M261.708,111.706c0,0,1.209,0.355,1.485,0.628c0,0-0.186,1.558,0.464,2.234
			c0.649,0.676,2.474,0.207,1.653-3.785c-0.278-1.352-3.333-1.525-3.333-1.525"/>
		<path clip-path="url(#SVGID_7_)" fill="#212123" d="M264.261,115.035c-0.282,0-0.554-0.11-0.757-0.321
			c-0.608-0.632-0.563-1.893-0.533-2.287c-0.25-0.164-0.895-0.394-1.323-0.52c-0.111-0.033-0.176-0.15-0.143-0.262
			c0.033-0.112,0.151-0.175,0.262-0.143c0.21,0.062,1.275,0.385,1.574,0.68c0.046,0.046,0.069,0.111,0.061,0.175
			c-0.001,0.015-0.166,1.468,0.406,2.063c0.166,0.172,0.471,0.271,0.779,0.11c0.271-0.143,1.108-0.831,0.516-3.707
			c-0.201-0.977-2.334-1.311-3.139-1.357c-0.116-0.007-0.205-0.106-0.199-0.223c0.007-0.116,0.1-0.201,0.223-0.198
			c0.131,0.007,3.22,0.2,3.527,1.693c0.633,3.077-0.301,3.937-0.732,4.164C264.616,114.992,264.437,115.035,264.261,115.035"/>
		<path clip-path="url(#SVGID_7_)" fill="#FE9B8C" d="M259.657,113.125c0,0,1.21,0.355,1.485,0.628c0,0-0.186,1.559,0.463,2.234
			c0.65,0.675,2.475,0.207,1.653-3.785c-0.278-1.352-3.333-1.525-3.333-1.525"/>
		<path clip-path="url(#SVGID_7_)" fill="#212123" d="M262.211,116.455c-0.282,0-0.554-0.11-0.758-0.321
			c-0.607-0.632-0.563-1.893-0.532-2.287c-0.249-0.164-0.894-0.394-1.323-0.519c-0.112-0.033-0.176-0.15-0.143-0.262
			c0.032-0.112,0.149-0.175,0.261-0.143c0.211,0.062,1.276,0.385,1.574,0.681c0.046,0.046,0.068,0.11,0.061,0.174
			c-0.002,0.015-0.166,1.468,0.406,2.063c0.166,0.172,0.471,0.272,0.78,0.109c0.271-0.142,1.107-0.831,0.516-3.706
			c-0.202-0.977-2.334-1.311-3.139-1.357c-0.116-0.007-0.205-0.106-0.198-0.223c0.007-0.115,0.096-0.199,0.223-0.198
			c0.131,0.007,3.219,0.2,3.527,1.692c0.633,3.077-0.301,3.937-0.732,4.164C262.566,116.412,262.387,116.455,262.211,116.455"/>
		<path clip-path="url(#SVGID_7_)" fill="#FE9B8C" d="M257.51,115.264c0,0,1.271,0.072,1.599,0.27c0,0,0.132,1.509,0.913,2.004
			c0.781,0.496,2.494-0.341,0.871-3.923c-0.55-1.213-3.612-0.714-3.612-0.714"/>
		<path clip-path="url(#SVGID_7_)" fill="#212123" d="M260.478,117.878c-0.2,0-0.397-0.053-0.569-0.162
			c-0.729-0.463-0.944-1.65-0.996-2.04c-0.283-0.1-0.965-0.176-1.415-0.202c-0.116-0.006-0.205-0.105-0.198-0.222
			c0.007-0.115,0.096-0.2,0.223-0.198c0.221,0.013,1.34,0.086,1.695,0.3c0.058,0.035,0.095,0.095,0.101,0.162
			c0.001,0.014,0.132,1.411,0.816,1.845c0.203,0.129,0.549,0.156,0.828-0.088c0.229-0.198,0.884-1.042-0.262-3.571
			c-0.396-0.874-2.58-0.725-3.387-0.593c-0.113,0.018-0.223-0.059-0.241-0.174c-0.019-0.115,0.059-0.223,0.174-0.242
			c0.33-0.054,3.239-0.485,3.838,0.835c1.232,2.718,0.519,3.748,0.155,4.063C261.021,117.781,260.748,117.878,260.478,117.878"/>
		<path clip-path="url(#SVGID_7_)" fill="#FE9B8C" d="M310.884,157.486l7.319-16.122c1.132-0.171,3.079-0.899,4.37-1.917
			c1.292-1.017,1.144-2.288,0.569-3.263c0,0,2.086-0.93,0.663-3.208c0,0,1.479-0.273,0.232-2.375c0,0,1.152-0.418-0.253-2.219
			c-1.405-1.801-2.795-2.272-3.674-2.111c-0.88,0.162-1.512,0.209-1.807,1.187c0,0-4.84,0.565-5.723,1.683
			c-0.882,1.117-1.881,4.114-2.022,5.589l-6.799,12.5L310.884,157.486z"/>
		<path clip-path="url(#SVGID_7_)" fill="#212123" d="M319.324,138.676c-0.061,0-0.12-0.026-0.162-0.076
			c-0.094-0.113-2.34-2.749-5.577-1.334c-0.106,0.047-0.23-0.002-0.277-0.109c-0.047-0.106,0.002-0.23,0.108-0.277
			c3.527-1.542,6.045,1.421,6.07,1.452c0.074,0.089,0.062,0.222-0.028,0.296C319.419,138.66,319.372,138.676,319.324,138.676"/>
		<path clip-path="url(#SVGID_7_)" fill="#843723" d="M324.129,104.597c0.313,0.038,0.518,0.326,0.457,0.643l-3.457,18.172
			l-2.911,18.344l-2.265-0.274l4.077-18.388l3.423-17.99C323.513,104.786,323.816,104.56,324.129,104.597"/>
		<path clip-path="url(#SVGID_7_)" fill="#FE9B8C" d="M312.237,129.541c0,0,1.362-1.628,2.372-2.507
			c0.765-0.665,0.677-1.03,3.826-0.81s3.516,0.646,3.474,1.739c-0.042,1.093-1.969,1.54-3.2,1.541
			c-1.231,0.001-2.081,0.57-2.081,0.57s1.461,3.129-1.049,5.774"/>
		<path clip-path="url(#SVGID_7_)" fill="#212123" d="M315.579,136.059c-0.053,0-0.104-0.019-0.145-0.058
			c-0.085-0.08-0.088-0.213-0.008-0.297c2.377-2.506,1.067-5.418,1.011-5.541c-0.043-0.094-0.012-0.206,0.074-0.264
			c0.037-0.025,0.917-0.605,2.197-0.606c1.186-0.001,2.956-0.428,2.99-1.338c0.033-0.871-0.092-1.299-3.278-1.521
			c-2.67-0.187-2.919,0.051-3.416,0.522c-0.078,0.074-0.161,0.153-0.257,0.237c-0.986,0.857-2.336,2.466-2.349,2.483
			c-0.076,0.09-0.208,0.101-0.297,0.026c-0.088-0.075-0.101-0.208-0.026-0.297c0.056-0.067,1.384-1.651,2.396-2.53
			c0.091-0.08,0.17-0.154,0.243-0.224c0.626-0.595,0.989-0.83,3.735-0.638c3.001,0.21,3.722,0.594,3.67,1.958
			c-0.048,1.267-2.118,1.742-3.411,1.743c-0.863,0.001-1.535,0.3-1.818,0.451c0.268,0.722,1.071,3.478-1.16,5.828
			C315.69,136.038,315.634,136.059,315.579,136.059"/>
		<path clip-path="url(#SVGID_7_)" fill="#FE9B8C" d="M321.495,129.73c0,0-0.97-0.779-1.358-0.851c0,0-1.264,0.998-2.209,0.845
			c-0.946-0.154-1.529-1.875,2.415-3.39c1.335-0.512,3.15,1.848,3.15,1.848"/>
		<path clip-path="url(#SVGID_7_)" fill="#212123" d="M318.131,129.951c-0.081,0-0.16-0.006-0.238-0.019
			c-0.47-0.077-0.817-0.442-0.865-0.909c-0.049-0.476,0.169-1.707,3.239-2.885c1.46-0.562,3.314,1.814,3.393,1.915
			c0.071,0.093,0.053,0.225-0.039,0.295c-0.092,0.071-0.225,0.054-0.295-0.039c-0.479-0.621-1.933-2.153-2.908-1.778
			c-2.286,0.877-3.034,1.839-2.971,2.448c0.033,0.318,0.282,0.499,0.514,0.537c0.846,0.137,2.033-0.792,2.045-0.802
			c0.047-0.037,0.109-0.053,0.168-0.042c0.419,0.078,1.283,0.758,1.452,0.894c0.09,0.073,0.105,0.205,0.032,0.296
			c-0.073,0.091-0.205,0.105-0.296,0.032c-0.325-0.26-0.896-0.673-1.184-0.784C319.893,129.322,318.964,129.951,318.131,129.951"/>
		<path clip-path="url(#SVGID_7_)" fill="#FE9B8C" d="M321.835,132.011c0,0-0.969-0.778-1.358-0.851c0,0-1.264,0.998-2.209,0.844
			c-0.945-0.154-1.528-1.875,2.416-3.389c1.335-0.512,3.15,1.847,3.15,1.847"/>
		<path clip-path="url(#SVGID_7_)" fill="#212123" d="M318.473,132.231c-0.08,0-0.161-0.006-0.238-0.019
			c-0.47-0.077-0.818-0.442-0.865-0.909c-0.049-0.475,0.168-1.707,3.238-2.885c1.463-0.563,3.315,1.814,3.393,1.916
			c0.071,0.092,0.053,0.224-0.039,0.295s-0.225,0.053-0.295-0.039c-0.479-0.622-1.933-2.152-2.908-1.779
			c-2.286,0.877-3.033,1.84-2.971,2.448c0.033,0.318,0.282,0.499,0.514,0.537c0.701,0.113,1.714-0.541,2.045-0.802
			c0.048-0.037,0.109-0.053,0.168-0.042c0.42,0.078,1.284,0.758,1.453,0.894c0.09,0.073,0.105,0.206,0.032,0.296
			c-0.072,0.091-0.206,0.105-0.296,0.032c-0.325-0.26-0.896-0.673-1.184-0.784C320.233,131.602,319.306,132.231,318.473,132.231"/>
		<path clip-path="url(#SVGID_7_)" fill="#FE9B8C" d="M321.708,134.431c0,0-0.97-0.778-1.358-0.851c0,0-1.264,0.998-2.209,0.844
			c-0.945-0.154-1.529-1.875,2.416-3.389c1.335-0.512,3.15,1.847,3.15,1.847"/>
		<path clip-path="url(#SVGID_7_)" fill="#212123" d="M318.345,134.651c-0.081,0-0.16-0.006-0.238-0.019
			c-0.47-0.077-0.818-0.442-0.866-0.908c-0.049-0.476,0.169-1.707,3.239-2.885c1.464-0.562,3.315,1.814,3.393,1.916
			c0.07,0.093,0.053,0.224-0.039,0.295c-0.091,0.071-0.224,0.053-0.295-0.039c-0.478-0.622-1.932-2.151-2.908-1.779
			c-2.286,0.877-3.033,1.84-2.971,2.448c0.033,0.318,0.282,0.498,0.514,0.536c0.847,0.137,2.034-0.792,2.045-0.802
			c0.047-0.038,0.108-0.052,0.169-0.042c0.419,0.078,1.282,0.758,1.452,0.894c0.09,0.073,0.105,0.206,0.032,0.296
			c-0.073,0.091-0.205,0.105-0.296,0.033c-0.325-0.261-0.896-0.673-1.184-0.784C320.105,134.022,319.178,134.651,318.345,134.651"/>
		<path clip-path="url(#SVGID_7_)" fill="#FE9B8C" d="M321.005,137.32c0,0-0.755-0.981-1.107-1.137c0,0-1.393,0.715-2.252,0.358
			c-0.859-0.357-1.06-2.189,2.962-2.835c1.362-0.219,2.593,2.513,2.593,2.513"/>
		<path clip-path="url(#SVGID_7_)" fill="#212123" d="M321.005,137.53c-0.063,0-0.125-0.028-0.167-0.082
			c-0.269-0.349-0.709-0.857-0.949-1.028c-0.356,0.165-1.52,0.648-2.325,0.314c-0.433-0.18-0.686-0.621-0.63-1.097
			c0.056-0.477,0.523-1.641,3.64-2.141c1.498-0.242,2.765,2.517,2.818,2.634c0.048,0.106,0.001,0.231-0.105,0.279
			c-0.104,0.048-0.23,0-0.279-0.105c-0.324-0.719-1.378-2.554-2.367-2.391c-2.313,0.372-3.215,1.16-3.288,1.774
			c-0.039,0.332,0.159,0.57,0.373,0.659c0.758,0.314,2.063-0.345,2.075-0.351c0.058-0.029,0.124-0.031,0.181-0.005
			c0.381,0.169,1.058,1.03,1.189,1.201c0.07,0.092,0.053,0.225-0.039,0.295C321.095,137.517,321.049,137.53,321.005,137.53"/>
		<polygon clip-path="url(#SVGID_7_)" fill="#FE9B8C" points="265.659,171.66 265.247,179.041 253.951,173.063 257.995,158.957 
			267.996,160.414 		"/>
		<polygon clip-path="url(#SVGID_7_)" fill="#212123" points="256.911,162.577 264.228,165.096 255.79,166.322 		"/>
		<path clip-path="url(#SVGID_7_)" fill="#FE9B8C" d="M271.513,155.63c1.75-0.212,3.153,1.042,3.136,2.802
			c-0.018,1.76-1.451,3.358-3.2,3.57s-3.153-1.042-3.135-2.803C268.331,157.44,269.764,155.842,271.513,155.63"/>
		<path clip-path="url(#SVGID_7_)" fill="#FE9B8C" d="M256.131,153.535c-1.635-0.578-3.446,0.351-4.045,2.074
			c-0.598,1.724,0.241,3.589,1.876,4.166c1.635,0.577,3.446-0.352,4.045-2.074C258.606,155.978,257.766,154.113,256.131,153.535"/>
		<path clip-path="url(#SVGID_7_)" fill="#FE9B8C" d="M272.992,155.647c-0.985,5.781-5.909,10.035-10.997,9.508
			c-5.084-0.527-8.408-5.639-7.418-11.42c0.122-0.726,0.307-1.424,0.545-2.092c0.069-0.197,0.142-0.39,0.222-0.581
			c1.149-2.757,3.228-4.938,5.681-6.051c0.347-0.156,0.698-0.292,1.055-0.406c0.257-0.083,0.516-0.154,0.777-0.211
			c0.24-0.055,0.483-0.097,0.725-0.131c0.652-0.085,1.315-0.099,1.983-0.032c2.04,0.212,3.798,1.166,5.106,2.604
			c1.224,1.333,2.05,3.091,2.361,5.066c0.02,0.127,0.04,0.254,0.05,0.386c0.091,0.742,0.104,1.512,0.041,2.297
			C273.099,154.936,273.054,155.29,272.992,155.647"/>
		<path clip-path="url(#SVGID_7_)" fill="#212123" d="M273.124,154.585c-1.794-0.309-3.51-0.939-5.02-1.888
			c-1.043-0.656-1.973-1.472-2.752-2.404c-0.791-0.946-1.435-2.019-1.903-3.194c-0.332-0.839-0.577-1.767-0.591-2.705
			c0.24-0.055,0.483-0.097,0.725-0.131c0.652-0.085,1.315-0.099,1.983-0.032c2.04,0.212,3.798,1.166,5.106,2.604
			c1.223,1.333,2.05,3.091,2.361,5.066c0.02,0.127,0.04,0.254,0.05,0.386C273.173,153.029,273.187,153.799,273.124,154.585"/>
		<path clip-path="url(#SVGID_7_)" fill="#212123" d="M270.671,146.835c-1.402,1.412-3.124,2.491-4.917,3.288
			c-0.133,0.058-0.269,0.116-0.402,0.17c-2.19,0.92-4.532,1.473-6.85,1.612c-1.163,0.075-2.271-0.076-3.38-0.262
			c0.069-0.197,0.142-0.39,0.222-0.581c1.149-2.757,3.228-4.938,5.681-6.051c0.347-0.156,0.698-0.292,1.055-0.406
			c0.257-0.083,0.516-0.154,0.777-0.211c0.24-0.055,0.483-0.097,0.725-0.131c0.652-0.085,1.315-0.099,1.983-0.032
			C267.605,144.443,269.364,145.396,270.671,146.835"/>
		<path clip-path="url(#SVGID_7_)" fill="#212123" d="M270.914,151.836c-0.57-1.794-1.352-3.512-2.125-5.204
			c-0.279-0.611-0.575-1.227-0.915-1.807c3.741,1.551,5.98,5.762,5.185,10.422c-0.194,1.136-0.561,2.205-1.052,3.191
			C271.953,156.178,271.589,153.959,270.914,151.836"/>
		<path clip-path="url(#SVGID_7_)" fill="#212123" d="M256.662,151.548c-0.827,1.799-1.479,3.658-2.041,5.542
			c-0.196-1.148-0.211-2.367,0.003-3.622c0.572-3.351,2.583-6.155,5.202-7.744C258.614,147.574,257.57,149.572,256.662,151.548"/>
		<path clip-path="url(#SVGID_7_)" fill="#212123" d="M266.516,156.378c-0.051,0.331-0.355,0.561-0.68,0.513
			s-0.545-0.354-0.495-0.684c0.052-0.331,0.355-0.561,0.68-0.514C266.346,155.741,266.567,156.047,266.516,156.378"/>
		<path clip-path="url(#SVGID_7_)" fill="#212123" d="M261.683,155.883c-0.051,0.331-0.356,0.561-0.68,0.514
			c-0.324-0.048-0.545-0.354-0.494-0.685c0.051-0.331,0.355-0.561,0.68-0.513S261.734,155.552,261.683,155.883"/>
		<path clip-path="url(#SVGID_7_)" fill="#212123" d="M263.838,157.349c-0.014,0-0.028-0.001-0.042-0.004l-1.435-0.286
			c-0.061-0.012-0.113-0.051-0.143-0.105c-0.03-0.055-0.035-0.12-0.012-0.177l1.075-2.814c0.042-0.109,0.164-0.163,0.272-0.122
			c0.109,0.042,0.163,0.163,0.121,0.271l-0.986,2.582l1.19,0.238c0.114,0.022,0.188,0.134,0.165,0.248
			C264.024,157.279,263.937,157.349,263.838,157.349"/>
		<path clip-path="url(#SVGID_7_)" fill="#212123" d="M265.438,153.421c0.167-0.138,0.346-0.197,0.524-0.223
			c0.179-0.028,0.356-0.009,0.527,0.035c0.17,0.047,0.335,0.117,0.484,0.222c0.148,0.103,0.285,0.23,0.382,0.414
			c0.098,0.184,0.027,0.412-0.157,0.509c-0.021,0.012-0.043,0.021-0.066,0.027l-0.029,0.009c-0.182,0.055-0.333,0.068-0.477,0.073
			c-0.144,0.006-0.276-0.006-0.408-0.025c-0.129-0.021-0.256-0.052-0.383-0.114c-0.128-0.059-0.257-0.136-0.399-0.275l-0.025-0.024
			c-0.167-0.164-0.169-0.433-0.005-0.6C265.417,153.439,265.428,153.429,265.438,153.421"/>
		<path clip-path="url(#SVGID_7_)" fill="#212123" d="M262.385,153.645c-0.169,0.107-0.312,0.156-0.451,0.188
			c-0.14,0.035-0.272,0.04-0.407,0.035c-0.135-0.007-0.271-0.022-0.414-0.058c-0.143-0.034-0.292-0.079-0.461-0.171l-0.021-0.012
			c-0.183-0.099-0.251-0.327-0.152-0.509c0.013-0.023,0.029-0.046,0.045-0.065c0.136-0.159,0.297-0.254,0.464-0.325
			c0.168-0.072,0.345-0.107,0.522-0.118c0.178-0.009,0.357,0.008,0.53,0.071c0.172,0.061,0.338,0.155,0.476,0.326
			c0.146,0.181,0.119,0.445-0.062,0.592c-0.013,0.01-0.026,0.019-0.039,0.028L262.385,153.645z"/>
		<path clip-path="url(#SVGID_7_)" fill="#C43A50" d="M261.101,158.012c-0.036,0.479,0.674,2.619,1.23,2.634
			c0.539,0.015,2.109-1.754,2.43-2.153L261.101,158.012z"/>
		<polygon clip-path="url(#SVGID_7_)" fill="#F4B196" points="265.133,150.383 266.452,145.314 265.543,150.516 		"/>
		<path clip-path="url(#SVGID_7_)" fill="#F74962" d="M254.436,168.907l11.9,14.869l-0.677-12.116l4.284-0.644l3.883,2.461
			L289.369,163l1.149,2.281l13.107-21.618l12.123,11.297l-14.305,29.846c0,0-11.554,3.417-24.238,5.476l-3.7,16.508l-3.649,5.942
			l-28.232-1.84l-1.362-14.714l1.697-4.417l-2.887-10.703c0,0-6.906-18.534-6.552-20.302c0.354-1.768,3.341-2.445,3.341-2.445
			s-1.805-6.407,1.911-13c3.715-6.593,9.947-11.369,9.947-11.369l12.678-1.61l-8.31,23.277l0.661,1.142L254.436,168.907z"/>
		<path clip-path="url(#SVGID_7_)" fill="#FFFFFF" d="M260.398,132.331l-8.313,23.281l0.663,1.142l1.688,12.154l-0.444,14.717
			l-5.405,9.147l-6.63-1.013l-5.292-9.769c0,0-4.501-19.467-4.146-21.234c0.352-1.768,3.34-2.446,3.34-2.446
			s-3.852-6.612-0.138-13.208c3.718-6.592,9.946-11.369,9.946-11.369L260.398,132.331z"/>
		<path clip-path="url(#SVGID_7_)" fill="#FFFFFF" d="M315.75,154.96l-14.308,29.847c0,0-11.553,3.415-24.235,5.475l1.408-4.31
			l-2.771-8.201l-2.02-4.294l15.546-10.477l0.86,1.709l13.394-21.047L315.75,154.96z"/>
		<path clip-path="url(#SVGID_7_)" fill="#3A6DBE" d="M269.856,212.733l1.987,7.881c0,0-8.038,1.622-18.99,0.796
			c-10.952-0.825-15.448-5.421-15.448-5.421l4.219-5.097L269.856,212.733z"/>
		<polygon clip-path="url(#SVGID_7_)" fill="#FFFFFF" points="254.436,168.908 255.672,167.057 266.133,180.15 266.336,183.776 		
			"/>
		<polygon clip-path="url(#SVGID_7_)" fill="#FFFFFF" points="267.115,170.005 266.241,168.856 265.659,171.66 265.072,182.197 
			266.336,183.776 		"/>
		<path clip-path="url(#SVGID_7_)" fill="#8E3738" d="M254.436,168.908c0,0,7.706,19.932,9.368,34.347l-3.333,4.082
			c0,0-0.58-14.158-6.074-31.643L254.436,168.908z"/>
		<path clip-path="url(#SVGID_7_)" fill="#383544" d="M261.14,199.871c-0.036,0-0.072-0.009-0.105-0.029
			c-0.101-0.058-0.135-0.187-0.076-0.288l7.391-12.686l-2.182-2.967c-0.069-0.094-0.049-0.226,0.044-0.295
			c0.093-0.068,0.226-0.049,0.294,0.045l2.264,3.079c0.05,0.067,0.055,0.158,0.012,0.23l-7.46,12.806
			C261.283,199.833,261.212,199.871,261.14,199.871"/>
		<path clip-path="url(#SVGID_7_)" fill="#C6A187" d="M306.761,224.382c4.432,5.98,0.266,16.855-9.305,24.289
			c-9.571,7.434-20.922,8.612-25.354,2.631c-4.432-5.98-0.266-16.855,9.305-24.289S302.329,218.401,306.761,224.382"/>
		<path clip-path="url(#SVGID_7_)" fill="#FFE4CC" d="M306.312,223.776c4.432,5.981,0.266,16.855-9.304,24.289
			c-9.571,7.434-20.922,8.612-25.353,2.631c-4.432-5.981-0.266-16.855,9.305-24.289C290.529,218.973,301.88,217.795,306.312,223.776
			"/>
		<path clip-path="url(#SVGID_7_)" fill="#8E3738" d="M303.271,226.286c0.312,1.208,0.424,2.49,0.349,3.812
			c-0.292,4.973-3.264,10.496-8.312,14.612c-0.164,0.132-0.331,0.266-0.497,0.395c-0.165,0.129-0.336,0.257-0.505,0.383
			c-5.231,3.868-11.225,5.308-15.978,4.259c-1.264-0.282-2.442-0.741-3.494-1.374c-3.308-7.243-0.92-16.495,6.122-21.965
			C287.998,220.94,297.347,221.076,303.271,226.286"/>
		<path clip-path="url(#SVGID_7_)" fill="#6D272B" d="M288.245,211.798c4.399,5.938,2.82,14.749-3.529,19.679
			c-6.349,4.931-15.062,4.115-19.461-1.822c-4.399-5.938-2.819-14.749,3.529-19.679C275.132,205.045,283.845,205.86,288.245,211.798
			"/>
		<path clip-path="url(#SVGID_7_)" fill="#8E3738" d="M286.751,203.418c5.545,7.484,3.554,18.589-4.448,24.804
			c-8.002,6.215-18.983,5.187-24.529-2.297c-5.545-7.484-3.554-18.589,4.448-24.804
			C270.224,194.906,281.207,195.934,286.751,203.418"/>
		<path clip-path="url(#SVGID_7_)" fill="#383544" d="M279.374,252.565c-0.063,0-0.125-0.028-0.167-0.082l-14.188-18.334
			l-8.068-6.827c-0.088-0.076-0.1-0.208-0.024-0.297c0.075-0.088,0.208-0.099,0.297-0.024l8.085,6.842
			c0.011,0.009,0.021,0.02,0.03,0.032l14.202,18.352c0.071,0.092,0.054,0.224-0.038,0.296
			C279.464,252.551,279.419,252.565,279.374,252.565"/>
		<path clip-path="url(#SVGID_7_)" fill="#383544" d="M281.135,252.579c-0.062,0-0.124-0.027-0.166-0.08l-15.125-19.329
			c-0.017-0.021-0.029-0.045-0.037-0.071l-1.682-5.772c-0.033-0.111,0.031-0.228,0.143-0.261c0.113-0.032,0.228,0.032,0.261,0.144
			l1.671,5.732l15.101,19.296c0.071,0.091,0.055,0.224-0.036,0.295C281.226,252.564,281.181,252.579,281.135,252.579"/>
		<path clip-path="url(#SVGID_7_)" fill="#383544" d="M287.476,251.743c-0.064,0-0.128-0.03-0.169-0.085L272.17,231.23l-5.574-4.557
			c-0.09-0.074-0.103-0.206-0.029-0.296c0.074-0.09,0.207-0.104,0.296-0.03l5.593,4.573c0.014,0.011,0.025,0.023,0.036,0.037
			l15.152,20.449c0.069,0.094,0.05,0.226-0.044,0.294C287.563,251.729,287.519,251.743,287.476,251.743"/>
		<path clip-path="url(#SVGID_7_)" fill="#383544" d="M288.572,250.892c-0.064,0-0.128-0.029-0.169-0.085l-15.152-20.449
			c-0.018-0.024-0.031-0.052-0.037-0.081l-1.239-5.727c-0.024-0.114,0.048-0.226,0.162-0.25c0.114-0.025,0.226,0.048,0.25,0.162
			l1.229,5.683l15.125,20.412c0.07,0.094,0.05,0.226-0.043,0.294C288.659,250.878,288.615,250.892,288.572,250.892"/>
		<path clip-path="url(#SVGID_7_)" fill="#383544" d="M305.988,231.894c-0.065,0-0.13-0.031-0.172-0.089l-13.436-18.946
			c-0.008-0.012-0.015-0.025-0.021-0.038l-4.257-9.815c-0.046-0.107,0.003-0.231,0.109-0.278c0.108-0.044,0.231,0.003,0.277,0.11
			l4.248,9.795l13.424,18.929c0.067,0.095,0.045,0.226-0.05,0.293C306.073,231.881,306.03,231.894,305.988,231.894"/>
		<path clip-path="url(#SVGID_7_)" fill="#383544" d="M305.526,233.634c-0.066,0-0.131-0.031-0.172-0.09l-14.082-20.087
			l-4.941-3.192c-0.098-0.063-0.126-0.193-0.063-0.291c0.063-0.098,0.194-0.126,0.292-0.063l4.975,3.214
			c0.022,0.015,0.042,0.034,0.058,0.056l14.105,20.12c0.067,0.096,0.044,0.227-0.051,0.293
			C305.61,233.621,305.568,233.634,305.526,233.634"/>
		<path clip-path="url(#SVGID_7_)" fill="#383544" d="M302.713,239.908c-0.064,0-0.128-0.029-0.169-0.085l-15.151-20.449
			c-0.01-0.014-0.019-0.029-0.025-0.045l-2.795-6.747c-0.044-0.107,0.007-0.231,0.115-0.275c0.107-0.045,0.23,0.007,0.275,0.114
			l2.785,6.723l15.136,20.428c0.069,0.093,0.05,0.226-0.044,0.294C302.8,239.894,302.756,239.908,302.713,239.908"/>
		<path clip-path="url(#SVGID_7_)" fill="#383544" d="M301.617,240.759c-0.064,0-0.128-0.03-0.169-0.085l-15.124-20.412
			l-5.013-2.742c-0.102-0.056-0.14-0.184-0.083-0.286c0.056-0.103,0.185-0.139,0.286-0.083l5.054,2.764
			c0.027,0.014,0.05,0.035,0.068,0.06l15.151,20.448c0.069,0.093,0.05,0.226-0.043,0.294
			C301.704,240.745,301.661,240.759,301.617,240.759"/>
		<path clip-path="url(#SVGID_7_)" fill="#383544" d="M295.723,246.809c-0.064,0-0.127-0.029-0.168-0.084l-15.974-21.395l-4.609-2.9
			c-0.098-0.062-0.127-0.191-0.065-0.291c0.062-0.098,0.192-0.127,0.291-0.065l4.641,2.92c0.022,0.014,0.042,0.031,0.057,0.052
			l15.998,21.427c0.07,0.093,0.051,0.225-0.042,0.294C295.811,246.795,295.767,246.809,295.723,246.809"/>
		<path clip-path="url(#SVGID_7_)" fill="#383544" d="M296.597,246.13c-0.064,0-0.128-0.029-0.169-0.086l-15.844-21.546
			c-0.015-0.021-0.026-0.044-0.033-0.068l-1.497-5.363c-0.031-0.112,0.035-0.229,0.146-0.26c0.113-0.032,0.228,0.034,0.259,0.146
			l1.486,5.327l15.821,21.515c0.069,0.093,0.05,0.226-0.044,0.294C296.684,246.117,296.641,246.13,296.597,246.13"/>
		<path clip-path="url(#SVGID_7_)" fill="#C6A187" d="M286.493,197.029c4.432,5.981,0.265,16.855-9.305,24.289
			c-9.571,7.434-20.922,8.612-25.353,2.631c-4.432-5.981-0.266-16.856,9.304-24.29C270.71,192.226,282.062,191.048,286.493,197.029"
			/>
		<path clip-path="url(#SVGID_7_)" fill="#FFE4CC" d="M286.044,196.423c4.432,5.981,0.266,16.855-9.305,24.29
			c-9.57,7.434-20.921,8.612-25.353,2.63c-4.432-5.98-0.266-16.855,9.304-24.289C270.262,191.62,281.612,190.442,286.044,196.423"/>
		<g opacity="0.5" clip-path="url(#SVGID_7_)">
			<g>
				<defs>
					<rect id="SVGID_2_" x="257.023" y="199.309" width="23.383" height="21.149"/>
				</defs>
				<clipPath id="SVGID_9_">
					<use xlink:href="#SVGID_2_"  overflow="visible"/>
				</clipPath>
				<path clip-path="url(#SVGID_9_)" fill="#FFE4CC" d="M279.322,201.645c2.712,3.661,0.163,10.317-5.696,14.867
					c-5.858,4.55-12.806,5.271-15.518,1.61c-2.713-3.661-0.163-10.317,5.695-14.867
					C269.662,198.705,276.609,197.984,279.322,201.645"/>
			</g>
		</g>
		<polygon clip-path="url(#SVGID_7_)" fill="#691E23" points="288.807,212.557 290.919,207.926 293.275,213.093 292.196,215.239 		
			"/>
		<polygon clip-path="url(#SVGID_7_)" fill="#691E23" points="283.83,219.512 286.809,215.867 288.54,220.001 287.197,222.025 		"/>
		<path clip-path="url(#SVGID_7_)" fill="#691E23" d="M277.683,225.389l3.554-2.987l1.672,4.057c0,0-2.046,1.712-2.021,1.57
			C280.912,227.888,277.683,225.389,277.683,225.389"/>
		<polygon clip-path="url(#SVGID_7_)" fill="#691E23" points="268.831,229.164 272.235,231.959 274.446,230.937 273.229,227.262 		
			"/>
		<polygon clip-path="url(#SVGID_7_)" fill="#691E23" points="261.583,231.67 265.994,230.522 267.408,233.798 265.061,234.722 		
			"/>
		<path clip-path="url(#SVGID_7_)" fill="#383544" d="M254.436,169.119c-0.104,0-0.194-0.076-0.208-0.181l-1.682-12.114
			l-0.643-1.106c-0.031-0.053-0.037-0.118-0.016-0.176l8.313-23.281c0.039-0.109,0.159-0.167,0.269-0.127
			c0.109,0.039,0.167,0.159,0.127,0.269l-8.28,23.188l0.614,1.057c0.014,0.024,0.022,0.05,0.026,0.077l1.688,12.155
			c0.016,0.115-0.064,0.221-0.18,0.237C254.455,169.118,254.445,169.119,254.436,169.119"/>
		<path clip-path="url(#SVGID_7_)" fill="#383544" d="M277.207,190.493c-0.022,0-0.045-0.004-0.068-0.011
			c-0.11-0.038-0.168-0.157-0.132-0.267l3.169-9.345c0.038-0.11,0.157-0.169,0.267-0.131c0.11,0.037,0.169,0.156,0.132,0.267
			l-3.169,9.344C277.376,190.438,277.294,190.493,277.207,190.493"/>
		<path clip-path="url(#SVGID_7_)" fill="#383544" d="M233.271,313.804c-0.009,0-0.018,0-0.028-0.002l-12.629-1.698
			c-0.115-0.016-0.196-0.122-0.181-0.237c0.016-0.115,0.122-0.201,0.237-0.18l12.629,1.698c0.115,0.015,0.196,0.121,0.181,0.236
			C233.465,313.728,233.375,313.804,233.271,313.804"/>
		<path clip-path="url(#SVGID_7_)" fill="#383544" d="M244.29,313.606c-0.097,0-0.185-0.068-0.206-0.167
			c-0.024-0.114,0.049-0.226,0.163-0.25c0.042-0.009,4.119-0.877,5.787-1.821c1.632-0.924,2.83-3.726,2.841-3.754
			c0.046-0.107,0.171-0.157,0.277-0.112c0.107,0.045,0.157,0.169,0.112,0.276c-0.05,0.121-1.264,2.961-3.022,3.957
			c-1.725,0.976-5.737,1.831-5.906,1.866C244.319,313.604,244.304,313.606,244.29,313.606"/>
		<path clip-path="url(#SVGID_7_)" fill="#383544" d="M261.793,310.872c-0.038,0-0.075-0.01-0.108-0.03l-5.901-3.548
			c-0.099-0.06-0.131-0.189-0.072-0.29c0.061-0.1,0.19-0.13,0.29-0.072l5.847,3.516l8.25-0.347c0.111,0.001,0.214,0.086,0.219,0.202
			c0.004,0.116-0.085,0.214-0.202,0.219l-8.314,0.349H261.793z"/>
		<path clip-path="url(#SVGID_7_)" fill="#383544" d="M279.501,306.799c-0.051,0-0.103-0.019-0.144-0.057
			c-0.085-0.08-0.089-0.212-0.01-0.297l2.511-2.69c0.08-0.085,0.213-0.09,0.297-0.011c0.085,0.08,0.09,0.213,0.011,0.298
			l-2.511,2.69C279.613,306.776,279.558,306.799,279.501,306.799"/>
		<polygon clip-path="url(#SVGID_7_)" fill="#EBA138" points="397.745,84.337 394.183,84.337 397.147,78.849 400.708,78.849 		"/>
		<polygon clip-path="url(#SVGID_7_)" fill="#54BCD9" points="415.427,116.126 411.865,116.126 414.829,110.638 418.391,110.638 		
			"/>
		<polygon clip-path="url(#SVGID_7_)" fill="#54BCD9" points="53.698,322.155 50.137,322.155 53.101,316.667 56.663,316.667 		"/>
		<polygon clip-path="url(#SVGID_7_)" fill="#54BCD9" points="50.436,165.745 46.874,165.745 49.838,160.256 53.399,160.256 		"/>
		<polygon clip-path="url(#SVGID_7_)" fill="#54BCD9" points="291.34,141.839 287.778,141.839 290.742,136.351 294.304,136.351 		
			"/>
		<polygon clip-path="url(#SVGID_7_)" fill="#54BCD9" points="394.482,259.515 390.92,259.515 393.884,254.026 397.446,254.026 		
			"/>
		<polygon clip-path="url(#SVGID_7_)" fill="#54BCD9" points="115.142,65.961 111.58,65.961 114.543,60.473 118.105,60.473 		"/>
		<polygon clip-path="url(#SVGID_7_)" fill="#FE5667" points="351.185,119.981 347.624,119.981 350.587,114.493 354.149,114.493 		
			"/>
		<polygon clip-path="url(#SVGID_7_)" fill="#FE5667" points="177.158,128.904 173.596,128.904 176.56,123.415 180.122,123.415 		
			"/>
		<polygon clip-path="url(#SVGID_7_)" fill="#EBA138" points="364.155,53.012 367.717,53.012 364.753,47.523 361.191,47.523 		"/>
		<polygon clip-path="url(#SVGID_7_)" fill="#EBA138" points="444.952,144.608 448.514,144.608 445.55,139.12 441.988,139.12 		"/>
		<polygon clip-path="url(#SVGID_7_)" fill="#FE5667" points="441.689,96.197 445.251,96.197 442.287,90.709 438.725,90.709 		"/>
		<polygon clip-path="url(#SVGID_7_)" fill="#FE5667" points="226.658,193.968 230.22,193.968 227.255,188.479 223.694,188.479 		
			"/>
		<polygon clip-path="url(#SVGID_7_)" fill="#FE5667" points="75.135,154.477 78.697,154.477 75.733,148.989 72.171,148.989 		"/>
		<polygon clip-path="url(#SVGID_7_)" fill="#FEFEFE" points="372.163,94.808 375.725,94.808 372.761,89.32 369.2,89.32 		"/>
		<polygon clip-path="url(#SVGID_7_)" fill="#FEFEFE" points="81.661,313.291 85.223,313.291 82.259,307.802 78.697,307.802 		"/>
		<polygon clip-path="url(#SVGID_7_)" fill="#FEFEFE" points="63.229,55.756 66.791,55.756 63.827,50.268 60.265,50.268 		"/>
		<polygon clip-path="url(#SVGID_7_)" fill="#FEFEFE" points="444.952,261.277 448.514,261.277 445.55,255.789 441.988,255.789 		
			"/>
		<polygon clip-path="url(#SVGID_7_)" fill="#FEFEFE" points="61.389,131.46 57.827,131.46 60.791,125.972 64.353,125.972 		"/>
		<polygon clip-path="url(#SVGID_7_)" fill="#FE9B96" points="344.03,87.081 340.468,87.081 343.432,81.593 346.994,81.593 		"/>
		<polygon clip-path="url(#SVGID_7_)" fill="#EBA138" points="164.284,81.593 160.722,81.593 163.687,76.104 167.248,76.104 		"/>
		<polygon clip-path="url(#SVGID_7_)" fill="#EBA138" points="220.343,140.717 223.905,140.717 220.941,135.229 217.379,135.229 		
			"/>
		<polygon clip-path="url(#SVGID_7_)" fill="#FEFEFE" points="148.442,102.788 152.004,102.788 149.04,97.3 145.479,97.3 		"/>
		<polygon clip-path="url(#SVGID_7_)" fill="#FE9B96" points="128.664,95.182 125.102,95.182 128.066,89.693 131.628,89.693 		"/>
		<polygon clip-path="url(#SVGID_7_)" fill="#FE9B96" points="64.652,293.542 61.09,293.542 64.054,288.054 67.616,288.054 		"/>
		<path clip-path="url(#SVGID_7_)" fill="#FFE7E7" d="M55.105,233.921c-3.561,7.062-2.445,23.012,25.858,44.757
			c28.304,21.745,54.886,33.326,80.39,33.914c25.505,0.588,44.184-3.352,59.416-14.86c15.232-11.508-142.306-66.891-142.306-66.891
			L55.105,233.921z"/>
		<path clip-path="url(#SVGID_7_)" fill="#FFFFFF" d="M151.356,322.079c-2.132,2.493-7.708,1.595-7.708,1.595
			s-11.723,11.321-16.425,12.078c-4.698,0.76-11.869-2.629-13.759-6.401c-1.424-2.842-1.762-4.914-1.717-6.313
			c0.025-0.803,0.976-1.222,1.598-0.714c2.402,1.962,8.294,2.186,10.042-1.092c2.148-4.031,5.768-6.106,5.768-6.106l-11.804-45.059
			c9.327,8.474,19.464,16.58,33.92,23.813L148,310.005C148.771,313.089,153.494,319.583,151.356,322.079"/>
		<path clip-path="url(#SVGID_7_)" fill="#FF929F" d="M103.366,257c15.638,20.129,39.981,49.582,66.054,55.616
			c26.073,6.035,54.837,0.116,54.837,0.116l-7.648-19.692L103.366,257z"/>
		<path clip-path="url(#SVGID_7_)" fill="#FC5662" d="M129.732,177.63l-4.009,2.808c0,0-10.771-2.325-28.083,6.511
			c-17.312,8.835-38.197,28.305-45.11,43.42l2.575,3.552c0,0,12.239-6.573,35.053,11.615c22.813,18.188,34.704,36.842,67.58,51.397
			c32.875,14.557,64.528,4.437,73.417-2.285c0,0-14.376-27.271-28.903-40.306c0,0,4.622-22.561-0.345-42.854
			c-4.968-20.293-34.256-37.654-34.256-37.654L129.732,177.63z"/>
		<path clip-path="url(#SVGID_7_)" fill="#FFF0C0" d="M152.381,148.381l23.481-1.563l22.081-8.202l12.634,9.777
			c0,0,1.641,6.377-2.552,11.696c-4.192,5.319-40.67,2.799-40.67,2.799l0.296,10.947c0,0-10.006,1.919-17.137,4.737
			c-7.131,2.818-20.782-0.943-20.782-0.943l-1.368-16.415c0,0-22.901-10.242-33.097-21.621
			c-10.195-11.38-20.514-46.465-20.514-46.465l15.058-9.393l46.538,55.367L152.381,148.381z"/>
		<path clip-path="url(#SVGID_7_)" fill="#212123" d="M130.263,123.252c0,0,1.3-2.292,5.456-3.494
			c4.155-1.202,6.007,0.293,6.007,0.293l-10.042,4.133L130.263,123.252z"/>
		<path clip-path="url(#SVGID_7_)" fill="#212123" d="M159.894,139.384c-0.159,3.516-3.139,6.237-6.655,6.077
			c-3.516-0.16-6.237-3.139-6.077-6.655c0.16-3.516,3.14-6.236,6.655-6.077C157.333,132.889,160.054,135.868,159.894,139.384"/>
		<path clip-path="url(#SVGID_7_)" fill="#212123" d="M132.923,123.154c-1.867-0.821-3.769-0.596-5.086,0.603
			c-1.317,1.198-2.027,3.35-1.899,5.753c0.086,1.609,0.548,3.344,1.398,4.814c0.85,1.47,2.103,2.642,3.352,2.984
			c0.906,0.248,1.762,0.063,2.506-0.323c1.557-0.806,2.693-2.508,3.126-4.685c0.434-2.177,0.161-4.808-0.75-7.243"/>
		<polygon clip-path="url(#SVGID_7_)" fill="#FE9B8C" points="150.343,147.202 140.846,160.851 138.373,153.569 136.35,139.103 
			147.701,135.845 		"/>
		<polygon clip-path="url(#SVGID_7_)" fill="#212123" points="136.989,143.676 144.403,141.823 137.553,147.708 		"/>
		<path clip-path="url(#SVGID_7_)" fill="#FE9B8C" d="M148.743,129.753c0.763,4.281-0.793,8.97-4.274,11.778
			c-4.646,3.747-10.962,2.726-14.109-2.281c-3.145-5.009-1.929-12.107,2.718-15.854c0.233-0.188,0.47-0.363,0.71-0.527
			c4.562-3.107,10.409-1.947,13.397,2.811C147.974,126.934,148.489,128.321,148.743,129.753"/>
		<path clip-path="url(#SVGID_7_)" fill="#212123" d="M149.139,132.429c-11.313,0.233-15.891-8.105-16.908-9.826
			c-0.001-0.002-0.001-0.002-0.001-0.004c5.187-3.851,12.146-4.285,15.405,1.792C149.267,127.433,149.42,130.611,149.139,132.429"/>
		<path clip-path="url(#SVGID_7_)" fill="#FE9B8C" d="M151.806,131.935c0.642,2.236-0.65,4.57-2.888,5.211
			c-2.236,0.642-4.57-0.65-5.212-2.887c-0.642-2.237,0.651-4.57,2.888-5.212C148.831,128.406,151.164,129.698,151.806,131.935"/>
		<path clip-path="url(#SVGID_7_)" fill="#212123" d="M146.426,135.418c-0.077,0.022-0.163,0.015-0.239-0.026
			c-0.649-0.353-1.122-0.937-1.331-1.645c-0.21-0.708-0.131-1.456,0.222-2.104c0.353-0.648,0.936-1.121,1.645-1.331
			c0.007-0.002,0.015-0.004,0.021-0.006c0.702-0.202,1.44-0.121,2.083,0.228c0.153,0.083,0.21,0.276,0.126,0.431
			c-0.083,0.153-0.276,0.211-0.43,0.127c-0.5-0.271-1.073-0.322-1.621-0.17c-0.545,0.162-0.996,0.525-1.267,1.025
			c-0.272,0.5-0.333,1.076-0.172,1.621c0.162,0.546,0.526,0.996,1.025,1.267c0.154,0.084,0.211,0.277,0.128,0.431
			C146.576,135.342,146.505,135.396,146.426,135.418"/>
		<path clip-path="url(#SVGID_7_)" fill="#212123" d="M131.937,133.078c0.105,0.368-0.107,0.752-0.475,0.858
			c-0.369,0.106-0.752-0.107-0.858-0.475c-0.105-0.368,0.107-0.752,0.475-0.857C131.447,132.498,131.832,132.71,131.937,133.078"/>
		<path clip-path="url(#SVGID_7_)" fill="#212123" d="M136.476,132.848c0.105,0.368-0.107,0.752-0.475,0.858
			c-0.368,0.105-0.752-0.107-0.858-0.475c-0.105-0.368,0.107-0.752,0.475-0.857C135.987,132.268,136.371,132.48,136.476,132.848"/>
		<path clip-path="url(#SVGID_7_)" fill="#212123" d="M134.687,135.644c-0.035,0.01-0.073,0.015-0.112,0.012
			c-0.679-0.053-1.368-0.056-2.046-0.01c-0.1,0.007-0.197-0.034-0.263-0.109c-0.064-0.076-0.091-0.178-0.069-0.276
			c0.308-1.392,0.619-2.784,0.929-4.176c0.038-0.171,0.209-0.279,0.379-0.241c0.172,0.039,0.279,0.208,0.241,0.379
			c-0.28,1.256-0.56,2.511-0.838,3.768c0.571-0.022,1.147-0.012,1.718,0.033c0.175,0.014,0.306,0.167,0.292,0.341
			C134.906,135.5,134.811,135.608,134.687,135.644"/>
		<path clip-path="url(#SVGID_7_)" fill="#E94A2D" d="M133.931,136.698l3.437-2.009c0,0,0.514,2.706-0.276,3.194
			C136.301,138.372,133.931,136.698,133.931,136.698"/>
		<path clip-path="url(#SVGID_7_)" fill="#212123" d="M137.04,130.21c-0.33,0.056-0.592,0.055-0.891,0.05
			c-0.295-0.009-0.601-0.005-0.951-0.076l-0.006,0c-0.119-0.024-0.196-0.141-0.172-0.26c0.01-0.054,0.04-0.099,0.081-0.13
			c0.297-0.232,0.654-0.339,1.026-0.367c0.368-0.023,0.781,0.052,1.079,0.341c0.102,0.099,0.104,0.262,0.005,0.364
			c-0.039,0.041-0.089,0.065-0.142,0.074L137.04,130.21z"/>
		<path clip-path="url(#SVGID_7_)" fill="#212123" d="M132.388,130.256c-0.331,0.056-0.592,0.056-0.891,0.051
			c-0.296-0.009-0.602-0.005-0.952-0.076l-0.006-0.001c-0.119-0.024-0.196-0.141-0.172-0.26c0.011-0.054,0.04-0.099,0.08-0.13
			c0.298-0.232,0.654-0.339,1.026-0.367c0.368-0.024,0.782,0.051,1.079,0.34c0.102,0.099,0.104,0.262,0.005,0.364
			c-0.04,0.041-0.09,0.065-0.142,0.074L132.388,130.256z"/>
		<path clip-path="url(#SVGID_7_)" fill="#843723" d="M25.19,98.574c-0.08-0.417,0.193-0.82,0.611-0.901l23.898-4.592l23.888-5.374
			l0.581,3.022L49.75,94.639l-23.658,4.546C25.674,99.266,25.271,98.992,25.19,98.574"/>
		<path clip-path="url(#SVGID_7_)" fill="#F74962" d="M154.368,139.093c-0.284,0-0.542-0.192-0.613-0.48
			c-0.084-0.338,0.123-0.681,0.461-0.765l9.947-2.462c0.34-0.083,0.682,0.123,0.765,0.461c0.084,0.339-0.123,0.682-0.461,0.765
			l-9.947,2.462C154.469,139.086,154.418,139.093,154.368,139.093"/>
		<path clip-path="url(#SVGID_7_)" fill="#F74962" d="M166.004,135.988c-0.042,0.93-0.831,1.65-1.761,1.608s-1.65-0.831-1.608-1.761
			c0.042-0.931,0.831-1.65,1.761-1.608C165.327,134.27,166.046,135.059,166.004,135.988"/>
		<path clip-path="url(#SVGID_7_)" fill="#383544" d="M132.886,182.922h-0.027c-0.116-0.001-0.209-0.097-0.208-0.213
			c0.001-0.116,0.097-0.208,0.213-0.208c0.064-0.002,6.258,0.04,14.572-2.807c8.355-2.859,16.589-5.38,16.671-5.405
			c0.111-0.035,0.229,0.028,0.263,0.14c0.034,0.111-0.029,0.229-0.14,0.263c-0.082,0.025-8.31,2.544-16.658,5.401
			C139.471,182.865,133.349,182.922,132.886,182.922"/>
		<path clip-path="url(#SVGID_7_)" fill="#383544" d="M191.384,158.259c-0.051,0-0.101-0.018-0.142-0.055l-7.19-6.524
			c-0.086-0.078-0.093-0.211-0.015-0.297c0.079-0.086,0.211-0.092,0.298-0.014l7.19,6.524c0.086,0.078,0.092,0.211,0.014,0.297
			C191.499,158.236,191.441,158.259,191.384,158.259"/>
		<polygon clip-path="url(#SVGID_7_)" fill="#FFFFFF" points="153.105,148.414 150.921,145.918 139.324,163.315 139.583,167.259 		
			"/>
		<polygon clip-path="url(#SVGID_7_)" fill="#FFFFFF" points="140.846,160.851 138.373,153.569 137.966,150.241 135.468,151.915 
			139.325,163.315 		"/>
		<path clip-path="url(#SVGID_7_)" fill="#383544" d="M141.427,179.829c-0.104,0-0.195-0.078-0.209-0.184l-2.102-16.303
			c-0.006-0.05,0.005-0.101,0.034-0.144l11.597-17.396c0.064-0.097,0.195-0.123,0.292-0.059c0.097,0.064,0.123,0.195,0.059,0.292
			l-11.553,17.332l2.092,16.225c0.015,0.115-0.067,0.221-0.182,0.236C141.445,179.828,141.435,179.829,141.427,179.829"/>
		<path clip-path="url(#SVGID_7_)" fill="#FFFFFF" d="M76.099,236.529l-15.53,22.003l-8.42-1.976l-1.75-7.354l-8.264-6.705
			c0,0-2.262-5.905,0.105-13.299c2.369-7.399,6.226-7.452,6.226-7.452l1.191,5.06l5.446,7.117c0,0,0.064-0.031,0.185-0.088
			C56.494,233.295,63.624,230.628,76.099,236.529"/>
		<polygon clip-path="url(#SVGID_7_)" fill="#784DF0" points="136.043,169.347 142.359,168.191 142.368,174.717 137.577,175.518 		
			"/>
		<path clip-path="url(#SVGID_7_)" fill="#383544" d="M129.732,177.84c-0.108,0-0.2-0.083-0.209-0.193l-1.368-16.415
			c-0.002-0.021,0-0.042,0.004-0.063l1.797-8.237c0.024-0.114,0.137-0.188,0.25-0.161c0.114,0.025,0.186,0.137,0.161,0.25
			l-1.791,8.207l1.365,16.384c0.009,0.116-0.077,0.218-0.192,0.228C129.744,177.84,129.738,177.84,129.732,177.84"/>
		<path clip-path="url(#SVGID_7_)" fill="#784DF0" d="M142.356,168.62l7.286-2.155c1.06-0.314,2.172,0.3,2.472,1.365l0.859,3.055
			c0.337,1.2-0.503,2.41-1.745,2.514l-8.833,0.736L142.356,168.62z"/>
		<path clip-path="url(#SVGID_7_)" fill="#784DF0" d="M53.274,186.218c1.317,3.227,3.98,6.014,7.227,7.906
			c3.233,1.906,7.073,2.884,11.05,3.149c1.99,0.135,4.02,0.095,6.057-0.083c2.045-0.176,4.072-0.479,6.026-0.933
			c3.904-0.903,7.561-2.491,10.288-5.013c1.426-1.301,2.637-2.796,3.738-4.469c1.102-1.676,2.122-3.604,3.384-5.57
			c0.624-0.982,1.326-1.951,2.064-2.891c0.761-0.921,1.557-1.831,2.412-2.647c1.689-1.658,3.552-3.145,5.59-4.401
			c2.037-1.252,4.255-2.278,6.642-2.922c2.378-0.647,4.954-0.856,7.481-0.479l0.946,0.153c0.313,0.064,0.62,0.157,0.929,0.237
			c0.308,0.085,0.619,0.16,0.922,0.259l0.893,0.342l0.795,0.312c0.136,0.063,0.337,0.124,0.526,0.186
			c0.405,0.119,0.86,0.218,1.325,0.303c0.938,0.162,1.927,0.254,2.887,0.276c0.475,0.002,0.955,0.001,1.392-0.04
			c0.43-0.036,0.859-0.103,1.111-0.178l1.434,4.406c-0.79,0.253-1.445,0.342-2.097,0.418c-0.647,0.072-1.259,0.087-1.873,0.096
			c-1.219-0.003-2.408-0.088-3.622-0.27c-0.61-0.098-1.223-0.215-1.868-0.389c-0.332-0.098-0.655-0.189-1.022-0.338l-0.253-0.099
			l-0.161-0.057l-0.319-0.114l-0.637-0.234c-0.216-0.065-0.438-0.107-0.656-0.165c-0.22-0.05-0.435-0.117-0.656-0.157l-0.671-0.089
			c-1.789-0.226-3.649-0.057-5.463,0.479c-1.814,0.532-3.579,1.383-5.229,2.448c-1.651,1.066-3.192,2.346-4.582,3.77
			c-0.708,0.703-1.331,1.454-1.943,2.222c-0.59,0.789-1.154,1.596-1.681,2.466c-1.063,1.724-2.043,3.676-3.288,5.675
			c-1.249,1.994-2.757,3.952-4.52,5.625c-0.897,0.878-1.884,1.643-2.895,2.356c-1.019,0.704-2.085,1.309-3.168,1.863
			c-1.089,0.537-2.2,1.005-3.323,1.416c-1.125,0.395-2.258,0.75-3.398,1.038c-2.281,0.58-4.569,0.967-6.862,1.214
			c-2.3,0.249-4.641,0.349-7.003,0.24c-2.36-0.107-4.746-0.429-7.097-1.027c-2.343-0.593-4.681-1.49-6.843-2.697
			c-2.164-1.207-4.183-2.721-5.951-4.543c-0.875-0.92-1.693-1.907-2.424-2.971c-0.72-1.072-1.354-2.212-1.889-3.407L53.274,186.218z
			"/>
		<path clip-path="url(#SVGID_7_)" fill="#784DF0" d="M93.729,226.05c1.065,0.423,2.287,0.572,3.594,0.447
			c1.305-0.123,2.674-0.521,3.988-1.118c0.658-0.299,1.304-0.646,1.925-1.038c0.311-0.195,0.619-0.419,0.931-0.626
			c0.305-0.22,0.6-0.455,0.902-0.68c1.174-0.947,2.248-2.032,3.192-3.221c1.889-2.378,3.26-5.182,3.893-8.126
			c0.637-2.915,0.473-6.205,0.322-9.735c-0.146-3.566-0.146-7.283,0.471-11.013c0.309-1.863,0.753-3.735,1.435-5.556
			c0.172-0.454,0.342-0.909,0.546-1.354c0.188-0.449,0.402-0.889,0.626-1.326c0.441-0.881,0.975-1.755,1.548-2.562
			c1.154-1.624,2.528-3.045,4.027-4.281c1.5-1.236,3.132-2.282,4.855-3.134c3.44-1.704,7.255-2.681,11.17-2.633l-0.019,4.44
			c-3.086,0.046-6.218,0.924-8.994,2.404c-2.779,1.473-5.231,3.569-6.915,6.071c-0.421,0.631-0.784,1.263-1.106,1.956
			c-0.165,0.346-0.325,0.696-0.462,1.058c-0.153,0.354-0.276,0.723-0.404,1.09c-0.505,1.47-0.83,3.027-1.047,4.617
			c-0.217,1.593-0.308,3.226-0.312,4.881c-0.006,1.662,0.07,3.317,0.192,5.038c0.118,1.724,0.262,3.514,0.294,5.382
			c0.032,1.863-0.055,3.822-0.418,5.798c-0.726,3.922-2.405,7.612-4.77,10.776c-1.185,1.583-2.544,3.039-4.055,4.332
			c-0.387,0.312-0.77,0.63-1.165,0.933c-0.407,0.292-0.8,0.59-1.22,0.873c-0.843,0.565-1.725,1.074-2.646,1.526
			c-1.841,0.899-3.849,1.578-6.022,1.855c-2.161,0.279-4.518,0.121-6.736-0.68L93.729,226.05z"/>
		<path clip-path="url(#SVGID_7_)" fill="#383544" d="M167.355,163.099c-0.005,0-0.009,0-0.014,0l-6.114-0.382
			c-0.117-0.007-0.205-0.107-0.198-0.223c0.007-0.116,0.107-0.203,0.224-0.197l6.115,0.382c0.116,0.007,0.204,0.107,0.197,0.223
			C167.558,163.013,167.465,163.099,167.355,163.099"/>
		<path clip-path="url(#SVGID_7_)" fill="#383544" d="M231.156,294.859c-0.076,0-0.148-0.041-0.186-0.112
			c-21.306-39.924-39.216-47.493-39.395-47.565c-0.107-0.043-0.16-0.166-0.116-0.274c0.043-0.108,0.166-0.159,0.274-0.117
			c0.179,0.072,18.217,7.671,39.608,47.757c0.055,0.103,0.017,0.231-0.086,0.285C231.223,294.851,231.189,294.859,231.156,294.859"
			/>
		<path clip-path="url(#SVGID_7_)" fill="#FE9B8C" d="M85.74,86.273l-10.492,6.984c0,0-1.055,1.39-3.45,2.5
			c-2.395,1.11-4.673-0.528-8.417,1.111c-3.739,1.635-5.113,2.37-5.954,1.193c-0.84-1.181-0.28-2.851,1.794-3.933
			c1.584-0.826,3.295-1.445,4.016-1.69c0.098-0.025,0.192-0.059,0.291-0.097c0.021-0.003,0.039-0.011,0.06-0.018
			c2.862-1.084,7.282-3.14,7.282-3.14l-5.73,0.449l-7.405,1.667c2.514-3.462,9.367-8.287,11.339-8.459
			C71.051,82.667,85.74,86.273,85.74,86.273"/>
		<path clip-path="url(#SVGID_7_)" fill="#FE9B8C" d="M63.528,92.341c-0.056,0.019-0.154,0.053-0.291,0.097
			C63.335,92.413,63.429,92.379,63.528,92.341"/>
		<polygon clip-path="url(#SVGID_7_)" fill="#8E3738" points="153.105,148.414 175.801,165.138 179.771,162.069 155.302,148.187 
			151.577,146.586 		"/>
		<polygon clip-path="url(#SVGID_7_)" fill="#8E3738" points="165.063,193.506 128.696,177.182 127.349,178.918 164.215,198.423 		
			"/>
		<path clip-path="url(#SVGID_7_)" fill="#E9AC5C" d="M216.647,175.267c6.047,7.665,2.355,23.914-10.198,33.818
			c-12.553,9.903-29.921,8.816-35.263,2.046c-7.745-9.817-3.846-25.805,8.707-35.708
			C192.448,165.52,208.903,165.449,216.647,175.267"/>
		<path clip-path="url(#SVGID_7_)" fill="#C98F49" d="M211.239,168.411c7.745,9.818,3.847,25.804-8.707,35.708
			c-12.555,9.903-29.009,9.973-36.754,0.156s-3.847-25.804,8.707-35.708C187.039,158.663,203.494,158.593,211.239,168.411"/>
		<path clip-path="url(#SVGID_7_)" fill="#E9AC5C" d="M209.153,165.766c7.745,9.817,3.846,25.804-8.708,35.708
			c-12.554,9.903-29.009,9.973-36.754,0.156c-3.852-4.883-3.846-25.805,8.708-35.708
			C184.952,156.018,205.665,161.345,209.153,165.766"/>
		<path clip-path="url(#SVGID_7_)" fill="#FFC78F" d="M206.157,163.33c6.967,8.832,2.735,23.786-9.453,33.401
			c-12.188,9.615-27.716,10.25-34.684,1.418c-6.968-8.832-2.735-23.786,9.453-33.401
			C183.661,155.133,199.189,154.499,206.157,163.33"/>
		<g opacity="0.4" clip-path="url(#SVGID_7_)">
			<g>
				<defs>
					<rect id="SVGID_1_" x="160.983" y="158.867" width="43.903" height="40.821"/>
				</defs>
				<clipPath id="SVGID_10_">
					<use xlink:href="#SVGID_1_"  overflow="visible"/>
				</clipPath>
				<path clip-path="url(#SVGID_10_)" fill="#FFC78F" d="M201.988,164.246c6.016,7.625,2.362,20.537-8.162,28.839
					c-10.523,8.302-23.931,8.85-29.946,1.224c-6.016-7.625-2.361-20.537,8.162-28.839
					C182.565,157.168,195.973,156.62,201.988,164.246"/>
			</g>
		</g>
		<path clip-path="url(#SVGID_7_)" fill="#383544" d="M181.9,215.86c-0.04,0-0.08-0.011-0.114-0.033l-8.712-5.587
			c-0.014-0.009-0.028-0.021-0.04-0.033l-7.561-8.06c-0.08-0.084-0.075-0.218,0.01-0.297c0.085-0.08,0.218-0.075,0.298,0.01
			l7.542,8.041l8.373,5.368l0.071-3.931c0.001-0.067,0.036-0.131,0.091-0.169c0.056-0.038,0.126-0.048,0.19-0.025l9.193,3.264
			l0.995-5.533c0.01-0.057,0.044-0.107,0.092-0.139c0.049-0.032,0.108-0.042,0.165-0.027l8.621,2.098l0.591-7.483
			c0.008-0.115,0.109-0.204,0.223-0.193l7.643,0.475l-0.311-8.074c-0.003-0.056,0.017-0.11,0.056-0.151
			c0.038-0.041,0.091-0.065,0.146-0.067l6.194-0.234l-1.702-8.635c-0.02-0.1,0.035-0.2,0.13-0.237l4.772-1.875l-4.351-7.736
			l-5.299-7.906c-0.064-0.096-0.038-0.227,0.058-0.292c0.097-0.065,0.228-0.04,0.292,0.058l5.307,7.919l4.478,7.96
			c0.03,0.053,0.036,0.116,0.016,0.173c-0.021,0.058-0.065,0.104-0.122,0.126l-4.834,1.899l1.716,8.705
			c0.012,0.061-0.003,0.123-0.042,0.171c-0.038,0.048-0.095,0.078-0.157,0.08l-6.23,0.235l0.313,8.096
			c0.002,0.06-0.021,0.117-0.063,0.159c-0.042,0.042-0.102,0.067-0.16,0.06l-7.669-0.477l-0.595,7.523
			c-0.005,0.062-0.036,0.118-0.086,0.154c-0.05,0.037-0.113,0.049-0.173,0.033l-8.643-2.104l-1,5.557
			c-0.011,0.061-0.048,0.113-0.102,0.145c-0.054,0.032-0.118,0.037-0.176,0.016l-9.151-3.249l-0.073,4.016
			c-0.001,0.076-0.044,0.146-0.111,0.182C181.968,215.852,181.934,215.86,181.9,215.86"/>
		<path clip-path="url(#SVGID_7_)" fill="#383544" d="M181.979,211.552c-0.063,0-0.125-0.028-0.166-0.08l-5.12-6.491
			c-0.072-0.091-0.057-0.224,0.035-0.295c0.092-0.072,0.224-0.057,0.296,0.035l5.121,6.491c0.072,0.091,0.056,0.224-0.035,0.296
			C182.07,211.537,182.025,211.552,181.979,211.552"/>
		<path clip-path="url(#SVGID_7_)" fill="#383544" d="M192.445,209.122c-0.063,0-0.125-0.027-0.166-0.08l-5.204-6.596
			c-0.072-0.091-0.056-0.224,0.035-0.296c0.092-0.072,0.224-0.056,0.296,0.035l5.204,6.596c0.072,0.091,0.056,0.224-0.035,0.295
			C192.536,209.107,192.491,209.122,192.445,209.122"/>
		<path clip-path="url(#SVGID_7_)" fill="#383544" d="M201.917,203.549c-0.063,0-0.125-0.027-0.166-0.08l-5.244-6.647
			c-0.072-0.091-0.057-0.224,0.035-0.295c0.091-0.072,0.223-0.056,0.295,0.035l5.244,6.647c0.072,0.091,0.057,0.224-0.035,0.295
			C202.008,203.535,201.962,203.549,201.917,203.549"/>
		<path clip-path="url(#SVGID_7_)" fill="#383544" d="M209.472,195.732c-0.063,0-0.124-0.027-0.166-0.08l-5.081-6.44
			c-0.072-0.091-0.056-0.224,0.035-0.296c0.092-0.072,0.224-0.056,0.296,0.035l5.08,6.44c0.072,0.091,0.057,0.224-0.035,0.296
			C209.563,195.717,209.517,195.732,209.472,195.732"/>
		<path clip-path="url(#SVGID_7_)" fill="#383544" d="M214.162,186.612c-0.063,0-0.124-0.028-0.166-0.08l-5.124-6.495
			c-0.072-0.091-0.056-0.225,0.035-0.296c0.092-0.071,0.224-0.056,0.296,0.035l5.124,6.496c0.072,0.091,0.057,0.224-0.035,0.295
			C214.253,186.597,214.207,186.612,214.162,186.612"/>
		<path clip-path="url(#SVGID_7_)" fill="#FE9B8C" d="M206.546,159.029c-0.125,1.282-0.237,2.784-2.27,3.083l-3.353-1.095
			l-1.162,0.424l-5.359-2.968l-5.37,1.095c0,0-1.802-2.2,1.815-5.768c3.617-3.566,10.297-2.864,13.125-0.512
			C206.621,155.491,206.709,157.372,206.546,159.029"/>
		<path clip-path="url(#SVGID_7_)" fill="#FE9B8C" d="M195.908,158.49c0,0,0.634,4.728,0.189,5.346s-1.653,0.915-2.457-0.235
			c-0.804-1.15-1.306-5.386-1.306-5.386s-0.333-1.754,1.31-2.121C195.286,155.728,195.823,157.807,195.908,158.49"/>
		<path clip-path="url(#SVGID_7_)" fill="#FE9B8C" d="M199.913,159.783c0,0,0.634,4.729,0.188,5.346
			c-0.445,0.618-1.654,0.915-2.458-0.235c-0.803-1.15-1.305-5.386-1.305-5.386s-0.372-2.118,1.431-2.368
			C199.572,156.89,199.913,159.783,199.913,159.783"/>
		<path clip-path="url(#SVGID_7_)" fill="#FE9B8C" d="M204.374,160.819c0,0-0.263,4.604-0.84,5.138
			c-0.577,0.535-2.052,1.206-2.625-0.106c-0.573-1.312-0.445-5.286-0.445-5.286s-0.07-1.913,1.42-2.203
			C203.374,158.071,204.291,159.237,204.374,160.819"/>
		<path clip-path="url(#SVGID_7_)" fill="#212123" d="M194.979,164.593h-0.011c-0.578-0.004-1.111-0.313-1.5-0.871
			c-0.825-1.18-1.322-5.307-1.342-5.482c-0.014-0.115,0.068-0.22,0.185-0.233c0.113-0.014,0.22,0.068,0.233,0.185
			c0.005,0.042,0.505,4.196,1.269,5.29c0.396,0.567,0.849,0.689,1.158,0.691h0.008c0.375,0,0.747-0.179,0.948-0.458
			c0.247-0.344,0.079-2.912-0.228-5.195c-0.015-0.115,0.066-0.221,0.181-0.237c0.115-0.015,0.221,0.065,0.237,0.181
			c0.108,0.803,0.622,4.844,0.151,5.498C195.986,164.351,195.493,164.593,194.979,164.593"/>
		<path clip-path="url(#SVGID_7_)" fill="#FE9B8C" d="M192.14,157.965c0,0,0.634,4.728,0.188,5.346
			c-0.445,0.618-1.653,0.915-2.457-0.235s-1.305-5.386-1.305-5.386s-0.333-1.754,1.309-2.12
			C191.518,155.202,192.055,157.282,192.14,157.965"/>
		<path clip-path="url(#SVGID_7_)" fill="#212123" d="M191.21,164.067h-0.011c-0.578-0.004-1.111-0.313-1.5-0.871
			c-0.825-1.18-1.322-5.307-1.342-5.482c-0.014-0.116,0.069-0.221,0.185-0.234c0.112-0.014,0.22,0.069,0.234,0.185
			c0.005,0.042,0.504,4.197,1.269,5.29c0.396,0.567,0.849,0.689,1.158,0.691h0.008c0.375,0,0.747-0.179,0.947-0.458
			c0.248-0.344,0.08-2.912-0.227-5.195c-0.016-0.116,0.065-0.221,0.181-0.237c0.115-0.015,0.221,0.065,0.237,0.181
			c0.108,0.803,0.621,4.844,0.151,5.498C192.218,163.825,191.725,164.067,191.21,164.067"/>
		<path clip-path="url(#SVGID_7_)" fill="#212123" d="M198.983,165.886h-0.012c-0.578-0.004-1.111-0.313-1.5-0.871
			c-0.826-1.18-1.322-5.307-1.343-5.482c-0.013-0.116,0.069-0.221,0.185-0.234c0.114-0.016,0.22,0.068,0.234,0.185
			c0.005,0.042,0.504,4.196,1.269,5.29c0.396,0.567,0.849,0.689,1.158,0.691c0.372,0.001,0.753-0.177,0.956-0.458
			c0.248-0.344,0.079-2.912-0.228-5.195c-0.015-0.116,0.066-0.222,0.181-0.237c0.116-0.016,0.221,0.065,0.237,0.181
			c0.107,0.803,0.621,4.844,0.15,5.497C199.99,165.644,199.497,165.886,198.983,165.886"/>
		<path clip-path="url(#SVGID_7_)" fill="#212123" d="M202,166.822c-0.102,0-0.203-0.009-0.302-0.03
			c-0.438-0.091-0.777-0.387-0.982-0.857c-0.585-1.34-0.467-5.212-0.462-5.376c0.004-0.116,0.112-0.207,0.218-0.204
			c0.116,0.004,0.208,0.101,0.204,0.217c-0.001,0.04-0.121,3.942,0.427,5.195c0.152,0.349,0.375,0.55,0.682,0.613
			c0.585,0.123,1.296-0.289,1.606-0.577c0.355-0.329,0.666-3.12,0.774-4.996c0.006-0.117,0.112-0.207,0.222-0.198
			c0.116,0.006,0.205,0.106,0.198,0.222c-0.044,0.784-0.299,4.718-0.907,5.282C203.342,166.422,202.661,166.822,202,166.822"/>
		<path clip-path="url(#SVGID_7_)" fill="#383544" d="M58.63,238.887c-0.063,0-0.126-0.029-0.168-0.083l-8.972-11.87
			c-0.071-0.093-0.052-0.225,0.041-0.295c0.092-0.07,0.225-0.052,0.295,0.041l8.972,11.869c0.07,0.093,0.052,0.225-0.041,0.295
			C58.719,238.873,58.674,238.887,58.63,238.887"/>
		<path clip-path="url(#SVGID_7_)" fill="#383544" d="M123.836,320.659c-0.034,0-0.068-0.008-0.1-0.025
			c-0.102-0.056-0.14-0.184-0.085-0.286c0.094-0.174,2.336-4.279,5.43-5.42c3.001-1.109,3.881-1.521,3.889-1.525
			c0.104-0.049,0.23-0.005,0.281,0.101c0.049,0.105,0.005,0.231-0.101,0.281c-0.035,0.016-0.896,0.421-3.924,1.538
			c-2.942,1.086-5.183,5.185-5.205,5.226C123.983,320.619,123.911,320.659,123.836,320.659"/>
	</g>
</g>
</svg>
