<svg xmlns="http://www.w3.org/2000/svg" width="636px" height="611px"><path d="M355.104 137.688h-3.719v-1.071h2.646v-6.398h-.906v-1.072h1.979zM339.824 137.688h-3.717v-8.541h15.827v1.072H337.18v6.398h2.644z"/><path d="M351.92 129.683h-1.07v-3.579h-10.491v3.579h-1.07v-4.65h12.631zM351.92 141.152h-12.631v-6.192h1.07v5.121h10.491v-4.585h-9.825v-1.071h10.895z"/><path d="M342.365 136.802h6.48v.643h-6.48zM342.365 138.132h6.48v.643h-6.48zM349.947 131.265h1.061v.857h-1.061zM351.762 131.265h1.061v.857h-1.061z"/><path fill="none" stroke="#333" d="M56.252 29.519h4.822v-7.164h2.367l-7.189-7.522-7.188 7.522h2.368v7.164h4.82"/><g fill="#FFF" stroke="#000"><path d="M258.319 171.773h-.978v1.012a1.012 1.012 0 11-2.024 0v-1.012h-4.798v1.012a1.013 1.013 0 01-2.023 0v-1.012h-.979a2.022 2.022 0 00-2.022 2.023v8.498c0 1.118.906 2.023 2.022 2.023h10.802a2.022 2.022 0 002.023-2.023v-8.498a2.022 2.022 0 00-2.023-2.023z"/><path stroke-linecap="round" stroke-linejoin="round" d="M249.508 169.75a1.01 1.01 0 00-1.011 1.011v2.023a1.012 1.012 0 102.023 0v-2.023c0-.558-.454-1.011-1.012-1.011zM256.33 169.75c-.559 0-1.012.453-1.012 1.011v2.023a1.012 1.012 0 102.024 0v-2.023c0-.558-.453-1.011-1.012-1.011z"/></g><g fill="#FFF" stroke="#000"><path d="M249.419 176.33h1.301M249.419 178.849h1.301M249.419 181.369h1.301"/></g><path fill="#FFF" stroke="#000" d="M252.268 176.33h1.302"/><path fill="#F8B8BA" stroke="#EE4445" d="M252.268 178.849h1.302"/><path fill="#FFF" stroke="#000" d="M252.268 181.369h1.302"/><g fill="#FFF" stroke="#000"><path d="M255.118 176.33h1.3M255.118 178.849h1.3M255.118 181.369h1.3"/></g><path fill="#409CD6" d="M406.297 170.648c.008-.013.02-.025.027-.038-.711.315-1.467.544-2.252.688a9.004 9.004 0 01-.566.068 5.007 5.007 0 001.863-2.054c.109-.212.217-.424.299-.648-.01.005-.02.009-.029.016.004-.014.012-.025.016-.039a9.901 9.901 0 01-3.16 1.208 4.97 4.97 0 00-3.633-1.571 4.977 4.977 0 00-4.977 4.977c0 .357.043.706.113 1.042.006.031.008.06.012.091a14.112 14.112 0 01-9.316-4.162 14.14 14.14 0 01-.914-1.024c0 .003-.002.005-.004.007-.006-.006-.012-.012-.018-.021a4.962 4.962 0 00.89 6.116c.189.187.393.366.611.525a4.952 4.952 0 01-2.217-.619v.063c0 2.005 1.195 3.719 2.904 4.508.33.159.676.294 1.045.381-.406.106-.83.165-1.268.165a4.82 4.82 0 01-.828-.079c-.027-.007-.059-.009-.084-.019 0 .004.002.007.004.011-.01-.002-.02-.001-.029-.003a4.987 4.987 0 003.852 3.377c.254.051.512.083.775.094a9.979 9.979 0 01-6.158 2.115c-.324 0-.641-.026-.955-.057-.072-.012-.146-.017-.219-.035l.043.025-.057-.003a14.095 14.095 0 007.629 2.235c5.057 0 8.84-2.32 11.221-5.5l.025-.031c.227-.306.436-.621.639-.94.041-.066.086-.128.127-.194.186-.306.352-.62.514-.936.041-.079.088-.154.127-.233a15.745 15.745 0 00.518-1.186c.65-1.681.988-3.442.988-5.137 0-.216-.004-.43-.014-.644a10.125 10.125 0 002.047-1.983c.152-.187.305-.375.447-.569a.243.243 0 00-.038.013z"/><linearGradient id="a" gradientUnits="userSpaceOnUse" x1="458.3438" y1="180.7324" x2="469.8047" y2="180.7324"><stop offset="0" stop-color="#516ab1"/><stop offset="1" stop-color="#3e519f"/></linearGradient><path fill-rule="evenodd" clip-rule="evenodd" fill="url(#a)" d="M465.902 175.824v-1.973c0-.944.637-1.171 1.09-1.171h2.752v-4.211h-3.801c-4.211 0-5.156 3.123-5.156 5.136v2.219h-2.443v4.909h2.465v12.263h4.908v-12.263h3.637l.164-1.931.287-2.978h-3.903z"/><path fill="#FD0" d="M316.891 168.744c-6.256 0-11.328 4.691-11.328 10.478 0 4.274 1.791 6.315 4.242 8.175l.012.005v5.016c0 .237.271.372.461.231l4.295-3.191.094.04c.719.134 1.463.204 2.225.204 6.258 0 11.328-4.692 11.328-10.479-.001-5.788-5.072-10.479-11.329-10.479m-3.797 13.132c1.111 0 2.061-.665 2.348-1.691h1.641c-.4 1.977-1.939 3.271-3.988 3.271-2.381 0-4.268-1.775-4.268-4.247 0-2.471 1.887-4.247 4.268-4.247 2.069 0 3.619 1.321 4 3.333h-1.637c-.25-1.093-1.232-1.774-2.363-1.774-1.601 0-2.666 1.142-2.666 2.689-.001 1.548 1.21 2.666 2.665 2.666m10.822 1.418h-1.506v-3.395c0-.782-.453-1.203-1.154-1.203-.781 0-1.283.479-1.283 1.447v3.15h-1.506v-8.305h1.506v3.125c.361-.549.945-.817 1.738-.817.643 0 1.168.21 1.574.642.422.432.631 1.015.631 1.773v3.583z"/><path fill="#7401B8" d="M18.665 54.521a8.453 8.453 0 00-5.966-2.614 8.513 8.513 0 00-7.571 4.301.852.852 0 001.479.843 6.809 6.809 0 016.058-3.442 6.758 6.758 0 014.771 2.091 6.762 6.762 0 011.897 4.854 6.763 6.763 0 01-2.09 4.772 6.764 6.764 0 01-4.854 1.897 6.809 6.809 0 01-5.909-3.675.85.85 0 10-1.511.784 8.51 8.51 0 007.386 4.593 8.451 8.451 0 006.066-2.371 8.454 8.454 0 002.613-5.965 8.444 8.444 0 00-2.369-6.068zM8.6 60.75v1.167a.567.567 0 101.134 0V60.75h.699v1.546a.568.568 0 001.135 0V60.75h.715a.567.567 0 000-1.135H5.251a2.683 2.683 0 00-2.572-1.938A2.68 2.68 0 000 60.354a2.682 2.682 0 002.679 2.679 2.68 2.68 0 002.646-2.284H8.6zm-5.921 1.148a1.545 1.545 0 01-1.544-1.544c0-.851.693-1.543 1.544-1.543.851 0 1.544.693 1.544 1.543 0 .852-.693 1.544-1.544 1.544z"/><g fill="none" stroke="#7401B8" stroke-width="2" stroke-linecap="round" stroke-linejoin="round"><path d="M16.168 98.774a5.935 5.935 0 10-8.394 0l4.197 4.196 4.197-4.196z"/><circle cx="11.972" cy="94.241" r="2.282"/><path d="M7.979 104.452h7.985"/></g><g fill="#FFF"><path d="M298.436 346.23l-1.5-.051a7.251 7.251 0 015.833-6.877l.299 1.469a5.757 5.757 0 00-4.632 5.459zM298.04 353.395l-1.418-.488c.333-.963.317-1.586.317-1.594-.004-.08-.006-1.828-.007-3.281h1.5s.002 3.053.006 3.23c.004.076.029.896-.398 2.133zM311.543 352.877h-1.5v-6.455c0-2.955-2.316-5.479-5.275-5.742l.133-1.494c3.787.338 6.643 3.449 6.643 7.236v6.455zM301.167 352.877h-1.5v-5.621c0-.346.037-.695.11-1.037l1.467.313c-.051.24-.077.484-.077.725v5.62z"/><path d="M308.443 354.375l-1.367-.617c.408-.902.498-2.125.498-2.52v-3.797c0-1.965-1.406-3.504-3.203-3.504a3.172 3.172 0 00-2.654 1.459l-1.256-.82c.877-1.34 2.338-2.139 3.911-2.139 2.639 0 4.703 2.197 4.703 5.004v3.797c-.001.073-.007 1.758-.632 3.137z"/><path d="M303.348 353.461l-1.365-.621c.373-.82.359-2.123.324-2.555l-.004-2.746c0-1.055.93-1.914 2.072-1.914 1.145 0 2.074.859 2.074 1.914v1.201h-1.5v-1.201c0-.225-.262-.414-.574-.414-.311 0-.572.189-.572.414v2.682c.004.015.158 1.888-.455 3.24z"/><path d="M305.701 354.369l-1.373-.605c.502-1.141.729-2.533.604-3.725l1.492-.156c.15 1.439-.119 3.117-.723 4.486z"/><path d="M305.865 366.84h-25.771v-39.684h25.771v9.332h-2.5v-6.832h-20.771v34.684h20.771v-6.776h2.5z"/><path d="M282.559 331.93h22.056v1.5h-22.056zM282.559 360h22.056v1.5h-22.056zM294.083 362.916a1.103 1.103 0 11-1.104-1.102c.609 0 1.104.493 1.104 1.102z"/></g><g fill="#FFF"><path d="M342.832 367.106a1.248 1.248 0 01-1.25-1.25V342.62c0-.512.311-.971.785-1.161l8.605-3.444a1.249 1.249 0 011.715 1.16v22.809c0 .492-.287.938-.736 1.141l-8.607 3.873a1.265 1.265 0 01-.512.108zm1.25-23.64v20.458l6.105-2.748v-20.153l-6.105 2.443z"/><path d="M360.5 366.247c-.133 0-.266-.021-.395-.064l-9.063-3.013a1.25 1.25 0 01-.855-1.187v-22.809a1.25 1.25 0 012.5 0v21.907l6.563 2.182v-14.417a1.25 1.25 0 112.5 0v16.15a1.25 1.25 0 01-1.25 1.251zM378.168 367.106a1.25 1.25 0 01-.512-.109l-8.607-3.873a1.249 1.249 0 01-.736-1.141v-22.809a1.249 1.249 0 011.715-1.16l8.605 3.444c.475.19.785.649.785 1.161v23.236c0 .425-.215.82-.57 1.051a1.24 1.24 0 01-.68.2zm-7.355-5.93l6.105 2.748v-20.458l-6.105-2.443v20.153z"/><path d="M360.5 366.247c-.26 0-.516-.081-.732-.236a1.254 1.254 0 01-.518-1.014v-15.453a1.25 1.25 0 012.5 0v13.72l6.563-2.182v-21.907a1.25 1.25 0 012.5 0v22.809c0 .539-.346 1.017-.855 1.187l-9.063 3.013a1.274 1.274 0 01-.395.063zM360.5 345.241l-5.215-5.806a7.696 7.696 0 01-2.473-5.634c0-4.238 3.449-7.688 7.688-7.688s7.688 3.449 7.688 7.688c0 2.132-.9 4.182-2.473 5.634l-5.215 5.806zm0-16.627a5.195 5.195 0 00-5.188 5.188c0 1.449.621 2.845 1.703 3.828l.088.09 3.396 3.78 3.486-3.87a5.188 5.188 0 001.701-3.828 5.19 5.19 0 00-5.186-5.188z"/><path d="M359.25 331.993h2.5v3.373h-2.5z"/></g><g fill="#FFF"><path d="M426.369 345.412h2.764v2.5h-2.764zM432.736 345.412h2.764v2.5h-2.764zM439.104 345.412h2.764v2.5h-2.764z"/><path d="M450.17 360.447h-40.268v-8.805l.879-.273c1.934-.598 3.232-2.346 3.232-4.346s-1.299-3.746-3.232-4.346l-.879-.273v-8.803h47.689v8.748l-.973.221c-2.1.475-3.564 2.307-3.564 4.453s1.465 3.979 3.563 4.453l.975.221v7.5h-2.5v-5.576a7.022 7.022 0 01-4.537-6.598 7.026 7.026 0 014.537-6.598v-4.324h-42.689v4.523a7.022 7.022 0 014.111 6.398 7.019 7.019 0 01-4.111 6.398v4.525h37.768v2.502z"/></g><path fill="#333" d="M422.008 124.997h-1.012v.006h-9.998v-.004h-.996v5.978h.996V126h9.998v10.007h-3.674v-.021h-1.318v-3.996h-1.037v5.002h1.037v-.008h1.002v.019h4.988v-.009h.014V126h.037v-.997h-.037v-.006zm2.017-2.995v.003h-6.023v.971h6.023v5.995h.971v-6.969h-.971zm-18.011 13.959h.977v-3.971h-.977v3.971zm.99 1.029h.994v-1.004h-.994v1.004zm6.041-3.043h-.021v-.954h-1.059v.954h-.971v-.968h.941v-.967h-.941v-.021h-.998v5.001h.998v-1.943h1.01v.941h.994v-.941h.047v-1.102zm-5.031 2.014h.977v-3.971h-.977v3.971zm4.99 1.029h.994v-1.004h-.994v1.004zM507.096 132.468c0-.506-.063-.996-.172-1.469h-2.111c.162.464.268.955.268 1.474a4.513 4.513 0 11-4.512-4.512c.897 0 1.729.27 2.432.722v-2.275a6.5 6.5 0 00-2.438-.475 6.535 6.535 0 000 13.069 6.505 6.505 0 004.545-1.846l4.824 4.825 1.025-1.024-4.924-4.924a6.498 6.498 0 001.063-3.565zm1.904-5.499V124h-1v2.969h-3v1h3V131h1v-3.031h3v-1h-3zM589.096 132.468c0-.506-.063-.996-.172-1.469h-2.111c.162.464.268.955.268 1.474a4.513 4.513 0 11-4.512-4.512c.897 0 1.729.27 2.432.722v-2.275a6.5 6.5 0 00-2.438-.475 6.535 6.535 0 000 13.069 6.505 6.505 0 004.545-1.846l4.824 4.824 1.025-1.024-4.924-4.924a6.492 6.492 0 001.063-3.564zM587 126.969v1h7v-1h-7z"/><text transform="matrix(1 0 0 .7 100 452)" fill="#333" font-family="'NotoSansCJKkr-Light-KSCpc-EUC-H'" font-size="36">x</text><g fill="none" stroke="#333"><circle cx="271.25" cy="126.583" r="2.75"/><circle cx="271.25" cy="135.917" r="2.75"/><circle cx="260" cy="131" r="2.75"/><path d="M262.584 130l5.916-2.5M262.834 132l5.666 3.083"/></g><path fill="none" stroke="#FFF" d="M27 261.469h18.938M27.313 261.625l5.546-5.547M27.406 261.344l5.266 5.265"/><path fill="none" stroke="#333" d="M98.75 261.469h18.938M99.063 261.625l5.546-5.547M99.156 261.344l5.266 5.265M116.688 351.719H97.75M116.375 351.875l-5.547-5.547M116.281 351.594l-5.265 5.265"/><path fill="none" stroke="#7401B8" d="M193.188 351.719H174.25M192.875 351.875l-5.547-5.547M192.781 351.594l-5.265 5.265"/><path fill="none" stroke="#FFF" d="M44.938 351.719H26M44.625 351.875l-5.547-5.547M44.531 351.594l-5.265 5.265"/><circle fill="none" stroke="#FFF" stroke-width="2.5" cx="38.25" cy="163.083" r="8"/><path fill="none" stroke="#FFF" stroke-width="2.5" d="M42.193 169.58l5.698 6.757"/><circle fill="none" stroke="#000" stroke-width="2.5" cx="169.25" cy="162.583" r="8"/><path fill="none" stroke="#000" stroke-width="2.5" d="M173.193 169.08l5.698 6.757"/><g><path fill="#3B3E3C" d="M9.984 27.01H3v-6.968h3.016v-1H1.984v8.984h9V24.01h-1z"/><path fill="#3B3E3C" d="M8 28.995H1.016v-7.969H0v8.984h9v-1.031H8zM8.008 18.09v1.015h2.263L8.16 21.229l.72.715 2.112-2.124v2.285h1V18.09z"/></g><g fill="none" stroke="#7401B8" stroke-linecap="round" stroke-linejoin="round" stroke-miterlimit="10"><ellipse cx="182.474" cy="60.817" rx="5.032" ry="7.254"/><path d="M175.077 60.995h14.634M182.474 53.398v14.736M187.844 65.927a7.385 7.385 0 00.112-10.096c-1.215.962-3.239 1.594-5.535 1.594-2.257 0-4.25-.61-5.47-1.547a7.385 7.385 0 00.109 10.001c1.229-.889 3.169-1.467 5.361-1.467 2.228-.001 4.199.597 5.423 1.515z"/><path d="M187.955 55.831a7.39 7.39 0 00-11.006.046c1.221.938 3.214 1.548 5.471 1.548 2.295 0 4.32-.632 5.535-1.594zM182.474 68.235a7.39 7.39 0 005.37-2.309c-1.225-.916-3.195-1.516-5.424-1.516-2.191 0-4.131.578-5.361 1.468a7.387 7.387 0 005.415 2.357z"/></g><g fill="#FFF"><path d="M496.347 336.755h-2.882l3.532-3.53v-7.53h-6.505v4.835l-6.596 6.596a6.477 6.477 0 01-4.606 1.907h-1.484v6.506h1.484c2.662 0 5.2-.801 7.35-2.276h9.707a3.257 3.257 0 013.252 3.253c0 .896-.357 1.73-1.006 2.351l4.494 4.702a9.797 9.797 0 003.017-7.053c0-5.382-4.377-9.761-9.757-9.761zM510.569 365.089l-4.123-5.031a10.567 10.567 0 003.886-8.203v-2.088h6.507v2.088c0 5.146-2.285 9.97-6.27 13.234zM510.332 325.694h6.507v21.47h-6.507zM515.734 372.932l-4.599-4.602a3.227 3.227 0 01-2.374.952v.002h-13.893a2.103 2.103 0 01-2.101-2.101v-13.365h-6.506v13.365c0 4.743 3.861 8.605 8.606 8.605h13.838v-.002l.125.002a9.811 9.811 0 006.904-2.856zM533.988 374.848l-4.122-5.032a10.569 10.569 0 003.887-8.202v-2.739h6.504v2.739c0 5.146-2.284 9.97-6.269 13.234zM548.715 325.694h6.506v21.47h-6.506zM540.257 355.946h-6.504V337.73h-12.36v-6.504h18.864zM569.858 308.912v-3.708h-4.554v1.082h-13.012v-1.082h-4.554v3.057a9.347 9.347 0 01-3.436 7.254l2.885 3.523a13.874 13.874 0 004.861-8.196h13.393a13.877 13.877 0 004.967 8.847l2.887-3.522a9.352 9.352 0 01-3.437-7.255z"/><path d="M552.944 312.685h1.951v4.555h-1.951zM557.823 312.685h1.953v4.555h-1.953zM562.376 312.685h1.952v4.555h-1.952z"/><g><path d="M507.528 309.901h-.624v2.602h.624a5.363 5.363 0 003.821-1.584l2.721-2.72h2.575v-2.601h-9.891v2.601h3.636l-.88.881a2.823 2.823 0 01-1.982.821z"/><circle cx="514.318" cy="311.065" r="1.881"/><path d="M519.766 310.554v1.33h2.603v-6.535h-2.603v2.293c-.113-.013-.225-.034-.343-.034h-1.515v2.602h1.515c.189 0 .343.154.343.344zM520.629 317.464a1.5 1.5 0 01-1.104.443v.002h-8.759a1.24 1.24 0 01-1.238-1.241v-2.044h-2.604v2.044a3.848 3.848 0 003.842 3.844h9v-.013a4.139 4.139 0 002.703-1.194l-1.84-1.841zM519.766 312.896c0 .676-.3 1.311-.823 1.738l1.646 2.013a4.825 4.825 0 001.779-3.751v-.536h-2.603v.536z"/><g><path d="M531.685 309.08a2.781 2.781 0 01-1.981.821h-2.575v2.602h2.575a5.366 5.366 0 003.822-1.584l2.721-2.72h3.876v-2.601H526.98v2.601h5.588l-.883.881z"/><circle cx="537.144" cy="311.065" r="1.884"/><path d="M540.254 314.202a1.494 1.494 0 01-1.028.438H525.37v2.604h7.273v4.225h2.602v-4.225h4.363v-.018a4.147 4.147 0 002.485-1.182l-1.839-1.842z"/></g></g><g><path d="M483.963 388.846a3.721 3.721 0 01-1.762-.442l.28-.602c.451.244.952.387 1.494.401.638.014 1.166-.287 1.166-.787 0-.459-.298-.714-.763-.858l-.846-.26c-.838-.256-1.289-.693-1.289-1.487 0-.779.723-1.374 1.747-1.374.651 0 1.194.143 1.633.394l-.296.594a2.93 2.93 0 00-1.337-.342c-.53 0-.973.27-.995.729-.021.465.286.752.708.881l.773.228c.831.259 1.41.617 1.41 1.482.002.894-.792 1.458-1.923 1.443zM489.502 387.31l-.846-1.655-.484-1.045v4.166h-.718v-5.267h.901l1.288 2.541.244.577.243-.577 1.288-2.541h.902v5.267h-.716v-4.166l-.486 1.045-.845 1.655h-.771zM496.751 387.322h-1.791l-.484 1.453h-.788l1.804-5.267h.73l1.804 5.267h-.789l-.486-1.453zm-.208-.614l-.537-1.812-.149-.63-.15.63-.538 1.812h1.374zM501.897 386.479l1.208 2.297h-.744l-1.183-2.233h-1.06v2.233h-.729v-5.267h1.897c1.093 0 1.673.543 1.673 1.53.002.788-.361 1.274-1.062 1.44zm-1.778-.538h1.118c.622 0 .993-.294.993-.902 0-.607-.371-.901-.993-.901h-1.118v1.803zM506.317 384.138v4.638h-.736v-4.638h-1.596v-.629h3.922v.629h-1.59zM514.132 384.138v4.638h-.736v-4.638H511.8v-.629h3.923v.629h-1.591zM518.783 388.846c-1.425 0-2.068-1.079-2.068-2.704s.644-2.705 2.068-2.705 2.068 1.08 2.068 2.705-.643 2.704-2.068 2.704zm0-.643c.952 0 1.324-.802 1.324-2.062 0-1.258-.372-2.06-1.324-2.06-.951 0-1.324.802-1.324 2.06 0 1.26.373 2.062 1.324 2.062zM526.334 387.101c0 1.088-.786 1.745-1.927 1.745-1.138 0-1.919-.657-1.919-1.745v-3.592h.739v3.392c0 .772.351 1.303 1.18 1.303.831 0 1.189-.53 1.189-1.303v-3.392h.737v3.592zM530.654 386.479l1.211 2.297h-.744l-1.181-2.233h-1.061v2.233h-.73v-5.267h1.897c1.096 0 1.676.543 1.676 1.53.001.788-.366 1.274-1.068 1.44zm-1.774-.538h1.117c.622 0 .995-.294.995-.902 0-.607-.373-.901-.995-.901h-1.117v1.803zM533.303 388.775v-5.267h.736v5.267h-.736zM537.418 388.846a3.701 3.701 0 01-1.76-.442l.277-.602c.453.244.953.387 1.496.401.638.014 1.166-.287 1.166-.787 0-.459-.3-.714-.766-.858l-.844-.26c-.839-.256-1.289-.693-1.289-1.487 0-.779.723-1.374 1.747-1.374.651 0 1.195.143 1.632.394l-.293.594a2.945 2.945 0 00-1.339-.342c-.529 0-.974.27-.994.729-.022.465.286.752.709.881l.771.228c.83.259 1.41.617 1.41 1.482.002.894-.793 1.458-1.923 1.443zM542.957 387.31l-.845-1.655-.487-1.045v4.166h-.716v-5.267h.902l1.288 2.541.242.577.245-.577 1.288-2.541h.902v5.267h-.717v-4.166l-.485 1.045-.846 1.655h-.771zM550.348 386.142c0-1.546.466-2.705 2.068-2.705.578 0 1.118.179 1.581.473l-.278.543a2.68 2.68 0 00-1.303-.37c-1.065 0-1.316.972-1.316 2.06 0 1.087.251 2.062 1.316 2.062.495 0 1.046-.215 1.424-.474l.279.545c-.466.388-1.11.571-1.703.571-1.603-.001-2.068-1.158-2.068-2.705zM555.6 388.775v-5.267h.738v5.267h-.738zM560.109 384.138v4.638h-.737v-4.638h-1.597v-.629h3.922v.629h-1.588zM566.063 383.509h.803l-1.742 3.118v2.148h-.728v-2.148l-1.74-3.118h.802l1.303 2.41 1.302-2.41z"/></g><g><path d="M540.697 377.457c0 1.117-.443 1.632-1.481 1.632a2.6 2.6 0 01-1.382-.423l.329-.572c.302.201.652.351 1.011.351.578 0 .795-.4.795-1.06v-3.636h.729v3.708zM545.822 378.387v.631h-2.777a.315.315 0 01-.173-.058 2.813 2.813 0 01-.292-.287.322.322 0 01-.066-.186v-4.738h3.201v.632h-2.469v1.609h2.159v.63h-2.159v1.617a.14.14 0 00.148.149h2.428zM549.135 379.089c-1.425 0-2.069-1.08-2.069-2.705 0-1.624.645-2.705 2.069-2.705s2.067 1.081 2.067 2.705c0 1.625-.643 2.705-2.067 2.705zm0-.645c.952 0 1.324-.802 1.324-2.061 0-1.26-.372-2.062-1.324-2.062s-1.324.802-1.324 2.062c0 1.26.372 2.061 1.324 2.061zM555.962 378.037v-4.288h.73v5.269h-.924l-1.927-3.722-.221-.564v4.286h-.729v-5.269h.922l1.925 3.722.224.566zM561.105 377.457c0 1.117-.441 1.632-1.479 1.632-.46 0-1.011-.163-1.383-.423l.328-.572c.303.201.652.351 1.014.351.576 0 .792-.4.792-1.06v-3.636h.729v3.708zM566.767 377.344c0 1.086-.787 1.745-1.925 1.745s-1.918-.659-1.918-1.745v-3.595h.736v3.393c0 .773.351 1.303 1.182 1.303.83 0 1.187-.529 1.187-1.303v-3.393h.738v3.595z"/></g><path d="M548.715 350.092h6.506V360.5h-6.506z"/><g><path d="M577.341 363.104v16.263a3.257 3.257 0 01-3.254 3.252v6.506c5.381 0 9.759-4.377 9.759-9.758v-16.263h-6.505zM601.607 357.317l-4.599-4.601a3.238 3.238 0 01-2.376.953l-4.884-.001v.002h-29.323v6.505h34.152v-.001l.126.001a9.799 9.799 0 006.904-2.858zM585.472 333.502h-12.687c-4.482 0-8.132 3.647-8.132 8.132s3.649 8.133 8.132 8.133h16.59v-.001l.061.001a9.81 9.81 0 006.904-2.857l-4.6-4.602a3.28 3.28 0 01-2.374.953v.001h-16.581a1.628 1.628 0 010-3.254h12.687c4.483 0 8.131-3.647 8.131-8.132 0-4.483-3.647-8.131-8.131-8.131h-18.54v6.506h18.54a1.626 1.626 0 010 3.251z"/></g></g><path fill="none" stroke="#000" d="M507.501 187.75l13.416-13.333M508.084 174.083L521.751 188"/><g fill="#FFF" stroke="#FFF"><path d="M91.559 132.525v-1.206l7.254-5.058v1.638l-5.832 4.05 5.832 3.816v1.656l-7.254-4.896zM117.19 137.421v-1.656l5.832-3.816-5.832-4.05v-1.638l7.254 5.058v1.206l-7.254 4.896z"/></g></svg>