<svg xmlns="http://www.w3.org/2000/svg" width="130" height="37" viewBox="-0.434 -0.915 130 37"><defs/><path fill="#FFF" d="M17.114.864v30.38H0V.864h6.045v12.325h5.221V.864h5.848zm-5.848 28.104V15.465H6.045v13.502h5.221zm15.936 5.652h-4.71c-.89 0-1.334-.445-1.334-1.335V.079h6.044V34.62zM50.203 3.533h-5.456v2.276c0 1.57.183 2.912.55 4.023.366 1.113.883 2.081 1.55 2.905a9.8 9.8 0 002.395 2.12 25.558 25.558 0 003.121 1.668l-1.06 1.884c-2.303-.601-4.22-1.426-5.75-2.473s-2.806-2.277-3.827-3.69c-1.125 1.78-2.434 3.278-3.925 4.495-1.492 1.216-3.297 2.165-5.417 2.845l-1.099-1.883a16.587 16.587 0 002.728-1.629 10.28 10.28 0 002.316-2.375c.667-.942 1.203-2.061 1.609-3.356.405-1.295.608-2.819.608-4.573V3.533H32.54V1.256h17.663v2.277zM34.777 33.442a25.836 25.836 0 004.18-1.767c1.269-.681 2.368-1.479 3.297-2.395a10.04 10.04 0 002.159-3.101c.51-1.151.766-2.446.766-3.886v-2.159h7.026v2.08c0 1.466.255 2.768.766 3.906a9.345 9.345 0 002.139 3.003c.916.863 2.008 1.615 3.277 2.257a24.615 24.615 0 004.181 1.629l-.746 1.923c-2.826-.681-5.358-1.675-7.595-2.982-2.237-1.31-4.063-2.826-5.476-4.554-1.387 1.937-3.186 3.559-5.397 4.867-2.212 1.309-4.822 2.329-7.831 3.062l-.746-1.883zm25.907-11.854h-4.671c-.603 0-1.008-.117-1.217-.353-.21-.236-.314-.615-.314-1.139V0h6.202v21.588zM78.19 3.533v1.688c0 3.219.641 5.875 1.923 7.968 1.282 2.094 3.153 3.886 5.613 5.376l-1.295 1.767c-2.382-.916-4.305-2.015-5.771-3.296-1.466-1.282-2.656-2.669-3.571-4.161a12.658 12.658 0 01-1.786 2.983 17.668 17.668 0 01-2.336 2.394 18.362 18.362 0 01-2.649 1.864 24.24 24.24 0 01-2.807 1.394l-1.256-1.806c2.591-1.596 4.494-3.479 5.711-5.652 1.217-2.172 1.825-4.71 1.825-7.615V3.533h-5.927V1.256h17.663v2.277H78.19zM76.542 32.54h17.663v1.962H71.518c-.654 0-1.079-.177-1.275-.529-.196-.354-.295-.792-.295-1.315v-10.05h6.595v9.932zm5.103-23.473h6.162V.039h6.202v24.807h-4.671c-.603 0-1.008-.117-1.217-.353-.21-.235-.314-.615-.314-1.139v-12.01h-6.162V9.067zM117.246 34.502h-5.535c-.863 0-1.295-.445-1.295-1.334v-9.46h-11.54v-2.276h29.91v2.276h-11.54v10.794zm-17.35-18.409c1.674-.497 3.16-1.171 4.455-2.021 1.295-.85 2.388-1.792 3.277-2.826.89-1.033 1.563-2.113 2.021-3.238.458-1.125.688-2.224.688-3.297V3.533h-9.067V1.256h25.121v2.277h-9.067v1.06c0 2.355.87 4.501 2.61 6.438 1.74 1.937 4.324 3.468 7.752 4.593l-1.099 2.158a22.456 22.456 0 01-7.281-2.904c-2.237-1.387-4.037-3.153-5.397-5.299-1.387 2.198-3.206 4.043-5.456 5.535a21.982 21.982 0 01-7.418 3.14l-1.139-2.161z"/></svg>