<svg xmlns="http://www.w3.org/2000/svg" width="40" height="50" viewBox="-0.93 -0.583 40 50"><defs/><path d="M11.742.516v18.141H1.523V.516h3.609v7.359H8.25V.516h3.492zM8.25 17.297V9.234H5.133v8.063H8.25zm9.516 3.375h-2.813c-.532 0-.797-.266-.797-.797V.047h3.609v20.625zM31.5 2.109h-3.258v1.359c0 .938.109 1.739.328 2.402.219.665.527 1.242.926 1.734s.875.914 1.43 1.266 1.176.684 1.863.996l-.633 1.125c-1.375-.359-2.52-.852-3.434-1.477a9.159 9.159 0 01-2.285-2.203c-.672 1.063-1.453 1.957-2.344 2.684s-1.969 1.293-3.234 1.699l-.656-1.125a9.915 9.915 0 001.629-.973c.523-.383.984-.855 1.383-1.418s.719-1.23.961-2.004.363-1.683.363-2.73V2.109h-3.586V.75H31.5v1.359zm-9.211 17.86a15.42 15.42 0 002.496-1.055c.758-.407 1.414-.883 1.969-1.43s.984-1.164 1.289-1.852c.305-.688.457-1.461.457-2.32v-1.289h4.195v1.242c0 .875.152 1.652.457 2.332s.73 1.277 1.277 1.793 1.199.964 1.957 1.348c.758.383 1.59.707 2.496.973l-.445 1.148c-1.688-.407-3.199-1-4.535-1.781-1.336-.782-2.426-1.688-3.27-2.719-.828 1.157-1.902 2.125-3.223 2.906-1.32.781-2.879 1.391-4.676 1.828l-.444-1.124zm15.469-7.078h-2.789c-.359 0-.602-.07-.727-.211s-.188-.367-.188-.68V0h3.703v12.891zM8.32 30.234v1.008c0 1.922.383 3.508 1.148 4.758.765 1.25 1.882 2.32 3.352 3.211l-.773 1.055c-1.422-.547-2.57-1.203-3.445-1.969s-1.586-1.594-2.133-2.484a7.546 7.546 0 01-1.066 1.781c-.43.531-.895 1.008-1.395 1.43-.5.422-1.028.793-1.582 1.113-.555.32-1.113.598-1.676.832L0 39.89c1.547-.953 2.684-2.078 3.41-3.375s1.09-2.813 1.09-4.547v-1.734H.961v-1.359h10.547v1.359H8.32zm-.984 17.32h10.547v1.172H4.336c-.391 0-.645-.105-.762-.316s-.176-.473-.176-.785v-6h3.938v5.929zm3.047-14.015h3.68v-5.391h3.703V42.96h-2.789c-.36 0-.602-.07-.727-.211s-.188-.367-.188-.68v-7.172h-3.68v-1.358zM31.641 48.726h-3.305c-.516 0-.773-.266-.773-.797v-5.648h-6.891v-1.359h17.859v1.359H31.64v6.445zm-10.36-10.992c1-.297 1.887-.699 2.66-1.207s1.426-1.07 1.957-1.688.934-1.262 1.207-1.934.41-1.328.41-1.969v-.703h-5.414v-1.359h15v1.359h-5.414v.633c0 1.406.52 2.688 1.559 3.844s2.582 2.07 4.629 2.742l-.656 1.289c-1.563-.328-3.012-.906-4.348-1.734s-2.41-1.883-3.223-3.164c-.828 1.313-1.914 2.414-3.258 3.305s-2.82 1.516-4.43 1.875l-.679-1.289z"/></svg>