<?xml version="1.0" encoding="utf-8"?>
<!-- Generator: Adobe Illustrator 13.0.0, SVG Export Plug-In  -->
<!DOCTYPE svg PUBLIC "-//W3C//DTD SVG 1.1//EN" "http://www.w3.org/Graphics/SVG/1.1/DTD/svg11.dtd" [
	<!ENTITY ns_flows "http://ns.adobe.com/Flows/1.0/">
]>
<svg version="1.1"
	 xmlns="http://www.w3.org/2000/svg" xmlns:xlink="http://www.w3.org/1999/xlink" xmlns:a="http://ns.adobe.com/AdobeSVGViewerExtensions/3.0/"
	 x="0px" y="0px" width="81px" height="66px" viewBox="-0.394 -0.846 81 66" enable-background="new -0.394 -0.846 81 66"
	 xml:space="preserve">
<defs>
</defs>
<rect x="76.022" y="45.71" transform="matrix(0.7071 0.7071 -0.7071 0.7071 56.0395 -40.969)" fill="#F7D979" width="2.903" height="2.903"/>
<path fill="#705699" d="M77.475,49.59c-0.096,0-0.192-0.037-0.266-0.11l-2.053-2.053c-0.146-0.146-0.146-0.384,0-0.53l2.051-2.055
	c0.07-0.07,0.166-0.109,0.266-0.109l0,0c0.1,0,0.195,0.039,0.266,0.109l2.055,2.055c0.146,0.146,0.146,0.384,0,0.53l-2.053,2.053
	C77.667,49.553,77.57,49.59,77.475,49.59z M75.952,47.161l1.522,1.522l1.522-1.521l-1.524-1.524L75.952,47.161z"/>
<rect x="15.427" y="1.131" transform="matrix(0.7074 0.7068 -0.7068 0.7074 6.7629 -11.1741)" fill="#6AD1EA" width="2.904" height="2.903"/>
<path fill="#705699" d="M16.88,5.166l-2.585-2.584L16.878,0l2.583,2.582L16.88,5.166z M15.355,2.582l1.524,1.523L18.4,2.582
	l-1.522-1.521L15.355,2.582z"/>
<path fill="#F58B93" d="M1.656,45.609H0.5c-0.276,0-0.5-0.225-0.5-0.5c0-0.277,0.224-0.5,0.5-0.5h1.156c0.276,0,0.5,0.223,0.5,0.5
	C2.156,45.385,1.933,45.609,1.656,45.609z"/>
<path fill="#F58B93" d="M4.867,45.609H3.713c-0.276,0-0.5-0.225-0.5-0.5c0-0.277,0.224-0.5,0.5-0.5h1.154c0.276,0,0.5,0.223,0.5,0.5
	C5.367,45.385,5.144,45.609,4.867,45.609z"/>
<path fill="#F58B93" d="M2.686,44.58c-0.276,0-0.5-0.225-0.5-0.5v-1.156c0-0.277,0.224-0.5,0.5-0.5s0.5,0.223,0.5,0.5v1.156
	C3.186,44.355,2.962,44.58,2.686,44.58z"/>
<path fill="#F58B93" d="M2.686,47.791c-0.276,0-0.5-0.225-0.5-0.5v-1.154c0-0.277,0.224-0.5,0.5-0.5s0.5,0.223,0.5,0.5v1.154
	C3.186,47.566,2.962,47.791,2.686,47.791z"/>
<g>
	<g>
		<path fill="#6AD1EA" d="M75.295,14.127h-1.156c-0.276,0-0.5-0.223-0.5-0.5c0-0.275,0.224-0.5,0.5-0.5h1.156
			c0.276,0,0.5,0.225,0.5,0.5C75.795,13.904,75.571,14.127,75.295,14.127z"/>
		<path fill="#6AD1EA" d="M78.504,14.127h-1.156c-0.276,0-0.5-0.223-0.5-0.5c0-0.275,0.224-0.5,0.5-0.5h1.156
			c0.276,0,0.5,0.225,0.5,0.5C79.004,13.904,78.78,14.127,78.504,14.127z"/>
		<path fill="#6AD1EA" d="M76.32,13.102c-0.276,0-0.5-0.223-0.5-0.5v-1.156c0-0.275,0.224-0.5,0.5-0.5s0.5,0.225,0.5,0.5v1.156
			C76.82,12.879,76.597,13.102,76.32,13.102z"/>
		<path fill="#6AD1EA" d="M76.32,16.313c-0.276,0-0.5-0.223-0.5-0.5v-1.156c0-0.275,0.224-0.5,0.5-0.5s0.5,0.225,0.5,0.5v1.156
			C76.82,16.09,76.597,16.313,76.32,16.313z"/>
	</g>
</g>
<path fill="#7452C6" d="M70.651,50.158c0,0.98-0.795,1.775-1.775,1.775h-52.53c-0.98,0-1.776-0.795-1.776-1.775V12.203
	c0-0.98,0.796-1.775,1.776-1.775h52.53c0.98,0,1.775,0.795,1.775,1.775V50.158z"/>
<path fill="#3C2163" d="M68.876,52.434h-52.53c-1.255,0-2.276-1.021-2.276-2.275V12.203c0-1.255,1.021-2.275,2.276-2.275h52.53
	c1.255,0,2.275,1.021,2.275,2.275v37.955C71.151,51.413,70.131,52.434,68.876,52.434z M16.346,10.928
	c-0.704,0-1.276,0.572-1.276,1.275v37.955c0,0.703,0.572,1.275,1.276,1.275h52.53c0.703,0,1.275-0.572,1.275-1.275V12.203
	c0-0.703-0.572-1.275-1.275-1.275H16.346z"/>
<rect x="35.483" y="51.934" fill="#7452C6" width="14.621" height="9.223"/>
<path fill="#3C2163" d="M50.604,61.656H34.983V51.434h15.621V61.656z M35.983,60.656h13.621v-8.223H35.983V60.656z"/>
<rect x="30.275" y="61.156" fill="#7452C6" width="24.671" height="3.01"/>
<path fill="#3C2163" d="M55.446,64.666H29.775v-4.01h25.671V64.666z M30.775,63.666h23.671v-2.01H30.775V63.666z"/>
<path fill="#FFFFFF" d="M67.741,50.158c0,0.98-0.795,1.775-1.775,1.775H13.437c-0.98,0-1.776-0.795-1.776-1.775V12.203
	c0-0.98,0.796-1.775,1.776-1.775h52.529c0.98,0,1.775,0.795,1.775,1.775V50.158z"/>
<path fill="#3C2163" d="M65.966,52.434H13.437c-1.255,0-2.276-1.021-2.276-2.275V12.203c0-1.255,1.021-2.275,2.276-2.275h52.529
	c1.255,0,2.275,1.021,2.275,2.275v37.955C68.241,51.413,67.221,52.434,65.966,52.434z M13.437,10.928
	c-0.704,0-1.276,0.572-1.276,1.275v37.955c0,0.703,0.572,1.275,1.276,1.275h52.529c0.703,0,1.275-0.572,1.275-1.275V12.203
	c0-0.703-0.572-1.275-1.275-1.275H13.437z"/>
<rect x="14.95" y="13.582" fill="#C3A1F3" width="49.867" height="34.131"/>
<path fill="#3C2163" d="M65.317,48.213H14.45V13.082h50.867V48.213z M15.45,47.213h48.867V14.082H15.45V47.213z"/>
<rect x="32.573" y="51.934" fill="#FFFFFF" width="14.621" height="9.223"/>
<path fill="#3C2163" d="M47.694,61.656H32.073V51.434h15.621V61.656z M33.073,60.656h13.621v-8.223H33.073V60.656z"/>
<rect x="27.366" y="61.156" fill="#FFFFFF" width="24.671" height="3.01"/>
<path fill="#3C2163" d="M52.537,64.666H26.866v-4.01h25.671V64.666z M27.866,63.666h23.671v-2.01H27.866V63.666z"/>
<path fill="#FFFFFF" d="M45.624,24.617c-0.407,0-0.736-0.33-0.736-0.738v-2.188c0-2.514-2.046-4.559-4.561-4.559
	c-2.514,0-4.561,2.045-4.561,4.559v2.188c0,0.408-0.329,0.738-0.736,0.738c-0.406,0-0.736-0.33-0.736-0.738v-2.188
	c0-3.326,2.707-6.033,6.033-6.033c3.327,0,6.033,2.707,6.033,6.033v2.188C46.36,24.287,46.03,24.617,45.624,24.617z"/>
<path fill="#3C2163" d="M45.624,24.992c-0.612,0-1.111-0.5-1.111-1.113v-2.188c0-2.307-1.878-4.184-4.186-4.184
	s-4.186,1.877-4.186,4.184v2.188c0,0.613-0.499,1.113-1.111,1.113s-1.111-0.5-1.111-1.113v-2.188c0-3.533,2.875-6.408,6.408-6.408
	s6.408,2.875,6.408,6.408v2.188C46.735,24.492,46.236,24.992,45.624,24.992z M40.327,16.758c2.722,0,4.936,2.214,4.936,4.934v2.188
	c0,0.2,0.162,0.363,0.361,0.363s0.361-0.163,0.361-0.363v-2.188c0-3.119-2.538-5.658-5.658-5.658s-5.658,2.539-5.658,5.658v2.188
	c0,0.2,0.162,0.363,0.361,0.363s0.361-0.163,0.361-0.363v-2.188C35.392,18.972,37.605,16.758,40.327,16.758z"/>
<path fill="#F7D979" d="M33.196,23.848c-0.653,1.174-1.027,2.521-1.027,3.959c0,4.504,3.652,8.158,8.158,8.158
	s8.159-3.654,8.159-8.158c0-1.438-0.374-2.785-1.026-3.959H33.196z"/>
<path fill="#3C2163" d="M40.327,36.34c-4.705,0-8.533-3.828-8.533-8.533c0-1.447,0.372-2.879,1.075-4.141
	c0.065-0.119,0.191-0.193,0.327-0.193H47.46c0.136,0,0.262,0.074,0.328,0.193c0.702,1.263,1.073,2.694,1.073,4.141
	C48.861,32.512,45.033,36.34,40.327,36.34z M33.42,24.223c-0.573,1.104-0.876,2.338-0.876,3.584c0,4.291,3.491,7.783,7.783,7.783
	s7.784-3.492,7.784-7.783c0-1.246-0.302-2.48-0.875-3.584H33.42z"/>
<path fill="#7452C6" d="M38.894,30.082c0,0.904,0.732,1.635,1.635,1.635c0.903,0,1.633-0.73,1.633-1.635
	c0-0.74-0.496-1.359-1.174-1.559v-2.375h-0.95v2.385C39.378,28.742,38.894,29.354,38.894,30.082z"/>
<path fill="#3C2163" d="M40.528,32.092c-1.108,0-2.01-0.9-2.01-2.01c0-0.779,0.449-1.473,1.144-1.803v-2.506h1.7v2.49
	c0.712,0.322,1.174,1.021,1.174,1.818C42.536,31.191,41.636,32.092,40.528,32.092z M40.412,26.523v2.285l-0.262,0.082
	c-0.527,0.168-0.882,0.646-0.882,1.191c0,0.695,0.565,1.26,1.26,1.26c0.693,0,1.258-0.564,1.258-1.26
	c0-0.558-0.363-1.039-0.904-1.198l-0.27-0.079v-2.281H40.412z"/>
<path fill="#FFFFFF" d="M53.522,41.58c0,2.029-1.645,3.674-3.675,3.674H29.919c-2.029,0-3.674-1.645-3.674-3.674l0,0
	c0-2.031,1.645-3.676,3.674-3.676h19.929C51.878,37.904,53.522,39.549,53.522,41.58L53.522,41.58z"/>
<g>
	<g>
		<rect x="31.673" y="40.037" fill="#3C2163" width="0.5" height="3.084"/>
		
			<rect x="31.673" y="40.037" transform="matrix(0.5429 0.8398 -0.8398 0.5429 49.5083 -7.8035)" fill="#3C2163" width="0.5" height="3.085"/>
		
			<rect x="30.38" y="41.329" transform="matrix(0.8396 0.5433 -0.5433 0.8396 27.7093 -10.6716)" fill="#3C2163" width="3.085" height="0.5"/>
	</g>
</g>
<g>
	<g>
		<rect x="36.979" y="40.037" fill="#3C2163" width="0.5" height="3.084"/>
		
			<rect x="36.979" y="40.037" transform="matrix(0.5429 0.8398 -0.8398 0.5429 51.9339 -12.2599)" fill="#3C2163" width="0.5" height="3.085"/>
		
			<rect x="35.687" y="41.329" transform="matrix(0.8396 0.5433 -0.5433 0.8396 28.5606 -13.5544)" fill="#3C2163" width="3.085" height="0.5"/>
	</g>
</g>
<g>
	<g>
		<rect x="42.286" y="40.037" fill="#3C2163" width="0.5" height="3.084"/>
		
			<rect x="42.287" y="40.037" transform="matrix(0.5429 0.8398 -0.8398 0.5429 54.3598 -16.7171)" fill="#3C2163" width="0.5" height="3.085"/>
		
			<rect x="40.995" y="41.329" transform="matrix(0.8396 0.5433 -0.5433 0.8396 29.4121 -16.4378)" fill="#3C2163" width="3.085" height="0.5"/>
	</g>
</g>
<g>
	<g>
		<rect x="47.595" y="40.037" fill="#3C2163" width="0.5" height="3.084"/>
		
			<rect x="47.595" y="40.037" transform="matrix(0.5429 0.8398 -0.8398 0.5429 56.7858 -21.1744)" fill="#3C2163" width="0.5" height="3.085"/>
		
			<rect x="46.302" y="41.329" transform="matrix(0.8396 0.5433 -0.5433 0.8396 30.2636 -19.3212)" fill="#3C2163" width="3.085" height="0.5"/>
	</g>
</g>
</svg>
