<?xml version="1.0" encoding="utf-8"?>
<!-- Generator: Adobe Illustrator 13.0.0, SVG Export Plug-In  -->
<!DOCTYPE svg PUBLIC "-//W3C//DTD SVG 1.1//EN" "http://www.w3.org/Graphics/SVG/1.1/DTD/svg11.dtd" [
	<!ENTITY ns_flows "http://ns.adobe.com/Flows/1.0/">
]>
<svg version="1.1"
	 xmlns="http://www.w3.org/2000/svg" xmlns:xlink="http://www.w3.org/1999/xlink" xmlns:a="http://ns.adobe.com/AdobeSVGViewerExtensions/3.0/"
	 x="0px" y="0px" width="89px" height="65px" viewBox="-0.59 -0.514 89 65" enable-background="new -0.59 -0.514 89 65"
	 xml:space="preserve">
<defs>
</defs>
<path fill="#7452C6" d="M70.823,51.373c0,1.495-1.212,2.708-2.708,2.708H16.734c-1.496,0-2.708-1.214-2.708-2.708V14.424
	c0-1.496,1.212-2.707,2.708-2.707h51.381c1.496,0,2.708,1.211,2.708,2.707V51.373z"/>
<path fill="#3C2163" d="M68.116,54.582H16.734c-1.769,0-3.208-1.439-3.208-3.208V14.424c0-1.769,1.439-3.207,3.208-3.207h51.381
	c1.769,0,3.208,1.438,3.208,3.207v36.949C71.323,53.142,69.884,54.582,68.116,54.582z M16.734,12.217
	c-1.217,0-2.208,0.99-2.208,2.207v36.949c0,1.218,0.99,2.208,2.208,2.208h51.381c1.217,0,2.208-0.991,2.208-2.208V14.424
	c0-1.217-0.99-2.207-2.208-2.207H16.734z"/>
<rect x="79.986" y="25.724" transform="matrix(0.7071 0.7071 -0.7071 0.7071 43.0688 -49.6257)" fill="#6AD1EA" width="2.903" height="2.904"/>
<path fill="#705699" d="M81.438,29.759l-2.583-2.583l2.583-2.584l2.583,2.584L81.438,29.759z M79.916,27.176l1.522,1.522
	l1.522-1.522l-1.522-1.523L79.916,27.176z"/>
<path fill="#F58B93" d="M57.369,3.184h-1.156c-0.276,0-0.5-0.224-0.5-0.5s0.224-0.5,0.5-0.5h1.156c0.276,0,0.5,0.224,0.5,0.5
	S57.646,3.184,57.369,3.184z"/>
<path fill="#F58B93" d="M60.579,3.184h-1.155c-0.276,0-0.5-0.224-0.5-0.5s0.224-0.5,0.5-0.5h1.155c0.276,0,0.5,0.224,0.5,0.5
	S60.855,3.184,60.579,3.184z"/>
<path fill="#F58B93" d="M58.396,2.156c-0.276,0-0.5-0.224-0.5-0.5V0.5c0-0.276,0.224-0.5,0.5-0.5s0.5,0.224,0.5,0.5v1.156
	C58.896,1.933,58.672,2.156,58.396,2.156z"/>
<path fill="#F58B93" d="M58.396,5.368c-0.276,0-0.5-0.224-0.5-0.5V3.712c0-0.276,0.224-0.5,0.5-0.5s0.5,0.224,0.5,0.5v1.156
	C58.896,5.145,58.672,5.368,58.396,5.368z"/>
<g>
	<g>
		<path fill="#6AD1EA" d="M1.656,36.105H0.5c-0.276,0-0.5-0.224-0.5-0.5s0.224-0.5,0.5-0.5h1.156c0.276,0,0.5,0.224,0.5,0.5
			S1.933,36.105,1.656,36.105z"/>
		<path fill="#6AD1EA" d="M4.867,36.105H3.711c-0.276,0-0.5-0.224-0.5-0.5s0.224-0.5,0.5-0.5h1.155c0.276,0,0.5,0.224,0.5,0.5
			S5.143,36.105,4.867,36.105z"/>
		<path fill="#6AD1EA" d="M2.684,35.077c-0.276,0-0.5-0.224-0.5-0.5v-1.155c0-0.276,0.224-0.5,0.5-0.5s0.5,0.224,0.5,0.5v1.155
			C3.184,34.853,2.96,35.077,2.684,35.077z"/>
		<path fill="#6AD1EA" d="M2.684,38.288c-0.276,0-0.5-0.224-0.5-0.5v-1.156c0-0.276,0.224-0.5,0.5-0.5s0.5,0.224,0.5,0.5v1.156
			C3.184,38.064,2.96,38.288,2.684,38.288z"/>
	</g>
</g>
<polygon fill="#FFFFFF" points="49.191,61.089 33.606,61.089 35.236,54.082 47.376,54.082 "/>
<path fill="#3C2163" d="M49.837,61.589H32.976l1.863-8.007h12.924L49.837,61.589z M34.236,60.589h14.309l-1.556-6.007H35.633
	L34.236,60.589z"/>
<rect x="30.01" y="61.089" fill="#FFFFFF" width="22.237" height="2.732"/>
<path fill="#3C2163" d="M52.747,64.321H29.51v-3.732h23.237V64.321z M30.51,63.321h21.237v-1.732H30.51V63.321z"/>
<rect x="22.278" y="1.233" transform="matrix(0.7068 0.7074 -0.7074 0.7068 8.8575 -16.0004)" fill="#F7D979" width="2.904" height="2.902"/>
<path fill="#705699" d="M23.73,5.113L23.73,5.113c-0.1,0-0.195-0.04-0.265-0.11l-2.053-2.055c-0.146-0.146-0.146-0.384,0-0.53
	l2.052-2.053c0.146-0.146,0.383-0.147,0.53,0l2.054,2.053c0.146,0.146,0.146,0.384,0,0.53l-2.053,2.055
	C23.925,5.074,23.83,5.113,23.73,5.113z M22.208,2.684l1.522,1.524l1.523-1.524l-1.524-1.522L22.208,2.684z"/>
<path fill="#C3A1F3" d="M10.769,46.048v5.325c0,1.495,1.213,2.708,2.709,2.708h51.381c1.496,0,2.707-1.214,2.707-2.708v-5.325
	H10.769z"/>
<path fill="#3C2163" d="M64.859,54.582H13.478c-1.77,0-3.209-1.439-3.209-3.208v-5.825h57.797v5.825
	C68.066,53.142,66.628,54.582,64.859,54.582z M11.269,46.548v4.825c0,1.218,0.991,2.208,2.209,2.208h51.381
	c1.217,0,2.207-0.991,2.207-2.208v-4.825H11.269z"/>
<path fill="#FFFFFF" d="M67.566,14.424c0-1.496-1.211-2.707-2.707-2.707H13.478c-1.496,0-2.709,1.211-2.709,2.707v31.624h56.797
	V14.424z"/>
<path fill="#3C2163" d="M68.066,46.548H10.269V14.424c0-1.769,1.439-3.207,3.209-3.207h51.381c1.769,0,3.207,1.438,3.207,3.207
	V46.548z M11.269,45.548h55.797V14.424c0-1.217-0.99-2.207-2.207-2.207H13.478c-1.218,0-2.209,0.99-2.209,2.207V45.548z"/>
<circle fill="#FFFFFF" cx="39.168" cy="49.939" r="1.659"/>
<path fill="#3C2163" d="M39.168,52.099c-1.19,0-2.159-0.969-2.159-2.16c0-1.189,0.968-2.157,2.159-2.157s2.159,0.968,2.159,2.157
	C41.327,51.13,40.358,52.099,39.168,52.099z M39.168,48.782c-0.639,0-1.159,0.519-1.159,1.157c0,0.64,0.52,1.16,1.159,1.16
	s1.159-0.521,1.159-1.16C40.327,49.301,39.807,48.782,39.168,48.782z"/>
<rect x="19.926" y="32.04" fill="#8FDAE2" width="10.377" height="6.446"/>
<rect x="34.062" y="32.04" fill="#F58B93" width="10.377" height="6.446"/>
<rect x="48.032" y="32.04" fill="#8FDAE2" width="10.378" height="6.446"/>
<rect x="20.416" y="20.224" fill="#F7D979" width="7.364" height="5.913"/>
<rect x="32.115" y="20.261" fill="#3C2163" width="24.728" height="1"/>
<rect x="32.115" y="22.906" fill="#3C2163" width="14.361" height="1"/>
<rect x="32.115" y="25.637" fill="#3C2163" width="10.507" height="1"/>
<rect x="45.145" y="25.637" fill="#3C2163" width="6.02" height="1"/>
<rect x="49.349" y="22.906" fill="#3C2163" width="3.63" height="1"/>
<polygon fill="#EAEAF9" points="62.385,11.717 62.385,42.232 10.769,42.232 10.769,46.048 62.385,46.048 67.566,46.048 
	67.566,42.232 67.566,11.717 "/>
<path fill="#C3A1F3" d="M69.636,50.053L82.554,62.97c1.025,1.026,2.686,1.026,3.711,0c1.025-1.024,1.025-2.687,0-3.71L73.347,46.339
	L69.636,50.053z"/>
<path fill="#3C2163" d="M84.41,64.239c-0.834,0-1.619-0.325-2.209-0.916L69.283,50.406c-0.195-0.195-0.195-0.512,0-0.707
	l3.711-3.714c0.188-0.188,0.52-0.188,0.707,0l12.918,12.921c0.59,0.589,0.915,1.373,0.915,2.208
	c0.001,0.834-0.324,1.619-0.915,2.209C86.029,63.914,85.244,64.239,84.41,64.239z M70.343,50.053l12.564,12.563
	c0.803,0.804,2.201,0.804,3.004,0c0.401-0.401,0.623-0.935,0.622-1.502c0-0.567-0.221-1.1-0.622-1.5L73.347,47.046L70.343,50.053z"
	/>
<path fill="#C3A1F3" d="M72.909,27.527c6.036,6.036,6.036,15.824,0,21.86c-6.036,6.037-15.822,6.037-21.858,0
	c-6.037-6.036-6.037-15.824,0-21.86C57.086,21.494,66.873,21.494,72.909,27.527z"/>
<path fill="#3C2163" d="M61.98,54.415c-4.263,0-8.27-1.659-11.283-4.674c-3.015-3.014-4.674-7.021-4.674-11.284
	s1.659-8.27,4.674-11.283c3.014-3.012,7.021-4.671,11.283-4.671c4.262,0,8.269,1.659,11.282,4.671
	c6.222,6.222,6.222,16.346,0,22.567C70.249,52.756,66.242,54.415,61.98,54.415z M61.98,23.502c-3.995,0-7.751,1.555-10.576,4.378
	c-2.825,2.825-4.381,6.581-4.381,10.576c0,3.996,1.556,7.752,4.381,10.577s6.581,4.381,10.576,4.381
	c3.994,0,7.75-1.556,10.575-4.381c5.832-5.832,5.832-15.321,0-21.153C69.73,25.058,65.974,23.502,61.98,23.502z"/>
<path fill="#FFFFFF" d="M70.75,29.688c4.842,4.842,4.842,12.696,0,17.542c-4.844,4.842-12.695,4.841-17.541,0
	c-4.843-4.847-4.843-12.698,0-17.542C58.054,24.844,65.906,24.844,70.75,29.688z"/>
<path fill="#3C2163" d="M61.98,51.361c-3.446,0-6.687-1.342-9.125-3.777c-5.029-5.032-5.028-13.219,0-18.249
	c2.438-2.438,5.679-3.78,9.125-3.78s6.686,1.343,9.123,3.78c5.029,5.029,5.029,13.216,0,18.249
	C68.667,50.02,65.426,51.361,61.98,51.361z M61.98,26.555c-3.18,0-6.169,1.239-8.418,3.487c-4.639,4.64-4.639,12.192,0,16.835
	c2.249,2.247,5.239,3.484,8.418,3.484c3.18,0,6.168-1.237,8.416-3.484c4.64-4.644,4.64-12.195,0-16.835
	C68.148,27.793,65.159,26.555,61.98,26.555z"/>
<g>
	<g>
		<path fill="#3C2163" d="M62.178,32.398c0.528,0,1.013,0.08,1.453,0.24c0.44,0.161,0.821,0.392,1.142,0.692
			c0.312,0.301,0.555,0.663,0.73,1.088c0.177,0.425,0.265,0.906,0.265,1.445c0,0.321-0.046,0.619-0.14,0.894
			s-0.218,0.531-0.373,0.77s-0.334,0.456-0.536,0.652c-0.202,0.197-0.412,0.373-0.63,0.528c-0.145,0.135-0.303,0.27-0.474,0.404
			s-0.329,0.279-0.474,0.436c-0.156,0.165-0.283,0.352-0.381,0.559c-0.1,0.208-0.148,0.446-0.148,0.716v0.839h-1.554v-0.839
			c0-0.591,0.153-1.127,0.458-1.609c0.307-0.481,0.729-0.898,1.268-1.251h-0.016c0.166-0.093,0.334-0.212,0.505-0.357
			c0.171-0.145,0.329-0.311,0.474-0.497c0.135-0.176,0.249-0.368,0.342-0.575c0.094-0.207,0.141-0.43,0.141-0.668
			c0-0.705-0.188-1.233-0.561-1.586c-0.372-0.352-0.869-0.528-1.491-0.528c-0.259,0-0.508,0.055-0.746,0.163
			c-0.238,0.109-0.45,0.257-0.638,0.443c-0.186,0.187-0.336,0.407-0.45,0.66c-0.114,0.255-0.177,0.531-0.187,0.832h-1.555
			c0.011-0.477,0.114-0.925,0.312-1.345c0.196-0.419,0.461-0.784,0.792-1.096c0.321-0.311,0.694-0.557,1.119-0.738
			C61.251,32.489,61.702,32.398,62.178,32.398z M62.816,43.837c0,0.27-0.089,0.497-0.265,0.684c-0.177,0.187-0.415,0.28-0.715,0.28
			c-0.301,0-0.542-0.094-0.723-0.28c-0.182-0.187-0.272-0.414-0.272-0.684s0.091-0.5,0.272-0.691
			c0.181-0.191,0.422-0.288,0.723-0.288c0.3,0,0.538,0.097,0.715,0.288C62.727,43.337,62.816,43.567,62.816,43.837z"/>
	</g>
</g>
</svg>
